<svg xmlns="http://www.w3.org/2000/svg" width="36" height="36" viewBox="0 0 36 36">
  <g id="emoji4_sel" transform="translate(-64.248 -278.291)">
    <g id="Group_98" data-name="Group 98" transform="translate(65.248 279.291)">
      <circle id="Ellipse_10" data-name="Ellipse 10" cx="17" cy="17" r="17" fill="none" stroke="#4658a7" stroke-width="2"/>
    </g>
    <path id="Path_10531" data-name="Path 10531" d="M1652.43,453.316a.758.758,0,0,1-.728-.547,4.061,4.061,0,1,1,7.8-2.255.758.758,0,1,1-1.457.421,2.545,2.545,0,0,0-4.89,1.413.758.758,0,0,1-.517.939A.748.748,0,0,1,1652.43,453.316Z" transform="translate(-1568.968 -164.192)" fill="#4658a7"/>
    <path id="Path_10532" data-name="Path 10532" d="M1639.482,456.85a.758.758,0,0,1-.728-.548,4.061,4.061,0,1,1,7.8-2.254.758.758,0,1,1-1.456.421,2.545,2.545,0,0,0-4.889,1.413.758.758,0,0,1-.518.939A.734.734,0,0,1,1639.482,456.85Z" transform="translate(-1568.806 -163.936)" fill="#4658a7"/>
    <path id="Path_10533" data-name="Path 10533" d="M1649.321,463.642a8.017,8.017,0,0,1-5.127-1.838.758.758,0,0,1,.97-1.165,6.5,6.5,0,0,0,4.157,1.487,6.285,6.285,0,0,0,6.135-4.547.758.758,0,0,1,1.464.393A7.8,7.8,0,0,1,1649.321,463.642Z" transform="translate(-1568.639 -164.009)" fill="#4658a7"/>
  </g>
</svg>
