<svg xmlns="http://www.w3.org/2000/svg" width="17.12" height="18.167" viewBox="0 0 17.12 18.167">
  <path id="add" d="M152.9-846.447v-2.814h-2.814v-1.407H152.9v-2.814h1.407v2.814h2.814v1.407h-2.814v2.814Zm-11.2-2.111a1.637,1.637,0,0,1-1.2-.493,1.637,1.637,0,0,1-.493-1.2v-10.68a1.637,1.637,0,0,1,.493-1.2,1.637,1.637,0,0,1,1.2-.492H143v-1.984h1.443v1.984h5.232v-1.984h1.407v1.984h1.3a1.637,1.637,0,0,1,1.2.492,1.637,1.637,0,0,1,.492,1.2v5.542a5.753,5.753,0,0,0-.7-.043,5.753,5.753,0,0,0-.7.043v-1.79H141.408v6.927a.276.276,0,0,0,.09.2.276.276,0,0,0,.2.09h6.413a5.752,5.752,0,0,0,.043.7,3.706,3.706,0,0,0,.159.7Zm-.289-10.03h11.257v-2.345a.276.276,0,0,0-.09-.2.276.276,0,0,0-.2-.09H141.7a.276.276,0,0,0-.2.09.276.276,0,0,0-.09.2Zm0,0v0Z" transform="translate(-140.001 864.614)" fill="#333"/>
</svg>
