<svg xmlns="http://www.w3.org/2000/svg" xmlns:xlink="http://www.w3.org/1999/xlink" width="136.672" height="17.522" viewBox="0 0 136.672 17.522">
  <defs>
    <linearGradient id="linear-gradient" x2="1.316" y2="1.539" gradientUnits="objectBoundingBox">
      <stop offset="0" stop-color="#4285f4"/>
      <stop offset="1" stop-color="#0bdd94"/>
    </linearGradient>
  </defs>
  <g id="Group_5147" data-name="Group 5147" transform="translate(-15.198 -526.876)">
    <path id="Path_10352" data-name="Path 10352" d="M12.5,0,6.49-15.4H9.042L15.2,0ZM.2,0,6.336-15.4H8.91L2.9,0ZM3.08-3.784V-6.05H12.3v2.266ZM17.2,0V-15.4h2.552V0ZM28.71,0V-15.4h2.728l4.84,7.128,4.8-7.128h2.75V0H41.272V-11.374L36.256-3.96l-4.994-7.37V0ZM53.724,0l-.11-2.068V-5.654a6.55,6.55,0,0,0-.231-1.881A2.276,2.276,0,0,0,52.635-8.7a2.161,2.161,0,0,0-1.375-.407,2.808,2.808,0,0,0-1.386.33,2.744,2.744,0,0,0-1.012,1.034l-2.156-.792a5.52,5.52,0,0,1,.935-1.353,4.2,4.2,0,0,1,1.474-1,5.532,5.532,0,0,1,2.145-.374,5.267,5.267,0,0,1,2.684.627,3.8,3.8,0,0,1,1.6,1.793,6.922,6.922,0,0,1,.517,2.816L55.99,0ZM50.556.264a4.765,4.765,0,0,1-3.069-.88A3.014,3.014,0,0,1,46.4-3.1,3.122,3.122,0,0,1,47.553-5.72a5.121,5.121,0,0,1,3.223-.9h2.948V-4.73H51.568a3.843,3.843,0,0,0-2.068.407,1.318,1.318,0,0,0-.594,1.155,1.157,1.157,0,0,0,.517,1,2.478,2.478,0,0,0,1.441.363,2.743,2.743,0,0,0,1.452-.374,2.636,2.636,0,0,0,.957-.99,2.813,2.813,0,0,0,.341-1.386h.726a6.064,6.064,0,0,1-.9,3.531A3.272,3.272,0,0,1,50.556.264Zm12.364,0a3.7,3.7,0,0,1-2.651-.869,3.284,3.284,0,0,1-.913-2.5v-11.33H61.8V-3.564A1.67,1.67,0,0,0,62.161-2.4a1.376,1.376,0,0,0,1.067.4,1.542,1.542,0,0,0,.484-.088,2.243,2.243,0,0,0,.594-.33l.9,1.87a5.081,5.081,0,0,1-1.144.605A3.314,3.314,0,0,1,62.92.264ZM57.53-8.888V-11h7.238v2.112ZM72.2.264a5.954,5.954,0,0,1-2.992-.737,5.319,5.319,0,0,1-2.035-2.035A5.954,5.954,0,0,1,66.44-5.5a5.954,5.954,0,0,1,.737-2.992A5.341,5.341,0,0,1,69.2-10.527a5.848,5.848,0,0,1,2.959-.737,5.68,5.68,0,0,1,2.948.781A4.736,4.736,0,0,1,77.066-8.25l-2.288.88A2.748,2.748,0,0,0,73.7-8.536a3.12,3.12,0,0,0-1.65-.44,2.912,2.912,0,0,0-1.606.451,3.09,3.09,0,0,0-1.1,1.232,3.911,3.911,0,0,0-.4,1.793,3.824,3.824,0,0,0,.407,1.793,3.142,3.142,0,0,0,1.122,1.232,2.967,2.967,0,0,0,1.617.451,2.956,2.956,0,0,0,1.65-.473,2.85,2.85,0,0,0,1.078-1.287l2.288.88A5.036,5.036,0,0,1,75.163-.572,5.38,5.38,0,0,1,72.2.264ZM79.046,0V-15.4H81.51V0ZM86.5,0V-5.632h2.464V0Zm0-5.632A5.316,5.316,0,0,0,86.2-7.667a1.944,1.944,0,0,0-.847-1,2.612,2.612,0,0,0-1.243-.286,2.27,2.27,0,0,0-1.925.814,3.75,3.75,0,0,0-.671,2.4h-.946a7.747,7.747,0,0,1,.517-2.981,4.15,4.15,0,0,1,1.463-1.892,3.869,3.869,0,0,1,2.244-.649,4.533,4.533,0,0,1,2.244.528A3.378,3.378,0,0,1,88.473-9.1,7.173,7.173,0,0,1,88.968-6.2v.572ZM96.36.264a5.479,5.479,0,0,1-2.849-.737,5.278,5.278,0,0,1-1.958-2.035A6.1,6.1,0,0,1,90.838-5.5a6.026,6.026,0,0,1,.726-2.992,5.309,5.309,0,0,1,1.991-2.035,5.64,5.64,0,0,1,2.893-.737,4.84,4.84,0,0,1,2.662.759,5.221,5.221,0,0,1,1.881,2.189,7.75,7.75,0,0,1,.693,3.41H93.038l.33-.308a3.349,3.349,0,0,0,.44,1.749,3.033,3.033,0,0,0,1.166,1.133,3.3,3.3,0,0,0,1.606.4,2.9,2.9,0,0,0,1.672-.451,3.146,3.146,0,0,0,1.034-1.177l2.178.924a5.656,5.656,0,0,1-1.177,1.54A4.918,4.918,0,0,1,98.593-.088,6.577,6.577,0,0,1,96.36.264ZM93.522-6.49,93.17-6.8h6.2l-.33.308a2.588,2.588,0,0,0-.4-1.485,2.561,2.561,0,0,0-1-.88,2.836,2.836,0,0,0-1.265-.3,3.193,3.193,0,0,0-1.32.3,2.8,2.8,0,0,0-1.1.88A2.4,2.4,0,0,0,93.522-6.49ZM107.58.264a5.979,5.979,0,0,1-2.024-.33A4.6,4.6,0,0,1,103.972-1,4.128,4.128,0,0,1,102.96-2.42l2.134-.946a2.8,2.8,0,0,0,.979,1.034,2.606,2.606,0,0,0,1.441.418,2.752,2.752,0,0,0,1.375-.3.914.914,0,0,0,.517-.825.9.9,0,0,0-.4-.781,3.387,3.387,0,0,0-1.122-.451l-1.034-.286a5.221,5.221,0,0,1-2.442-1.265,2.723,2.723,0,0,1-.88-1.991,3.158,3.158,0,0,1,1.067-2.552,4.63,4.63,0,0,1,3.069-.9,5.584,5.584,0,0,1,1.859.3,4.41,4.41,0,0,1,1.463.836,2.869,2.869,0,0,1,.858,1.265l-2.046.924a1.6,1.6,0,0,0-.836-.847,3.1,3.1,0,0,0-1.364-.3,1.884,1.884,0,0,0-1.166.319,1.057,1.057,0,0,0-.418.891.765.765,0,0,0,.374.605,3.109,3.109,0,0,0,1.078.451l1.3.308a4.362,4.362,0,0,1,1.76.825,3.678,3.678,0,0,1,1.012,1.254,3.222,3.222,0,0,1,.33,1.4,2.817,2.817,0,0,1-.561,1.738A3.61,3.61,0,0,1,109.78-.143,5.63,5.63,0,0,1,107.58.264Z" transform="translate(40 544)" fill="url(#linear-gradient)"/>
    <g id="noun-ai-6297105" transform="translate(9.332 522.342)">
      <path id="Path_10292" data-name="Path 10292" d="M13.6,6.765a.374.374,0,0,1,.689,0,15.266,15.266,0,0,0,2.366,4.466,15.2,15.2,0,0,0,4.279,2.37.373.373,0,0,1,0,.682,15.2,15.2,0,0,0-4.279,2.369,15.267,15.267,0,0,0-2.366,4.466.374.374,0,0,1-.689,0,15.268,15.268,0,0,0-2.366-4.466,15.266,15.266,0,0,0-4.466-2.366.374.374,0,0,1,0-.689A15.27,15.27,0,0,0,11.23,11.23,15.266,15.266,0,0,0,13.6,6.765Z" transform="translate(0.238 0.711)" fill="#ffce00"/>
      <path id="Path_10293" data-name="Path 10293" d="M17.516,4.76a.4.4,0,0,1,.72,0,6.19,6.19,0,0,0,1,1.76,6.257,6.257,0,0,0,1.7,1,.4.4,0,0,1,0,.71,6.255,6.255,0,0,0-1.7,1,6.19,6.19,0,0,0-1,1.76.4.4,0,0,1-.72,0,6.19,6.19,0,0,0-1-1.76,6.192,6.192,0,0,0-1.761-1,.4.4,0,0,1,0-.72,6.192,6.192,0,0,0,1.761-1A6.19,6.19,0,0,0,17.516,4.76Z" transform="translate(3.079 0)" fill="#ffce00"/>
      <path id="Path_10294" data-name="Path 10294" d="M7.479,6.088a.429.429,0,0,1,.751,0,3.248,3.248,0,0,0,.528.863,3.347,3.347,0,0,0,.845.534.425.425,0,0,1,0,.739,3.346,3.346,0,0,0-.845.534,3.248,3.248,0,0,0-.528.863.429.429,0,0,1-.751,0,3.249,3.249,0,0,0-.528-.863,3.248,3.248,0,0,0-.863-.528.429.429,0,0,1,0-.751,3.249,3.249,0,0,0,.863-.528A3.249,3.249,0,0,0,7.479,6.088Z" transform="translate(0 0.473)" fill="#ffce00"/>
    </g>
  </g>
</svg>
