<svg id="ai_matches_btn" xmlns="http://www.w3.org/2000/svg" xmlns:xlink="http://www.w3.org/1999/xlink" width="118" height="25" viewBox="0 0 118 25">
  <defs>
    <linearGradient id="linear-gradient" x1="0.522" x2="0.567" y2="1.172" gradientUnits="objectBoundingBox">
      <stop offset="0" stop-color="#4285f4"/>
      <stop offset="1" stop-color="#0bdd94"/>
    </linearGradient>
  </defs>
  <path id="Path_13818" data-name="Path 13818" d="M12.5,0h93a12.5,12.5,0,0,1,0,25h-93a12.5,12.5,0,0,1,0-25Z" fill="url(#linear-gradient)"/>
  <g id="Group_5365" data-name="Group 5365" transform="translate(-281 3)">
    <g id="Group_5363" data-name="Group 5363" transform="translate(2 1)">
      <path id="Path_13817" data-name="Path 13817" d="M-62.944,0l-3.878-9.8h1.4L-61.474,0Zm-7.9,0,3.948-9.8h1.4L-69.37,0Zm1.862-2.618V-3.85h5.642v1.232ZM-60.1,0V-9.8h1.372V0Zm7.28,0V-9.8h1.456L-48.118-5l3.234-4.8h1.456V0H-44.8V-7.588l-3.332,4.914-3.318-4.9V0ZM-36.96,0l-.056-1.218V-3.654a4.07,4.07,0,0,0-.175-1.288,1.569,1.569,0,0,0-.532-.784,1.544,1.544,0,0,0-.945-.266,1.9,1.9,0,0,0-.945.224,1.756,1.756,0,0,0-.665.7l-1.176-.448a3.422,3.422,0,0,1,.63-.847,2.782,2.782,0,0,1,.91-.588,3.285,3.285,0,0,1,1.246-.217,3.183,3.183,0,0,1,1.652.392,2.424,2.424,0,0,1,.987,1.134,4.382,4.382,0,0,1,.315,1.834L-35.728,0Zm-2.058.168A2.982,2.982,0,0,1-40.957-.4a1.923,1.923,0,0,1-.693-1.575,1.968,1.968,0,0,1,.721-1.645,3.175,3.175,0,0,1,2.009-.567h1.946v1.05h-1.582a2.3,2.3,0,0,0-1.358.3A.992.992,0,0,0-40.306-2a.893.893,0,0,0,.371.763,1.706,1.706,0,0,0,1.029.273,1.938,1.938,0,0,0,.994-.245,1.714,1.714,0,0,0,.658-.693,2.145,2.145,0,0,0,.238-1.022h.462a3.756,3.756,0,0,1-.609,2.261A2.147,2.147,0,0,1-39.018.168Zm7.686,0a2.282,2.282,0,0,1-1.624-.539,2.019,2.019,0,0,1-.574-1.547V-9.184h1.33v7.07a1.106,1.106,0,0,0,.259.791.984.984,0,0,0,.749.273.981.981,0,0,0,.308-.056,1.656,1.656,0,0,0,.406-.224l.5,1.036a3.119,3.119,0,0,1-.693.35A2.051,2.051,0,0,1-31.332.168Zm-3.388-6.02V-7h4.508v1.148Zm9.2,6.02A3.655,3.655,0,0,1-27.384-.3,3.314,3.314,0,0,1-28.651-1.6a3.882,3.882,0,0,1-.455-1.9,3.882,3.882,0,0,1,.455-1.9,3.328,3.328,0,0,1,1.26-1.3,3.589,3.589,0,0,1,1.841-.469,3.6,3.6,0,0,1,1.841.476,2.963,2.963,0,0,1,1.225,1.358l-1.2.5a1.97,1.97,0,0,0-.763-.812,2.2,2.2,0,0,0-1.141-.294,2.06,2.06,0,0,0-1.12.308,2.125,2.125,0,0,0-.77.861,2.767,2.767,0,0,0-.28,1.267,2.724,2.724,0,0,0,.28,1.26,2.151,2.151,0,0,0,.784.861,2.1,2.1,0,0,0,1.134.315,2.053,2.053,0,0,0,1.148-.329,2.036,2.036,0,0,0,.756-.889l1.218.49A3.171,3.171,0,0,1-23.667-.35,3.4,3.4,0,0,1-25.522.168ZM-21.112,0V-9.8H-19.8V0Zm4.844,0V-3.584h1.316V0Zm0-3.584a3.659,3.659,0,0,0-.224-1.449,1.366,1.366,0,0,0-.609-.693,2.033,2.033,0,0,0-.875-.21,1.615,1.615,0,0,0-1.344.6A2.671,2.671,0,0,0-19.8-3.64h-.56a4.93,4.93,0,0,1,.329-1.9,2.668,2.668,0,0,1,.938-1.211,2.489,2.489,0,0,1,1.449-.42,2.885,2.885,0,0,1,1.428.336,2.26,2.26,0,0,1,.938,1.043,4.229,4.229,0,0,1,.322,1.855v.35Zm6.09,3.752A3.45,3.45,0,0,1-11.984-.3,3.324,3.324,0,0,1-13.216-1.6a3.931,3.931,0,0,1-.448-1.9,3.931,3.931,0,0,1,.448-1.9,3.309,3.309,0,0,1,1.239-1.3,3.487,3.487,0,0,1,1.813-.469,2.993,2.993,0,0,1,1.694.483A3.233,3.233,0,0,1-7.329-5.313,4.926,4.926,0,0,1-6.916-3.22h-5.656l.252-.21a2.678,2.678,0,0,0,.294,1.288,2.052,2.052,0,0,0,.8.833,2.279,2.279,0,0,0,1.148.287,1.986,1.986,0,0,0,1.169-.329,2.336,2.336,0,0,0,.735-.833l1.148.532a3.41,3.41,0,0,1-.728.959,3.138,3.138,0,0,1-1.057.637A3.932,3.932,0,0,1-10.178.168ZM-12.236-4.06l-.266-.21h4.424l-.252.21a2.1,2.1,0,0,0-.252-1.057,1.723,1.723,0,0,0-.672-.672,1.914,1.914,0,0,0-.938-.231,2.177,2.177,0,0,0-.973.231,2,2,0,0,0-.77.665A1.821,1.821,0,0,0-12.236-4.06ZM-3.094.168A3.658,3.658,0,0,1-4.417-.056a2.946,2.946,0,0,1-.98-.6,2.461,2.461,0,0,1-.595-.854l1.148-.5a1.822,1.822,0,0,0,.672.714,1.838,1.838,0,0,0,.994.28,1.983,1.983,0,0,0,.994-.224.7.7,0,0,0,.392-.63.732.732,0,0,0-.294-.616,2.366,2.366,0,0,0-.854-.364L-3.6-3.024a3.377,3.377,0,0,1-1.519-.8,1.651,1.651,0,0,1-.539-1.2A1.964,1.964,0,0,1-5-6.608a2.934,2.934,0,0,1,1.946-.56A3.506,3.506,0,0,1-1.9-6.986a2.57,2.57,0,0,1,.9.518,1.852,1.852,0,0,1,.525.8l-1.12.5a1.154,1.154,0,0,0-.574-.623,2.1,2.1,0,0,0-.952-.2A1.425,1.425,0,0,0-4-5.747a.805.805,0,0,0-.322.679.6.6,0,0,0,.273.455,2.2,2.2,0,0,0,.805.357l.756.182a3.028,3.028,0,0,1,1.134.511,2.356,2.356,0,0,1,.672.77A1.889,1.889,0,0,1-.462-1.9a1.812,1.812,0,0,1-.343,1.1,2.188,2.188,0,0,1-.938.721A3.435,3.435,0,0,1-3.094.168Z" transform="translate(386 13)" fill="#fff"/>
    </g>
    <g id="noun-ai-6297105" transform="translate(293 2)">
      <path id="Path_10292" data-name="Path 10292" d="M12.688,6.735a.326.326,0,0,1,.6,0,13.3,13.3,0,0,0,2.061,3.891,13.245,13.245,0,0,0,3.729,2.065.325.325,0,0,1,0,.594,13.246,13.246,0,0,0-3.729,2.065,13.3,13.3,0,0,0-2.061,3.891.326.326,0,0,1-.6,0,13.3,13.3,0,0,0-2.061-3.891,13.3,13.3,0,0,0-3.891-2.061.326.326,0,0,1,0-.6,13.305,13.305,0,0,0,3.891-2.061A13.3,13.3,0,0,0,12.688,6.735Z" transform="translate(-5.745 -4.173)" fill="#ffce00"/>
      <path id="Path_10293" data-name="Path 10293" d="M17.132,4.731a.348.348,0,0,1,.627,0,5.394,5.394,0,0,0,.867,1.534,5.451,5.451,0,0,0,1.481.872.346.346,0,0,1,0,.619,5.45,5.45,0,0,0-1.481.872,5.394,5.394,0,0,0-.867,1.534.348.348,0,0,1-.627,0,5.394,5.394,0,0,0-.867-1.534,5.4,5.4,0,0,0-1.534-.867.348.348,0,0,1,0-.627,5.4,5.4,0,0,0,1.534-.867A5.394,5.394,0,0,0,17.132,4.731Z" transform="translate(-4.299 -4.535)" fill="#ffce00"/>
      <path id="Path_10294" data-name="Path 10294" d="M7.271,6.059a.374.374,0,0,1,.654,0,2.83,2.83,0,0,0,.46.752,2.916,2.916,0,0,0,.736.465.37.37,0,0,1,0,.644,2.916,2.916,0,0,0-.736.465,2.83,2.83,0,0,0-.46.752.374.374,0,0,1-.654,0,2.831,2.831,0,0,0-.46-.752,2.83,2.83,0,0,0-.752-.46.374.374,0,0,1,0-.654,2.831,2.831,0,0,0,.752-.46A2.831,2.831,0,0,0,7.271,6.059Z" transform="translate(-5.866 -4.294)" fill="#ffce00"/>
    </g>
  </g>
</svg>
