<svg xmlns="http://www.w3.org/2000/svg" width="106.767" height="106.732" viewBox="0 0 106.767 106.732">
  <g id="_249147967_213e7a59-4e79-4090-8361-0a81d11cff71" data-name="249147967_213e7a59-4e79-4090-8361-0a81d11cff71" transform="translate(-10.797 -10.709)">
    <path id="Path_10438" data-name="Path 10438" d="M119.348,204.937a2.3,2.3,0,0,1,.505.01,1,1,0,0,1,.606.4,1.058,1.058,0,0,1,.146.847,1.2,1.2,0,0,1-.682.661,1.416,1.416,0,0,1-.352.025,1.078,1.078,0,0,1-.678-.411.976.976,0,0,1-.187-.777A1.213,1.213,0,0,1,119.348,204.937Z" transform="translate(-103.807 -179.238)" fill="#fbcc79"/>
    <path id="Path_10439" data-name="Path 10439" d="M881.578,244.769a2.207,2.207,0,0,1,.381.139,4.2,4.2,0,0,1,.094,1.311l.96-.012c.2.009.231-.019.363.127.035.174.066.218-.008.376a3.932,3.932,0,0,1-1.3.109,2.377,2.377,0,0,1-.256,1.624.934.934,0,0,1-.268-.186c-.227-.261-.122-1.1-.115-1.458-.481,0-1.062.109-1.441-.215,0-.228.044-.233.19-.4a10.882,10.882,0,0,0,1.18.025C881.5,245.743,881.275,245.2,881.578,244.769Z" transform="translate(-769.669 -214.085)" fill="#fbcc79"/>
    <path id="Path_10440" data-name="Path 10440" d="M406.2,85.432a1.5,1.5,0,0,1,.617.049,1.176,1.176,0,0,1,.649.708,1.1,1.1,0,0,1-.769,1.449,1.837,1.837,0,0,1-.528-.053,1.326,1.326,0,0,1-.744-.655,1.148,1.148,0,0,1-.021-.772A1.246,1.246,0,0,1,406.2,85.432Z" transform="translate(-354.537 -74.715)" fill="#48b4f2"/>
    <path id="Path_10441" data-name="Path 10441" d="M891.86,824.055a2,2,0,0,1,.591.055,1.108,1.108,0,0,1,.682.577,1.15,1.15,0,0,1,.053.9,1.32,1.32,0,0,1-.836.772,1.735,1.735,0,0,1-.51-.056,1.141,1.141,0,0,1-.76-.567,1.446,1.446,0,0,1-.017-1.042A1.225,1.225,0,0,1,891.86,824.055Z" transform="translate(-779.283 -720.75)" fill="#a6b4ed"/>
    <path id="Path_10442" data-name="Path 10442" d="M125.813,798.679l.152.057a3.187,3.187,0,0,1,.559,1.265c.323.16.748.122,1.1.266a.463.463,0,0,1,.156.427,1.769,1.769,0,0,1-1.142.372c-.264.429-.351.9-.635,1.327-.474-.156-.5-.807-.688-1.218,0,0-.072-.152-.075-.154-.324-.188-.823-.058-1.176-.321a.483.483,0,0,1,.046-.4,2.211,2.211,0,0,1,.827-.258C125.531,799.944,125.495,799.111,125.813,798.679Z" transform="translate(-108.492 -698.558)" fill="#fbcc79"/>
    <path id="Path_10443" data-name="Path 10443" d="M818.473,694.58l-.044.115c-.122.311-.307.58-.417.9a5.462,5.462,0,0,0,.686,4.668l.062.1a5.183,5.183,0,0,0,3.362,2.094,4.575,4.575,0,0,0,2.91-.467c.209-.11.406-.326.65-.322a5.808,5.808,0,0,1-.917.994,4.872,4.872,0,0,1-3.441,1.1,5.372,5.372,0,0,1-3.621-2.005,5.236,5.236,0,0,1-1.124-3.668A4.861,4.861,0,0,1,818.473,694.58Z" transform="translate(-714.195 -607.508)" fill="#f3903a"/>
    <path id="Path_10444" data-name="Path 10444" d="M826.844,686.615a4.733,4.733,0,0,1,2.734-1.122,5.368,5.368,0,0,1,3.7,1.177,5.128,5.128,0,0,1,1.788,3.477,5.019,5.019,0,0,1-.1,1.441,4.608,4.608,0,0,1-.917,2.111c-.244,0-.441.212-.65.322a4.575,4.575,0,0,1-2.91.467,5.183,5.183,0,0,1-3.362-2.094l-.062-.1a5.462,5.462,0,0,1-.686-4.668c.11-.321.295-.59.417-.9Z" transform="translate(-722.567 -599.544)" fill="#fbcc79"/>
    <path id="Path_10445" data-name="Path 10445" d="M103.543,616a10.532,10.532,0,0,1-.016,2.033,8.682,8.682,0,0,1-.958,3.1,8.784,8.784,0,0,1-5.177,4.277,8.52,8.52,0,0,1-6.652-.66,9.04,9.04,0,0,1-4.227-5.271,8.929,8.929,0,0,1,.787-6.826,8.578,8.578,0,0,1,5.169-4.051,8.489,8.489,0,0,1,5.282.149,14.87,14.87,0,0,1,2.042,1.013,8.727,8.727,0,0,1,3.62,5.542Z" transform="translate(-75.359 -532.004)" fill="#35c1a8"/>
    <path id="Path_10446" data-name="Path 10446" d="M133.39,658.194a3.3,3.3,0,0,1,.909.785l1.39,1.416,1.979-1.986a.475.475,0,0,1,.461-.158c.154.156.2.164.221.39a4.88,4.88,0,0,1-.771.861l-1.36,1.36,2.014,2.078c.038.249-.053.325-.174.539-.6-.14-1.861-1.636-2.346-2.126a12.7,12.7,0,0,1-2.306,2.133.721.721,0,0,1-.282-.4c.085-.439,1.7-1.871,2.066-2.237l-1.4-1.407a4.505,4.505,0,0,1-.723-.806A.948.948,0,0,1,133.39,658.194Z" transform="translate(-116.388 -575.684)" fill="#fefefe"/>
    <path id="Path_10447" data-name="Path 10447" d="M202.764,108.315a9.793,9.793,0,0,1-4.2-2.468,8.821,8.821,0,0,1-2.607-6.358,8.964,8.964,0,0,1,2.681-6.451,9.432,9.432,0,0,1,13.056-.021,9.6,9.6,0,0,1,2.737,7.1,9.369,9.369,0,0,1-3.447,6.576,9.619,9.619,0,0,1-7.08,1.845Z" transform="translate(-171.389 -79.07)" fill="#f86567"/>
    <path id="Path_10448" data-name="Path 10448" d="M250.9,121.169a3.326,3.326,0,0,1,1.259.226A2.938,2.938,0,0,1,253.644,123l.033.089a1.543,1.543,0,0,1,.1.345,2.68,2.68,0,0,1-.528,2.006,2.762,2.762,0,0,1-1.953,1.077,2.706,2.706,0,0,1-1.709-.434,2.792,2.792,0,0,1-1.176-1.836,2.593,2.593,0,0,1,.52-2A2.747,2.747,0,0,1,250.9,121.169Z" transform="translate(-217.243 -105.979)" fill="#fefefe"/>
    <path id="Path_10449" data-name="Path 10449" d="M235.516,166.855c.225.023.474.364.645.52a6.618,6.618,0,0,0,.627.487,9.508,9.508,0,0,0,1.121-1.041,4.872,4.872,0,0,1,2.3.962,3.745,3.745,0,0,1,1.3,3.055l-2.334.375a23.712,23.712,0,0,1-7.071-.385,4.389,4.389,0,0,1,.615-2.241A4.188,4.188,0,0,1,235.516,166.855Z" transform="translate(-203.01 -145.909)" fill="#fefefe"/>
    <path id="Path_10450" data-name="Path 10450" d="M676.149,99.6a12.878,12.878,0,0,1,.153-2.191,9.285,9.285,0,0,1,2.675-4.92,10.3,10.3,0,0,1,7.151-2.633,9.566,9.566,0,0,1,9.028,7.788,9.322,9.322,0,0,1-1.376,6.891,9.623,9.623,0,0,1-6.107,4.181l-.628.1a10.049,10.049,0,0,1-2.273.006,9.886,9.886,0,0,1-5.348-2.35A9.571,9.571,0,0,1,676.149,99.6Z" transform="translate(-591.388 -78.589)" fill="#35c1a8"/>
    <path id="Path_10451" data-name="Path 10451" d="M705.358,111.209l.677.01.011.987a7.188,7.188,0,0,1,3.513,1.53l.605-.551.632.691-.687.613a8.481,8.481,0,0,1,1.232,2.914l.732.051a.426.426,0,0,1,.233.31.677.677,0,0,1-.076.561l-.856.024a7.782,7.782,0,0,0-.247.982,6.777,6.777,0,0,1-1.076,2.225l.727.579a3.247,3.247,0,0,1-.678.7l-.721-.62a5.309,5.309,0,0,1-3.4,1.458,2.983,2.983,0,0,1-.049,1.052l-.252.039c-.206-.011-.529.03-.679-.108l-.009-.962a6.019,6.019,0,0,1-3.5-1.6,6.021,6.021,0,0,1-.6.663l-.65-.594a4.332,4.332,0,0,1,.706-.714,7.7,7.7,0,0,1-1.366-3.112l-.233,0c-.2,0-.514.021-.647-.116a2.5,2.5,0,0,1,.018-.721,2.033,2.033,0,0,1,.864-.105,7.906,7.906,0,0,1,.44-1.691,11,11,0,0,1,.659-1.169,5.179,5.179,0,0,1-.569-.608.564.564,0,0,1,.038-.188.875.875,0,0,1,.478-.413c.239.02.476.28.656.43a6.946,6.946,0,0,1,3.776-1.607l.074-.887Z" transform="translate(-611.098 -97.268)" fill="#fefefe"/>
    <path id="Path_10452" data-name="Path 10452" d="M716.164,123.983a5.135,5.135,0,0,1,5.589,4.43,4.9,4.9,0,0,1-.87,3.538,5.79,5.79,0,0,1-3.735,2.278,5.486,5.486,0,0,1-3.687-1.159,4.986,4.986,0,0,1-1.016-7.045A5.622,5.622,0,0,1,716.164,123.983Z" transform="translate(-622.237 -108.418)" fill="#35c1a8"/>
    <path id="Path_10453" data-name="Path 10453" d="M722.754,132.056a5.542,5.542,0,0,1,.965.009,4.578,4.578,0,0,1,1.812.567,4.292,4.292,0,0,1,1.866,2.585,4.085,4.085,0,0,1-.478,3.119,4.243,4.243,0,0,1-6.188,1.167,4.163,4.163,0,0,1-1.664-2.691,4.105,4.105,0,0,1,.736-3.137A4.186,4.186,0,0,1,722.754,132.056Z" transform="translate(-628.876 -115.487)" fill="#fefefe"/>
    <path id="Path_10454" data-name="Path 10454" d="M726.5,136.074a4.263,4.263,0,0,1,2.58.546,3.675,3.675,0,0,1,1.594,2.22,3.831,3.831,0,0,1-.445,2.84,3.9,3.9,0,0,1-2.462,1.623,3.155,3.155,0,0,1-1.494,0l-.12-.033a4.127,4.127,0,0,1-1.289-.6,3.526,3.526,0,0,1-1.509-2.365,3.687,3.687,0,0,1,.655-2.741A3.625,3.625,0,0,1,726.5,136.074Z" transform="translate(-632.639 -119.009)" fill="#35c1a8"/>
    <path id="Path_10455" data-name="Path 10455" d="M748.531,163.027c.17-.206.158-.223.438-.269a.4.4,0,0,1,.286.218,2.047,2.047,0,0,1-.228.973,4.345,4.345,0,0,0-.409.218.775.775,0,0,1,.131.658.451.451,0,0,1-.094.189.409.409,0,0,1-.376-.137.416.416,0,0,1-.139-.323c.066-.072.355-.28.383-.353a2.724,2.724,0,0,0-.033-.427A4.628,4.628,0,0,1,748.531,163.027Z" transform="translate(-654.354 -142.355)" fill="#fefefe"/>
    <path id="Path_10456" data-name="Path 10456" d="M738.059,160.739l-.137.058a.442.442,0,0,1-.3-.117c-.27-.219-.128-.449-.161-.739a1.245,1.245,0,0,1-.693-.492.845.845,0,0,1-.108-.677.7.7,0,0,1,.393-.3.778.778,0,0,1,.636.165,2.991,2.991,0,0,1,.141.92,3.424,3.424,0,0,1,.518.637Z" transform="translate(-644.287 -138.589)" fill="#fefefe"/>
    <path id="Path_10457" data-name="Path 10457" d="M744.665,152.426a.765.765,0,0,1,.043-.68,1.031,1.031,0,0,1,.39-.357.879.879,0,0,1,.759.1.8.8,0,0,1,.279.411l.09-.074a.555.555,0,0,1,.452-.12,1.091,1.091,0,0,1,.742.571.758.758,0,0,1,.178.564c-.119.238-.646.644-.665.809a1.118,1.118,0,0,1-.367.846l-.719.483a3.17,3.17,0,0,1,.128-.961,1.667,1.667,0,0,0,.5-.775c.083-.528-.071-.63-.368-1.025a3.948,3.948,0,0,0-.889.711l-.182-.021A3.485,3.485,0,0,1,744.665,152.426Z" transform="translate(-651.264 -132.379)" fill="#fefefe"/>
    <path id="Path_10458" data-name="Path 10458" d="M238.551,596.066a2.893,2.893,0,0,1,.084-.437,15.625,15.625,0,0,0,6.049,2.851,12.743,12.743,0,0,0,8.346-1.22,27.211,27.211,0,0,0,2.684-1.7l0,2.2c.05.98.232,8.066.378,8.36l3,1.248,14.9,5.717a18.728,18.728,0,0,1,3.8,2.662,17.82,17.82,0,0,1,5.568,7.995,34.335,34.335,0,0,1,1.507,9.984,3.19,3.19,0,0,1-.486.576,14.593,14.593,0,0,1-7.137,3.622c-.808.164-1.629.23-2.446.326l-.211,0a9.312,9.312,0,0,1-1.694.064l-2.866.009-10.561.026-23.281-.016-15.9,0-.715-.022a17.454,17.454,0,0,1-7.881-2.447,11.087,11.087,0,0,1-2.065-1.445,2.907,2.907,0,0,1-.4-.479,25.486,25.486,0,0,1,1.446-10.018,18.752,18.752,0,0,1,5.5-8.367,20.351,20.351,0,0,1,3.934-2.481l14.775-5.789,3.353-1.336.286-8.274Z" transform="translate(-182.945 -520.899)" fill="#3a88b3"/>
    <path id="Path_10459" data-name="Path 10459" d="M726.985,837.92a2.347,2.347,0,0,1-.552-.037c-.056-.587-.022-1.2-.018-1.787l.063-3.583.1-5.143c.022-1.168.014-2.351.113-3.514l.5,14.067Z" transform="translate(-635.34 -720.579)" fill="#2961a2"/>
    <path id="Path_10460" data-name="Path 10460" d="M292.215,834.606l.322-13.271a4.159,4.159,0,0,1,.125-1.335l.3,10.436.033,2.715a8.13,8.13,0,0,1-.064,1.476Z" transform="translate(-255.583 -717.206)" fill="#2961a2"/>
    <path id="Path_10461" data-name="Path 10461" d="M607.312,689.727l14.9,5.717a18.729,18.729,0,0,1,3.8,2.662,17.82,17.82,0,0,1,5.568,7.995,34.337,34.337,0,0,1,1.507,9.984,3.193,3.193,0,0,1-.486.576,11.685,11.685,0,0,1-.089-1.294l-.169-2.453a23.514,23.514,0,0,0-3.112-10.5,15.99,15.99,0,0,0-1.864-2.319,21,21,0,0,0-4.643-3.768,14.652,14.652,0,0,0-1.825-.836l-8.655-3.247-2.459-.994a3.58,3.58,0,0,0-.982-.374,5.316,5.316,0,0,1-1.51-.439Z" transform="translate(-531.164 -603.264)" fill="#163886"/>
    <path id="Path_10462" data-name="Path 10462" d="M234.886,689.016l.109.833a4.819,4.819,0,0,1-1.557.385l-.16-.093-3.63,1.451-3.763,1.466c-1.755.683-3.58,1.269-5.292,2.05a16.8,16.8,0,0,0-8.325,8.238,27.439,27.439,0,0,0-2.338,8.549l-.165,1.954-.045,1.551a2.885,2.885,0,0,1,0,.6.848.848,0,0,1-.087.152,2.91,2.91,0,0,1-.4-.48,25.486,25.486,0,0,1,1.446-10.018,18.752,18.752,0,0,1,5.5-8.367,20.351,20.351,0,0,1,3.934-2.481Z" transform="translate(-182.945 -602.642)" fill="#163886"/>
    <path id="Path_10463" data-name="Path 10463" d="M402.779,695.832a4.819,4.819,0,0,0,1.557-.385,11.6,11.6,0,0,0,4.748,7.452,13.106,13.106,0,0,0,9.62,2.122,12.466,12.466,0,0,0,8.1-5.05,9.821,9.821,0,0,0,1.614-4.555,5.318,5.318,0,0,0,1.51.44,14.756,14.756,0,0,1-1.691,4.269,14.025,14.025,0,0,1-19.54,4.016A14.081,14.081,0,0,1,402.779,695.832Z" transform="translate(-352.287 -608.241)" fill="#2961a2"/>
    <path id="Path_10464" data-name="Path 10464" d="M417.689,678.359a7.188,7.188,0,0,0,2.586,5.06,10.082,10.082,0,0,0,7.392,2.136,9.185,9.185,0,0,0,6.265-3.241,6.921,6.921,0,0,0,1.381-2.813,4.139,4.139,0,0,1,.226-.966l3,1.248-.018.713a9.821,9.821,0,0,1-1.614,4.555,12.466,12.466,0,0,1-8.1,5.05,13.106,13.106,0,0,1-9.62-2.122,11.6,11.6,0,0,1-4.748-7.452l-.109-.833Z" transform="translate(-362.395 -593.321)" fill="#f86567"/>
    <path id="Path_10465" data-name="Path 10465" d="M441.394,596.066a2.891,2.891,0,0,1,.084-.437,15.625,15.625,0,0,0,6.049,2.851,12.743,12.743,0,0,0,8.346-1.22,27.215,27.215,0,0,0,2.684-1.7l0,2.2c.05.98.232,8.066.378,8.36a4.14,4.14,0,0,0-.226.966,6.921,6.921,0,0,1-1.381,2.813,9.185,9.185,0,0,1-6.265,3.241A10.082,10.082,0,0,1,443.667,611a7.188,7.188,0,0,1-2.586-5.06l.286-8.274Z" transform="translate(-385.788 -520.899)" fill="#f6c7b0"/>
    <path id="Path_10466" data-name="Path 10466" d="M443.392,596.066a2.9,2.9,0,0,1,.084-.437,15.625,15.625,0,0,0,6.049,2.851,12.743,12.743,0,0,0,8.346-1.22,27.207,27.207,0,0,0,2.684-1.7l0,2.2a11.764,11.764,0,0,1-2.039,2.215,9.664,9.664,0,0,1-5.949,2.264,11.194,11.194,0,0,1-7.887-3.174c-.472-.435-.848-.955-1.312-1.4Z" transform="translate(-387.785 -520.899)" fill="#f09984"/>
    <path id="Path_10467" data-name="Path 10467" d="M118.371,132.119c.135.048.145-.011.263-.09a15.328,15.328,0,0,1,2.038-1.08,40.616,40.616,0,0,1,4.007-1.6,43.6,43.6,0,0,1,18.535-2.154,42.4,42.4,0,0,1,4.764.667,47.288,47.288,0,0,1,7.01,2.131l2.224.882c.426.184,2.482,1.249,2.738,1.247a.5.5,0,0,0,.144-.047,9.571,9.571,0,0,0,3.275,6.875,9.886,9.886,0,0,0,5.348,2.35,10.049,10.049,0,0,0,2.273-.006l.029.046a15.232,15.232,0,0,0,1.13,1.321l1.712,2.2a40.863,40.863,0,0,1,6.208,11.578c.065.2.069.166.268.245l7.434-.012,2.044-.012a6.574,6.574,0,0,1,1.164.021,2.316,2.316,0,0,1,1.178.646,2.176,2.176,0,0,1,.589,1.056l.017.069a14.066,14.066,0,0,1,.07,2.865l0,5.988.014,10.27c0,1.692.1,3.456,0,5.142a1.811,1.811,0,0,1-.341.88A2.332,2.332,0,0,1,191,184.633a6.708,6.708,0,0,1-1.133.03l-1.924,0-7.611,0-.057.091c-.3.487-.466,1.151-.718,1.682l-2.117,4.1a41.655,41.655,0,0,1-7.782,9.867l-2.226,2.037c-.338.289-.719.514-1.049.813l-14.9-5.717-3-1.248c-.147-.295-.328-7.38-.378-8.36l0-2.2a27.2,27.2,0,0,1-2.684,1.7,12.743,12.743,0,0,1-8.346,1.22,15.624,15.624,0,0,1-6.049-2.851,2.893,2.893,0,0,0-.084.437l-.027,1.6-.286,8.274-3.353,1.336L112.5,203.231a4.355,4.355,0,0,0-.928-.7l-1.29-.956-3.021-2.529a32.921,32.921,0,0,1-2.413-2.459,11.182,11.182,0,0,0-1.331-1.518l-.131-.7a8.727,8.727,0,0,0-3.62-5.542,2.59,2.59,0,0,0-.346-.854l-1-2.192-.764-2.016a41.349,41.349,0,0,1-1.3-4.726l-.359-1.874c-.68-.057-1.381-.026-2.063-.029l-3.789-.008a10.6,10.6,0,0,1-2.323-.108,2.215,2.215,0,0,1-.97-.564,2.333,2.333,0,0,1-.668-1.692l-.018-14.515-.011-4.666a19.4,19.4,0,0,1,.029-2.37,2.109,2.109,0,0,1,1.8-1.763,8.3,8.3,0,0,1,1.217-.024l2.362,0h8.479a13.885,13.885,0,0,1,1.2-2.621,45.762,45.762,0,0,1,2.675-4.55c.914-1.326,1.949-2.583,2.8-3.95l1.138.226a9.619,9.619,0,0,0,7.08-1.845A9.369,9.369,0,0,0,118.371,132.119Z" transform="translate(-75.332 -111.069)" fill="#d1f1e8"/>
    <path id="Path_10468" data-name="Path 10468" d="M292.72,589.869a1.943,1.943,0,0,1,.6,0,1.294,1.294,0,0,1,.835.656,1.072,1.072,0,0,1,.046.88,1.3,1.3,0,0,1-.772.81,1.58,1.58,0,0,1-.609,0,1.33,1.33,0,0,1-.813-.676,1.122,1.122,0,0,1-.04-.885A1.228,1.228,0,0,1,292.72,589.869Z" transform="translate(-255.301 -515.901)" fill="#f86567"/>
    <path id="Path_10469" data-name="Path 10469" d="M354.077,216.853a8.344,8.344,0,0,0-1.79,1.761c.092-4.036,1.626-8.635,4.6-11.47l.635-.583a9.329,9.329,0,0,0-2.01.6,12.53,12.53,0,0,1,1.813-2.141,16.779,16.779,0,0,1,8.2-3.756l1.76-.255a17.875,17.875,0,0,0-3.309-.771,27.25,27.25,0,0,1,4.93-.921,22.425,22.425,0,0,1,6.617.541,17.116,17.116,0,0,1,4.727,1.747,8.991,8.991,0,0,1,2.783,2.339,15.341,15.341,0,0,1,1.647,3.428,19.167,19.167,0,0,0,.129-4.439,8,8,0,0,1,1.274,4.889l.069-.061a2.34,2.34,0,0,1,1.825-.628l.619.085a5.025,5.025,0,0,1-.94.782,7.742,7.742,0,0,0-1.186,1.242,6.4,6.4,0,0,1,4.09,2.74,9.676,9.676,0,0,1,1.033,4.129,34.518,34.518,0,0,1-.214,6.139c-.194,1.807-.439,3.628-.8,5.41l-.05-.016-.084-.025a3.4,3.4,0,0,0-1.679-.088c-.063-.042-.029-.026-.12-.049l-.073-.017.011-.2a5.891,5.891,0,0,0-.008-.852,7.974,7.974,0,0,0-.033-1.116c-.07-.446-.082-.923-.133-1.376a15.633,15.633,0,0,0-.673-3.165c-.344-1-.844-1.908-1.256-2.873a13.75,13.75,0,0,0-1.825-3.443,2.365,2.365,0,0,0-1.819-1.07l-.088-.007-.04-2.188a19.462,19.462,0,0,1-3.129,2.684,18.947,18.947,0,0,1-2.365,1.25,26.483,26.483,0,0,1-15.06,1.791l-3.219-.5a8.625,8.625,0,0,0-3.324-.1,5.449,5.449,0,0,0-1.111.386,1.4,1.4,0,0,1-.3.13Z" transform="translate(-308.125 -174.28)" fill="#3c2c58"/>
    <path id="Path_10470" data-name="Path 10470" d="M100.038,321.9l10.594.033c1.694,0,3.471-.116,5.157.017a1.724,1.724,0,0,1,.566.138l.111.046a2.181,2.181,0,0,1,1.167,1.082l.037.075a1.4,1.4,0,0,1,.1.536l.01,3.426,0,6.562.03,11.84a2.171,2.171,0,0,1-.131.8,2.093,2.093,0,0,1-1.128,1.124,3.807,3.807,0,0,1-1.173.078H113.29l-7.1-.009-6.573,0-3.619-.013c-.68-.057-1.381-.026-2.063-.029l-3.789-.008a10.605,10.605,0,0,1-2.323-.108,2.216,2.216,0,0,1-.97-.564,2.333,2.333,0,0,1-.668-1.692l-.018-14.514-.011-4.666a19.4,19.4,0,0,1,.029-2.37,2.109,2.109,0,0,1,1.8-1.763A8.3,8.3,0,0,1,89.2,321.9l2.362,0Z" transform="translate(-75.332 -281.533)" fill="#888def"/>
    <path id="Path_10471" data-name="Path 10471" d="M91.315,342.652l-.033-.16a14.993,14.993,0,0,1-.016-1.842l.027-4.331-.008-5.272c0-.761-.055-1.565.021-2.322a1.382,1.382,0,0,1,1.524-1.384h6.3l10.556-.014,7.01.007c1.125,0,2.33-.085,3.447.013a1.637,1.637,0,0,1,1.072.434,1.4,1.4,0,0,1,.386.707,17.515,17.515,0,0,1,.048,2.668l-.045,5.414-30.3.007Z" transform="translate(-79.806 -286.269)" fill="#a6b4ed"/>
    <path id="Path_10472" data-name="Path 10472" d="M114.9,349.369a1.774,1.774,0,0,1,.709.018,1.221,1.221,0,0,1,.74.611,1.318,1.318,0,0,1,.1,1,1.462,1.462,0,0,1-.816.918,2.258,2.258,0,0,1-.651,0,1.2,1.2,0,0,1-.8-.615,1.489,1.489,0,0,1-.093-1.178A1.322,1.322,0,0,1,114.9,349.369Z" transform="translate(-99.723 -305.549)" fill="#fbcc79"/>
    <path id="Path_10473" data-name="Path 10473" d="M152.561,349.022a1.922,1.922,0,0,1,.617.094,1.207,1.207,0,0,1,.771.7,1.306,1.306,0,0,1,0,1.115,1.566,1.566,0,0,1-.931.779,1.814,1.814,0,0,1-.711-.047,1.328,1.328,0,0,1-.773-.765,1.524,1.524,0,0,1,.062-1.131A1.443,1.443,0,0,1,152.561,349.022Z" transform="translate(-132.471 -305.269)" fill="#f09984"/>
    <path id="Path_10474" data-name="Path 10474" d="M283.323,347.9l4.29.009v2.938l-4.305-.017Z" transform="translate(-247.793 -304.29)" fill="#48b4f2"/>
    <path id="Path_10475" data-name="Path 10475" d="M230.939,347.292l4.628-.017-.035,2.957-4.6.01Z" transform="translate(-201.985 -303.741)" fill="#90e4f3"/>
    <path id="Path_10476" data-name="Path 10476" d="M91.655,407.335l0-6.075,30.3-.007-.015,9.737,0,2.826a10.807,10.807,0,0,1-.026,1.479,1.227,1.227,0,0,1-.41.766,1.113,1.113,0,0,1-.594.264c-.557.048-1.152.015-1.712.016l-3.3.01-10.975-.007-8.077-.007H94.335a13.079,13.079,0,0,1-1.4-.017,1.559,1.559,0,0,1-1-.652c-.451-.586-.258-2.162-.259-2.882l-.005-3.57C91.667,408.6,91.7,407.953,91.655,407.335Z" transform="translate(-80.146 -350.952)" fill="#fefefe"/>
    <path id="Path_10477" data-name="Path 10477" d="M117.305,433.959l.232-.012,5.382,0,1.929.005a8.106,8.106,0,0,1,1.04.019.7.7,0,0,1,.516.239c.152.168.125.317.124.525a1.216,1.216,0,0,1-.39.462l-5.5.006h-1.992a8.312,8.312,0,0,1-1.129-.007.8.8,0,0,1-.407-.187.492.492,0,0,1-.163-.44A.828.828,0,0,1,117.305,433.959Z" transform="translate(-102.284 -379.547)" fill="#d8d2e5"/>
    <path id="Path_10478" data-name="Path 10478" d="M117.4,464.636l22.138.008a.9.9,0,0,1,.828.319,1.4,1.4,0,0,1,0,.5.719.719,0,0,1-.407.409l-22.384.055a.66.66,0,0,1-.508-.225.7.7,0,0,1-.109-.6A.883.883,0,0,1,117.4,464.636Z" transform="translate(-102.272 -406.39)" fill="#d8d2e5"/>
    <path id="Path_10479" data-name="Path 10479" d="M707.861,363.664l7.434-.012,2.044-.012a6.575,6.575,0,0,1,1.164.021,2.316,2.316,0,0,1,1.178.646,2.176,2.176,0,0,1,.589,1.056l.017.069a14.065,14.065,0,0,1,.07,2.865l0,5.988.014,10.27c0,1.692.1,3.456,0,5.142a1.811,1.811,0,0,1-.341.88,2.332,2.332,0,0,1-1.506,1.026,6.708,6.708,0,0,1-1.133.03l-1.924,0-7.611,0H693.124a13.7,13.7,0,0,1-1.769-.031,2.221,2.221,0,0,1-1.3-.615,2.458,2.458,0,0,1-.761-1.833l0-16.082v-5.137a17.07,17.07,0,0,1,.024-2.282,2.445,2.445,0,0,1,.711-1.37,2.25,2.25,0,0,1,1.206-.6,12.955,12.955,0,0,1,1.86-.035l3.506-.005Z" transform="translate(-602.857 -318.041)" fill="#2961a2"/>
    <path id="Path_10480" data-name="Path 10480" d="M695.123,367.949l4.437-.017,8.6,0,8.9.012,4.594.007a1.863,1.863,0,0,1,.986.253,1.883,1.883,0,0,1,.775,1.2,14.9,14.9,0,0,1,.036,2.482l0,4.887.009,11.07c0,1.754.071,3.55-.028,5.3a1.74,1.74,0,0,1-.335,1.071,1.591,1.591,0,0,1-1.125.627l-17.686.009h-6.1l-3.155-.007a1.156,1.156,0,0,1-.453-.1,1.834,1.834,0,0,1-1.016-1.114l-.022-.079-.042-.156a10.828,10.828,0,0,1-.042-2.013l-.012-4.554V375.808l.025-5.751a2.362,2.362,0,0,1,.279-1.244A2.076,2.076,0,0,1,695.123,367.949Z" transform="translate(-606.502 -321.804)" fill="#fefefe"/>
    <path id="Path_10481" data-name="Path 10481" d="M709.814,474l24.735-.013a2.5,2.5,0,0,1-.056.848l-.177.023-6.785-.052-10.8,0-4.515.027a16.131,16.131,0,0,1-2.362-.023.636.636,0,0,1-.307-.354A.7.7,0,0,1,709.814,474Z" transform="translate(-620.601 -414.568)" fill="#d8d2e5"/>
    <path id="Path_10482" data-name="Path 10482" d="M796.362,505.856a3.183,3.183,0,0,1,1.532.149,3.042,3.042,0,0,1,1.675,1.644,2.752,2.752,0,0,1-.084,2.11,3.1,3.1,0,0,1-1.963,1.647,2.916,2.916,0,0,1-3.3-2.011,3,3,0,0,1,.32-2.308A2.776,2.776,0,0,1,796.362,505.856Z" transform="translate(-694.568 -442.417)" fill="#f86567"/>
    <path id="Path_10483" data-name="Path 10483" d="M795.6,401.55a3.051,3.051,0,0,1,1.757.372,2.933,2.933,0,0,1,1.359,1.962,2.837,2.837,0,0,1-2.52,3.278,3.109,3.109,0,0,1-1.752-.4,2.87,2.87,0,0,1-1.291-1.875,2.624,2.624,0,0,1,.372-1.942A3.057,3.057,0,0,1,795.6,401.55Z" transform="translate(-693.677 -351.205)" fill="#fbcc79"/>
    <path id="Path_10484" data-name="Path 10484" d="M866.567,504.921a3.281,3.281,0,0,1,1.843.307,3.051,3.051,0,0,1,1.558,1.736,2.88,2.88,0,0,1-.295,2.113,3.116,3.116,0,0,1-1.984,1.464,2.956,2.956,0,0,1-1.973-.191,2.841,2.841,0,0,1-1.456-1.693,2.855,2.855,0,0,1,2.306-3.737Z" transform="translate(-755.806 -441.604)" fill="#fbcc79"/>
    <path id="Path_10485" data-name="Path 10485" d="M724.073,401.66a3.465,3.465,0,0,1,1.723.482,2.855,2.855,0,0,1,1.277,1.777,3.1,3.1,0,0,1-.448,2.372,3,3,0,0,1-2.059,1.249,3.147,3.147,0,0,1-2.154-.594,3.025,3.025,0,0,1-.572-4.1A3.044,3.044,0,0,1,724.073,401.66Z" transform="translate(-630.868 -351.308)" fill="#48b4f2"/>
    <path id="Path_10486" data-name="Path 10486" d="M722.66,503.571a3.263,3.263,0,0,1,2.072.558,3.027,3.027,0,0,1,1.174,1.877,3.323,3.323,0,0,1-.614,2.531,2.915,2.915,0,0,1-2.145,1.212,3.347,3.347,0,0,1-2.153-.616,3.2,3.2,0,0,1-1.227-2.084,3.008,3.008,0,0,1,.627-2.285A3.352,3.352,0,0,1,722.66,503.571Z" transform="translate(-629.514 -440.431)" fill="#86e1b1"/>
    <path id="Path_10487" data-name="Path 10487" d="M349.694,300l.123-.033a1.405,1.405,0,0,0,.3-.13,5.445,5.445,0,0,1,1.111-.386,8.625,8.625,0,0,1,3.324.1l3.219.5a26.483,26.483,0,0,0,15.06-1.791,18.942,18.942,0,0,0,2.365-1.25,19.463,19.463,0,0,0,3.129-2.684l.04,2.188.088.007a2.365,2.365,0,0,1,1.819,1.07,13.748,13.748,0,0,1,1.825,3.443c.412.965.912,1.876,1.256,2.873a15.632,15.632,0,0,1,.673,3.165c.051.453.063.93.133,1.376a7.974,7.974,0,0,1,.033,1.116,5.9,5.9,0,0,1,.008.852l-.011.2.073.017c.091.023.058.007.12.049a3.4,3.4,0,0,1,1.679.088l.084.025.05.016a4.12,4.12,0,0,1,2.14,2.493l.168.7.015.078a4.961,4.961,0,0,1-.067,1.8,5.434,5.434,0,0,1-2.192,3.542,3.944,3.944,0,0,1-2.317.637c-.275,0-.556-.062-.827-.049a17.8,17.8,0,0,1-3.769,9.315,19.883,19.883,0,0,1-2.837,2.763,27.2,27.2,0,0,1-2.684,1.7,12.743,12.743,0,0,1-8.346,1.22,15.624,15.624,0,0,1-6.049-2.851,2.894,2.894,0,0,0-.084.437c0-.156.038-.456-.063-.585a14.592,14.592,0,0,0-1.211-1.106,16.345,16.345,0,0,1-2.469-3.136,19.024,19.024,0,0,1-2.479-7.774,5.618,5.618,0,0,1-1.494.078l-.1-.015a4.4,4.4,0,0,1-1.927-.77,5.43,5.43,0,0,1-2.2-3.536l-.042-.208a4.868,4.868,0,0,1,.83-3.794,3.054,3.054,0,0,1,2.074-1.395,20.669,20.669,0,0,1-1.042-8.411A15.549,15.549,0,0,1,349.694,300Z" transform="translate(-303.742 -257.426)" fill="#f6c7b0"/>
    <path id="Path_10488" data-name="Path 10488" d="M632.942,436.524l.257-.061.073.056c.359.25,1.005.1,1.426.154a2.816,2.816,0,0,1,.644.211l.089.035a2.53,2.53,0,0,1,1.4,1.417l.03.074.03.072a2.754,2.754,0,0,1,.043,1.751,2.409,2.409,0,0,1-.251.545l-.094.032c-.08-.146-.072-.069-.034-.216a2.721,2.721,0,0,0-.013-1.5l-.029-.091a2.5,2.5,0,0,0-1.161-1.476l-.079-.037-.069-.035a2.186,2.186,0,0,0-.777-.211,3.626,3.626,0,0,1,.882,1.78,2.979,2.979,0,0,1-.066,1.221l-.022.1a2.7,2.7,0,0,1-.486,1.1l-.053.071a1.874,1.874,0,0,1-1.123.738.577.577,0,0,1-.4-.05c.036-.323.676-.792.868-1.16l.048-.09a3.471,3.471,0,0,0,.216-2.386l-.025-.089a4.188,4.188,0,0,0-.829-1.365A2.982,2.982,0,0,1,632.942,436.524Z" transform="translate(-553.597 -381.749)" fill="#f09984"/>
    <path id="Path_10489" data-name="Path 10489" d="M363.682,434.509c.592-.04.909.259,1.434.354.132.024.054-.011.183.086a4.046,4.046,0,0,0-1.033,2.783,3.424,3.424,0,0,0,1.158,2.493l.059.053v.075a1.632,1.632,0,0,1-.547.148,2.429,2.429,0,0,1-1.076-.349l-.1-.059a3.249,3.249,0,0,1-1.031-1.02l-.053-.087a5.051,5.051,0,0,1-.532-1.107,2.894,2.894,0,0,1,.089-2.372l.048-.1a1.869,1.869,0,0,1,1.013-.793Z" transform="translate(-316.563 -380.036)" fill="#f09984"/>
    <path id="Path_10490" data-name="Path 10490" d="M362.489,300l.123-.033a1.4,1.4,0,0,0,.3-.13,5.445,5.445,0,0,1,1.111-.386,8.625,8.625,0,0,1,3.324.1l3.219.5a26.483,26.483,0,0,0,15.06-1.791,18.945,18.945,0,0,0,2.365-1.25,19.462,19.462,0,0,0,3.129-2.684l.04,2.188.088.007a2.365,2.365,0,0,1,1.819,1.07,13.749,13.749,0,0,1,1.825,3.443c.412.965.912,1.876,1.256,2.873a15.632,15.632,0,0,1,.673,3.165c.051.453.063.93.133,1.376a7.979,7.979,0,0,1,.033,1.116,5.891,5.891,0,0,1,.008.852l-.011.2.073.017c.091.023.058.007.12.049a2.163,2.163,0,0,0-1.04,1.465l-.257.061-.337-.02c-.159-.1-.109-.088-.116-.261l-.2-3.453c-.141-2.6-.275-5.641-1.769-7.878a4.466,4.466,0,0,0-3.643-2.255c-1.635.039-2.955,1.238-4.341,1.965-4.552,2.387-9.74,2.278-14.6,1-1.348-.355-2.656-.959-4.02-1.233a31.366,31.366,0,0,0-.655,6.286l-.116,5.691-.6.038c-.082-.1-.072-.065-.1-.168a2.262,2.262,0,0,0-.477-.967,2.4,2.4,0,0,0-1.845-.595,20.669,20.669,0,0,1-1.042-8.411A15.549,15.549,0,0,1,362.489,300Z" transform="translate(-316.536 -257.426)" fill="#231544"/>
  </g>
</svg>
