<svg xmlns="http://www.w3.org/2000/svg" width="14.672" height="14" viewBox="0 0 14.672 14">
  <g id="ai_star" transform="translate(-5.866 -4.535)">
    <path id="Path_10292" data-name="Path 10292" d="M12.177,6.719a.3.3,0,0,1,.551,0,12.2,12.2,0,0,0,1.89,3.568,12.146,12.146,0,0,0,3.419,1.893.3.3,0,0,1,0,.545,12.147,12.147,0,0,0-3.419,1.893,12.2,12.2,0,0,0-1.89,3.568.3.3,0,0,1-.551,0,12.2,12.2,0,0,0-1.89-3.568,12.2,12.2,0,0,0-3.568-1.89.3.3,0,0,1,0-.551,12.2,12.2,0,0,0,3.568-1.89A12.2,12.2,0,0,0,12.177,6.719Z" transform="translate(0.055 0.166)" fill="#ffce00"/>
    <path id="Path_10293" data-name="Path 10293" d="M16.917,4.715a.319.319,0,0,1,.575,0,4.946,4.946,0,0,0,.8,1.407,5,5,0,0,0,1.358.8.317.317,0,0,1,0,.567,5,5,0,0,0-1.358.8,4.946,4.946,0,0,0-.8,1.407.319.319,0,0,1-.575,0,4.946,4.946,0,0,0-.8-1.407,4.947,4.947,0,0,0-1.407-.8.319.319,0,0,1,0-.575,4.948,4.948,0,0,0,1.407-.8A4.946,4.946,0,0,0,16.917,4.715Z" transform="translate(0.718)" fill="#ffce00"/>
    <path id="Path_10294" data-name="Path 10294" d="M7.155,6.043a.343.343,0,0,1,.6,0,2.6,2.6,0,0,0,.422.69,2.674,2.674,0,0,0,.675.427.339.339,0,0,1,0,.59,2.674,2.674,0,0,0-.675.427,2.6,2.6,0,0,0-.422.69.343.343,0,0,1-.6,0,2.6,2.6,0,0,0-.422-.69,2.6,2.6,0,0,0-.69-.422.343.343,0,0,1,0-.6,2.6,2.6,0,0,0,.69-.422A2.6,2.6,0,0,0,7.155,6.043Z" transform="translate(0 0.11)" fill="#ffce00"/>
  </g>
</svg>
