<svg xmlns="http://www.w3.org/2000/svg" width="58.183" height="49.617" viewBox="0 0 58.183 49.617">
  <g id="angel_ally" transform="translate(-6.253 -12.691)">
    <path id="Path_10498" data-name="Path 10498" d="M39.2,28.676a3.9,3.9,0,0,0,3.9,3.9h0a3.893,3.893,0,0,0,3.9-3.9,1.038,1.038,0,1,0-2.075,0A1.822,1.822,0,0,1,43.1,30.5h0a1.822,1.822,0,0,1-1.823-1.821,1.039,1.039,0,0,0-2.078,0Z" transform="translate(-11.038 -5.007)" fill="#333" fill-rule="evenodd"/>
    <path id="Path_10499" data-name="Path 10499" d="M68.566,15.283a1.038,1.038,0,0,0-1.795,0L64.3,19.527l-4.8,1.039a1.039,1.039,0,0,0-.553,1.707l3.273,3.662-.5,4.886a1.043,1.043,0,0,0,.423.946,1.031,1.031,0,0,0,1.029.109l4.5-1.979,4.494,1.979a1.031,1.031,0,0,0,1.029-.109,1.043,1.043,0,0,0,.423-.946l-.5-4.886,3.273-3.662a1.039,1.039,0,0,0-.553-1.707l-4.8-1.039-2.473-4.244Zm-.9,2.587,1.8,3.1a1.044,1.044,0,0,0,.678.494l3.5.758-2.387,2.673a1.032,1.032,0,0,0-.26.8l.361,3.566L68.088,27.81a1.027,1.027,0,0,0-.839,0l-3.281,1.444.361-3.566a1.032,1.032,0,0,0-.26-.8l-2.387-2.673,3.5-.758a1.044,1.044,0,0,0,.678-.494Z" transform="translate(-17.566 -0.695)" fill="#333" fill-rule="evenodd"/>
    <path id="Path_10500" data-name="Path 10500" d="M26.758,28.918H18.9V24.206a4.752,4.752,0,0,0-4.753-4.753h-.005a4.753,4.753,0,0,0-4.756,4.753v7.681a7.219,7.219,0,0,0,7.221,7.221h4.951v9.075l-10.19-5.3a3.344,3.344,0,0,0-4.159.883c-.075.094-.151.19-.226.286a3.341,3.341,0,0,0,.81,4.9L27.473,61.566a4.708,4.708,0,0,0,4,.509l19.582-6.426H63.4a1.039,1.039,0,0,0,1.039-1.039V44.791A1.039,1.039,0,0,0,63.4,43.752H52.734A23.928,23.928,0,0,0,46.622,41.2v-.312a11.979,11.979,0,0,0-9.538-11.728c.171-.143.335-.294.5-.452A7.81,7.81,0,0,0,39.863,23.2V20.486a7.8,7.8,0,0,0-7.8-7.8h-.008a7.8,7.8,0,0,0-7.8,7.8V23.2a7.8,7.8,0,0,0,2.283,5.514c.07.07.14.138.213.205ZM23.615,51.594,10.41,44.727a1.269,1.269,0,0,0-1.577.332l-.226.286A1.263,1.263,0,0,0,8.916,47.2L28.6,59.816a2.62,2.62,0,0,0,2.229.286l19.741-6.478a1.061,1.061,0,0,1,.325-.052H62.358V45.831h-9.9a1.022,1.022,0,0,1-.522-.14c-4.418-2.564-8.151-3.452-11.2-2.387a9.526,9.526,0,0,0-4.966,4.548,1.047,1.047,0,0,1-.9.52H27.107a1.716,1.716,0,0,0-1.722,1.72V50.1a1.72,1.72,0,0,0,1.722,1.72H37.413a1.039,1.039,0,1,1,0,2.078H27.107a3.8,3.8,0,0,1-2.688-1.114,3.85,3.85,0,0,1-.8-1.187ZM34.65,31H17.862a1.04,1.04,0,0,1-1.039-1.039V24.206a2.675,2.675,0,0,0-2.675-2.675h-.005a2.679,2.679,0,0,0-2.678,2.675v7.681a5.144,5.144,0,0,0,5.143,5.143H22.6a1.039,1.039,0,0,1,1.039,1.039V48.545a3.788,3.788,0,0,1,3.47-2.252h7.18a11.229,11.229,0,0,1,5.769-4.948,10.376,10.376,0,0,1,4.488-.494A9.893,9.893,0,0,0,34.65,31Zm-2.52-2.078h-.148A5.716,5.716,0,0,1,26.34,23.2V20.487a5.716,5.716,0,0,1,5.717-5.717h.008a5.72,5.72,0,0,1,5.72,5.717V23.2a5.721,5.721,0,0,1-5.655,5.72Z" transform="translate(0)" fill="#333" fill-rule="evenodd"/>
  </g>
</svg>
