<svg xmlns="http://www.w3.org/2000/svg" width="12" height="14.76" viewBox="0 0 12 14.76">
  <path id="Apple_Logo" data-name="Apple Logo" d="M18.464,17.782a6.314,6.314,0,0,1,.714.067,3.369,3.369,0,0,1,1.1.381,3.017,3.017,0,0,1,1.1,1.018q-.028.029-.276.209a3.261,3.261,0,0,0-.552.514,3.09,3.09,0,0,0-.533.856,3.007,3.007,0,0,0-.228,1.228,3.083,3.083,0,0,0,.285,1.389,3.314,3.314,0,0,0,.676.923,4.019,4.019,0,0,0,.685.5l.324.171q-.01.038-.247.676a6.425,6.425,0,0,1-.761,1.418,10.282,10.282,0,0,1-1.009,1.247,1.7,1.7,0,0,1-1.285.571,2.063,2.063,0,0,1-.828-.143q-.324-.152-.666-.3a2.313,2.313,0,0,0-.923-.152,2.549,2.549,0,0,0-.942.152q-.371.152-.714.3a1.886,1.886,0,0,1-.79.152,1.63,1.63,0,0,1-1.218-.552A12.524,12.524,0,0,1,11.308,27.1a9.106,9.106,0,0,1-1.094-2.227,8.272,8.272,0,0,1-.447-2.665,4.879,4.879,0,0,1,.542-2.408A3.767,3.767,0,0,1,11.7,18.324a3.443,3.443,0,0,1,1.77-.5,2.564,2.564,0,0,1,.914.162q.428.152.8.314a1.778,1.778,0,0,0,.685.162,1.745,1.745,0,0,0,.685-.171q.39-.171.876-.333A3.1,3.1,0,0,1,18.464,17.782Zm-.523-1.209a3.138,3.138,0,0,1-.933.752,2.3,2.3,0,0,1-1.066.3,1.014,1.014,0,0,1-.2-.019.63.63,0,0,1-.019-.1,1.3,1.3,0,0,1-.01-.162,2.592,2.592,0,0,1,.248-1.1,3.546,3.546,0,0,1,.561-.895,3.232,3.232,0,0,1,1.009-.79,2.749,2.749,0,0,1,1.161-.333,1.331,1.331,0,0,1,.029.3,2.949,2.949,0,0,1-.219,1.113A3.727,3.727,0,0,1,17.941,16.573Z" transform="translate(-9.767 -14.213)"/>
</svg>
