<svg xmlns="http://www.w3.org/2000/svg" width="14.214" height="24.867" viewBox="0 0 14.214 24.867">
  <g id="attachment_icon" transform="translate(-11 -2.8)" fill="#333">
    <path d="M 18.10698699951172 27.56713485717773 C 16.1767578125 27.56712532043457 14.50881671905518 26.89286422729492 13.14948654174805 25.56309509277344 C 11.78954696655273 24.23271369934082 11.09999656677246 22.58886528015137 11.09999656677246 20.67720413208008 L 11.09999656677246 7.916844367980957 C 11.09999656677246 6.529954433441162 11.59234714508057 5.334394454956055 12.56336688995361 4.363364219665527 C 13.5343770980835 3.392354488372803 14.72993659973145 2.900004386901855 16.11683654785156 2.900004386901855 C 17.50373649597168 2.900004386901855 18.69929695129395 3.392354488372803 19.67030715942383 4.363364219665527 C 20.64132690429688 5.334384441375732 21.13367652893066 6.539794445037842 21.13367652893066 7.946104526519775 L 21.13367652893066 19.5650634765625 C 21.13367652893066 20.40819358825684 20.83826637268066 21.131103515625 20.25564765930176 21.71372413635254 C 19.67302703857422 22.29634475708008 18.95011711120605 22.59175491333008 18.10698699951172 22.59175491333008 C 17.2427864074707 22.59175491333008 16.51397705078125 22.275634765625 15.94078731536865 21.65216445922852 C 15.36980724334717 21.03109359741211 15.08029747009277 20.27966499328613 15.08029747009277 19.41873359680176 L 15.08029747009277 7.858304500579834 L 15.08029747009277 7.758304595947266 L 15.18029689788818 7.758304595947266 L 16.73143768310547 7.758304595947266 L 16.83143615722656 7.758304595947266 L 16.83143615722656 7.858304500579834 L 16.83143615722656 19.50653457641602 C 16.83143615722656 19.87457466125488 16.9522762298584 20.18775367736816 17.20087623596191 20.46397399902344 C 17.44668769836426 20.73710441589355 17.74307632446289 20.86987495422363 18.10698699951172 20.86987495422363 C 18.47157669067383 20.86987495422363 18.76833724975586 20.74148368835449 19.01423645019531 20.47736358642578 C 19.2620677947998 20.21117401123047 19.38253784179688 19.91276359558105 19.38253784179688 19.5650634765625 L 19.38253784179688 7.916844367980957 C 19.38253784179688 7.012454509735107 19.06269645690918 6.238834381103516 18.43190765380859 5.617464542388916 C 17.80071640014648 4.995684146881104 17.02180671691895 4.680414199829102 16.11683654785156 4.680414199829102 C 15.2118673324585 4.680414199829102 14.43295669555664 4.995684146881104 13.80176734924316 5.617464542388916 C 13.17097663879395 6.238824367523193 12.85114669799805 7.012454509735107 12.85114669799805 7.916844367980957 L 12.85114669799805 20.73574447631836 C 12.85114669799805 22.16383361816406 13.36751747131348 23.38017463684082 14.38592720031738 24.35099411010742 C 15.40567684173584 25.32309532165527 16.65762710571289 25.81598472595215 18.10698699951172 25.81598472595215 C 19.57539749145508 25.81598472595215 20.8320369720459 25.31838417053223 21.84199714660645 24.33701515197754 C 22.85114669799805 23.35642433166504 23.36282730102539 22.12508392333984 23.36282730102539 20.67720413208008 L 23.36282730102539 7.858304500579834 L 23.36282730102539 7.758304595947266 L 23.46282768249512 7.758304595947266 L 25.01397705078125 7.758304595947266 L 25.11397743225098 7.758304595947266 L 25.11397743225098 7.858304500579834 L 25.11397743225098 20.6479434967041 C 25.11397743225098 22.55946350097656 24.42451667785645 24.20814514160156 23.06474685668945 25.54820442199707 C 21.70537757873535 26.88787460327148 20.0373477935791 27.56713485717773 18.10698699951172 27.56713485717773 Z" stroke="none"/>
    <path d="M 18.10698699951172 27.46713447570801 C 20.01909637451172 27.46713447570801 21.64827728271484 26.80374526977539 22.99455642700195 25.47698402404785 C 24.3408374786377 24.15021514892578 25.01397705078125 22.54053497314453 25.01397705078125 20.6479434967041 L 25.01397705078125 7.858304500579834 L 23.46282768249512 7.858304500579834 L 23.46282768249512 20.67720413208008 C 23.46282768249512 22.16006469726562 22.94577789306641 23.40390396118164 21.91168785095215 24.40873527526855 C 20.87758636474609 25.41356468200684 19.6093578338623 25.91598510742188 18.10698699951172 25.91598510742188 C 16.62412643432617 25.91598510742188 15.36077690124512 25.41844367980957 14.31692695617676 24.42337417602539 C 13.27306747436523 23.42829513549805 12.75114727020264 22.1990852355957 12.75114727020264 20.73574447631836 L 12.75114727020264 7.916844367980957 C 12.75114727020264 6.980294227600098 13.07795715332031 6.190094470977783 13.73158740997314 5.546224594116211 C 14.38521671295166 4.902344226837158 15.18029689788818 4.580414295196533 16.11683654785156 4.580414295196533 C 17.05337715148926 4.580414295196533 17.84845733642578 4.902344226837158 18.5020866394043 5.546224594116211 C 19.15571784973145 6.190094470977783 19.48253631591797 6.980294227600098 19.48253631591797 7.916844367980957 L 19.48253631591797 19.5650634765625 C 19.48253631591797 19.9357852935791 19.35082626342773 20.26259422302246 19.08742713928223 20.54550361633301 C 18.82402610778809 20.82842445373535 18.49720764160156 20.96987342834473 18.10698699951172 20.96987342834473 C 17.71675682067871 20.96987342834473 17.38994789123535 20.82354354858398 17.12654685974121 20.53087425231934 C 16.8631477355957 20.23820495605469 16.73143768310547 19.89675521850586 16.73143768310547 19.50653457641602 L 16.73143768310547 7.858304500579834 L 15.18029689788818 7.858304500579834 L 15.18029689788818 19.41873359680176 C 15.18029689788818 20.25771522521973 15.45833683013916 20.97963523864746 16.01440620422363 21.5844841003418 C 16.57047653198242 22.18933486938477 17.26799774169922 22.49175453186035 18.10698699951172 22.49175453186035 C 18.92646789550781 22.49175453186035 19.61910629272461 22.2088451385498 20.1849365234375 21.64301490783691 C 20.75076675415039 21.07718467712402 21.03367614746094 20.38453483581543 21.03367614746094 19.5650634765625 L 21.03367614746094 7.946104526519775 C 21.03367614746094 6.56080436706543 20.55565643310547 5.390134334564209 19.5995979309082 4.434074401855469 C 18.64354705810547 3.478024482727051 17.48262786865234 3.000004291534424 16.11683654785156 3.000004291534424 C 14.75104713439941 3.000004291534424 13.59012699127197 3.478024482727051 12.63407707214355 4.434074401855469 C 11.67802715301514 5.390134334564209 11.19999694824219 6.55105447769165 11.19999694824219 7.916844367980957 L 11.19999694824219 20.67720413208008 C 11.19999694824219 22.56980514526367 11.87313747406006 24.17459487915039 13.21941661834717 25.49161529541016 C 14.56569671630859 26.80862426757812 16.19487762451172 27.46712493896484 18.10698699951172 27.46712493896484 L 18.10698699951172 27.46713447570801 M 18.10698699951172 27.66713523864746 C 16.14969635009766 27.66712379455566 14.45822715759277 26.98327445983887 13.07955741882324 25.63458442687988 C 11.69966697692871 24.2846736907959 10.99999713897705 22.61677360534668 10.99999713897705 20.67720413208008 L 10.99999713897705 7.916844367980957 C 10.99999713897705 6.502474308013916 11.502197265625 5.283114433288574 12.49265670776367 4.292654514312744 C 13.48310661315918 3.302204370498657 14.70245742797852 2.800004482269287 16.11683654785156 2.800004482269287 C 17.53121757507324 2.800004482269287 18.75056648254395 3.302204370498657 19.74101638793945 4.292654514312744 C 20.73147773742676 5.283104419708252 21.23367691040039 6.512304306030273 21.23367691040039 7.946104526519775 L 21.23367691040039 19.5650634765625 C 21.23367691040039 20.4356746673584 20.92840766906738 21.1823844909668 20.32635688781738 21.7844352722168 C 19.72430610656738 22.38648414611816 18.97759628295898 22.6917552947998 18.10698699951172 22.6917552947998 C 17.21365737915039 22.6917552947998 16.4600772857666 22.36475372314453 15.86717700958252 21.71984481811523 C 15.2786865234375 21.07973480224609 14.98029708862305 20.3055248260498 14.98029708862305 19.41873359680176 L 14.98029708862305 7.658304214477539 L 16.93143653869629 7.658304214477539 L 16.93143653869629 19.50653457641602 C 16.93143653869629 19.8487548828125 17.04388618469238 20.14005470275879 17.27520751953125 20.39708518981934 C 17.50096702575684 20.64793395996094 17.77304649353027 20.76987457275391 18.10698699951172 20.76987457275391 C 18.44228744506836 20.76987457275391 18.71510696411133 20.65190505981445 18.94104766845703 20.40922355651855 C 19.17083740234375 20.16241455078125 19.28253746032715 19.88628387451172 19.28253746032715 19.5650634765625 L 19.28253746032715 7.916844367980957 C 19.28253746032715 7.027894496917725 18.98133659362793 6.299064159393311 18.36173629760742 5.688704490661621 C 17.74128723144531 5.077514171600342 17.00697708129883 4.780414581298828 16.11683654785156 4.780414581298828 C 15.22669696807861 4.780414581298828 14.49238681793213 5.077514171600342 13.8719367980957 5.688704490661621 C 13.25233745574951 6.299054145812988 12.95114707946777 7.027884483337402 12.95114707946777 7.916844367980957 L 12.95114707946777 20.73574447631836 C 12.95114707946777 22.13541412353516 13.45708656311035 23.3274040222168 14.45492744445801 24.27861404418945 C 15.45545673370361 25.23238372802734 16.6841869354248 25.71598434448242 18.10698699951172 25.71598434448242 C 19.54847717285156 25.71598434448242 20.78166770935059 25.2279052734375 21.77230644226074 24.26529502868652 C 22.7613468170166 23.30424499511719 23.26282691955566 22.0970344543457 23.26282691955566 20.67720413208008 L 23.26282691955566 7.658304214477539 L 25.2139778137207 7.658304214477539 L 25.2139778137207 20.6479434967041 C 25.2139778137207 22.58722496032715 24.51448631286621 24.25988388061523 23.13494682312012 25.61943435668945 C 21.75619697570801 26.97818374633789 20.06454658508301 27.66713523864746 18.10698699951172 27.66713523864746 Z" stroke="none" fill="#333"/>
  </g>
</svg>
