<svg xmlns="http://www.w3.org/2000/svg" width="32" height="32" viewBox="0 0 32 32">
  <g id="my_events_footer" transform="translate(-7)">
    <rect id="Rectangle_4064" data-name="Rectangle 4064" width="32" height="32" transform="translate(7)" fill="#f79622" opacity="0"/>
    <g id="Group_1911" data-name="Group 1911" transform="translate(-13.777 -36.58)">
      <path id="Path_9954" data-name="Path 9954" d="M60.779,48.3a4.361,4.361,0,1,0-4.361-4.361A4.366,4.366,0,0,0,60.779,48.3Zm0-7.115a2.753,2.753,0,1,1-2.753,2.754A2.757,2.757,0,0,1,60.779,41.188Z" transform="translate(-16.692)" fill="#bababa"/>
      <path id="Path_9955" data-name="Path 9955" d="M46.3,59.965H42.1a3.916,3.916,0,0,0-3.6,2.405A7.45,7.45,0,0,1,37.157,64.4a.22.22,0,0,1-.169.08h0a.216.216,0,0,1-.169-.08,7.4,7.4,0,0,1-1.343-2.021,3.92,3.92,0,0,0-3.6-2.41H27.652a3.879,3.879,0,0,0-3.875,3.874v4.724a1.3,1.3,0,0,0,1.3,1.3h1.26l.193,5.227a1.218,1.218,0,0,0,1.222,1.178h4.106a1.217,1.217,0,0,0,1.22-1.176l.221-6.011V67.923l1.58,1.774a2.672,2.672,0,0,0,2.117.949,2.842,2.842,0,0,0,2.114-.945l1.623-1.814.2,7.225a1.189,1.189,0,0,0,1.193,1.154h4.1a1.239,1.239,0,0,0,1.227-1.183l.193-5.221h1.216a1.205,1.205,0,0,0,1.2-1.2V63.729A3.767,3.767,0,0,0,46.3,59.965Zm2.155,8.288H47.27a1.217,1.217,0,0,0-1.221,1.177l-.194,5.228H42.521l-.182-5.58v-2.7a1.031,1.031,0,0,0-1.8-.687l-2.631,2.941c-.244.441-.917.409-.917.409a1.217,1.217,0,0,1-.916-.411L33.46,65.689a1.015,1.015,0,0,0-1.772.675v2.685l-.206,5.609H28.12l-.193-5.215a1.247,1.247,0,0,0-1.234-1.189H25.384V63.84a2.269,2.269,0,0,1,2.267-2.266h4.227A2.346,2.346,0,0,1,34,63.006,8.984,8.984,0,0,0,35.6,65.45a1.831,1.831,0,0,0,1.384.634h0a1.831,1.831,0,0,0,1.386-.639A8.974,8.974,0,0,0,39.977,63a2.343,2.343,0,0,1,2.12-1.426h1.371V64.1a.8.8,0,0,0,1.608,0v-2.53H46.3a2.158,2.158,0,0,1,2.155,2.155v4.526Z" transform="translate(0 -10.425)" fill="#bababa"/>
      <path id="Path_9956" data-name="Path 9956" d="M27.358,43.942a4.361,4.361,0,1,0,4.361-4.362A4.366,4.366,0,0,0,27.358,43.942Zm7.115,0a2.753,2.753,0,1,1-2.753-2.754A2.756,2.756,0,0,1,34.473,43.942Z" transform="translate(-1.831)" fill="#bababa"/>
    </g>
  </g>
</svg>
