<svg xmlns="http://www.w3.org/2000/svg" width="32" height="32" viewBox="0 0 32 32">
  <g id="search_footer" transform="translate(-7)">
    <rect id="Rectangle_1" data-name="Rectangle 1" width="32" height="32" transform="translate(7)" fill="#f79622" opacity="0"/>
    <g id="search_icon" transform="translate(11 5)">
      <path id="search_icon-2" data-name="search_icon" d="M26.387,27.95l-5.243-5.243a8.08,8.08,0,0,1-2.567,1.485,9.074,9.074,0,0,1-3.117.532,9.13,9.13,0,0,1-6.71-2.75A9.044,9.044,0,0,1,6,15.337,9.044,9.044,0,0,1,8.75,8.7a9.086,9.086,0,0,1,6.673-2.75A8.983,8.983,0,0,1,22.042,8.7a9.074,9.074,0,0,1,2.732,6.637,9.146,9.146,0,0,1-.513,3.043,9.307,9.307,0,0,1-1.54,2.75L28,26.337ZM15.423,22.523a6.862,6.862,0,0,0,5.06-2.108,6.953,6.953,0,0,0,2.09-5.078,6.953,6.953,0,0,0-2.09-5.078,6.862,6.862,0,0,0-5.06-2.108,6.965,6.965,0,0,0-5.115,2.108A6.922,6.922,0,0,0,8.2,15.337a6.922,6.922,0,0,0,2.108,5.078,6.965,6.965,0,0,0,5.115,2.108Z" transform="translate(-6 -5.95)" fill="#bababa"/>
    </g>
  </g>
</svg>
