<svg xmlns="http://www.w3.org/2000/svg" width="30" height="30" viewBox="0 0 30 30">
  <g id="briefcase_icon" transform="translate(-3 -3)">
    <rect id="Rectangle_68" data-name="Rectangle 68" width="30" height="30" rx="5" transform="translate(3 3)" fill="#fff"/>
    <g id="briefcase_icon-2" data-name="briefcase_icon" transform="translate(0.395 1.256)">
      <path id="Path_108" data-name="Path 108" d="M18.25,6.1H16V4.75A2.253,2.253,0,0,0,13.75,2.5H9.25A2.253,2.253,0,0,0,7,4.75V6.1H4.75A2.253,2.253,0,0,0,2.5,8.35V11.5H7V10.15a.45.45,0,0,1,.9,0V11.5h7.2V10.15a.45.45,0,0,1,.9,0V11.5h4.5V8.35A2.253,2.253,0,0,0,18.25,6.1Zm-3.15,0H7.9V4.75A1.352,1.352,0,0,1,9.25,3.4h4.5A1.352,1.352,0,0,1,15.1,4.75Z" transform="translate(6.105 5.244)" fill="#183c68"/>
      <path id="Path_109" data-name="Path 109" d="M16,14.85a.45.45,0,1,1-.9,0V13.5H7.9v1.35a.45.45,0,1,1-.9,0V13.5H2.5v5.85A2.253,2.253,0,0,0,4.75,21.6h13.5a2.253,2.253,0,0,0,2.25-2.25V13.5H16Z" transform="translate(6.105 4.144)" fill="#183c68"/>
    </g>
  </g>
</svg>
