<svg xmlns="http://www.w3.org/2000/svg" width="20" height="22.222" viewBox="0 0 20 22.222">
  <path id="calendar_icon" d="M156.671,48.89h1.111A2.222,2.222,0,0,1,160,51.112V66.668a2.222,2.222,0,0,1-2.222,2.222H142.226A2.222,2.222,0,0,1,140,66.668V51.112a2.222,2.222,0,0,1,2.222-2.222h1.111V47.779a1.111,1.111,0,0,1,2.222,0V48.89h8.889V47.779a1.111,1.111,0,0,1,2.222,0Zm1.111,3.889v1.667H142.226V66.668h15.555Zm-13.333,3.889h4.445v4.444h-4.445Z" transform="translate(-140.004 -46.668)" fill="#8a8a8e"/>
</svg>
