<svg xmlns="http://www.w3.org/2000/svg" width="37" height="37" viewBox="0 0 37 37">
  <g id="open_gallery" transform="translate(-194 -145)">
    <circle id="Ellipse_2913" data-name="Ellipse 2913" cx="18.5" cy="18.5" r="18.5" transform="translate(194 145)" opacity="0.2"/>
    <path id="Path_10515" data-name="Path 10515" d="M200-666.667V-672a2.568,2.568,0,0,1,.783-1.883,2.568,2.568,0,0,1,1.883-.783h2.667v-2.667H200V-680h5.333a2.568,2.568,0,0,1,1.883.783,2.568,2.568,0,0,1,.783,1.883v2.667a2.568,2.568,0,0,1-.783,1.883,2.568,2.568,0,0,1-1.883.783h-2.667v2.667H208v2.667Zm9.333,0,4-6.667-4-6.667H212l2.667,4.433L217.333-680H220l-4,6.667,4,6.667h-2.667l-2.667-4.433L212-666.667Z" transform="translate(3 836.833)" fill="#e8eaed"/>
  </g>
</svg>
