<svg xmlns="http://www.w3.org/2000/svg" width="23.69" height="21.28" viewBox="0 0 23.69 21.28">
  <g id="camera" transform="translate(-2 -3)">
    <path id="Path_10383" data-name="Path 10383" d="M5.41,7.615H6.615A2.41,2.41,0,0,0,9.025,5.2,1.205,1.205,0,0,1,10.23,4h7.23a1.2,1.2,0,0,1,1.2,1.2,2.41,2.41,0,0,0,2.41,2.41h1.2a2.41,2.41,0,0,1,2.41,2.41V20.87a2.41,2.41,0,0,1-2.41,2.41H5.41A2.41,2.41,0,0,1,3,20.87V10.025a2.41,2.41,0,0,1,2.41-2.41" transform="translate(0)" fill="none" stroke="#333" stroke-linecap="round" stroke-linejoin="round" stroke-width="2"/>
    <path id="Path_10384" data-name="Path 10384" d="M9,13.615A3.615,3.615,0,1,0,12.615,10,3.615,3.615,0,0,0,9,13.615" transform="translate(1.23 1.23)" fill="none" stroke="#333" stroke-linecap="round" stroke-linejoin="round" stroke-width="2"/>
  </g>
</svg>
