<svg id="clap" xmlns="http://www.w3.org/2000/svg" width="40" height="40" viewBox="0 0 40 40">
  <g id="clap_icon" transform="translate(0)">
    <rect id="Rectangle_3854" data-name="Rectangle 3854" width="40" height="40" transform="translate(0)" fill="#fff" opacity="0"/>
    <path id="Path_9677" data-name="Path 9677" d="M25.041,14.131l-1.709.287-7.159,7.347-.926-.323s-.424-2.481-.469-2.627-.474-2.3-.574-2.4-1.161-.629-1.161-.629l-1.089.179L11.7,17.612v4.153l-.281,2.426-.2,1.885-.183,1.093.183,2.03.93,2.295,1.419,1.014,1.683.937,1.848.411,2.531.288,2.834-.7,2.233-1.23,1.7-1.938,5.27-5.324.314-.552s-.021-1.107,0-1.223-.831-.7-.831-.7l-.729-.23.328-1.045s.5-.67.4-.878-.112-.89-.4-1.089-.026-.165-.83-.421-.461-1.556-.461-1.556v-.843l-.8-1.092-.784.143-1,.319-.889-.319s-.381-.591-.484-.709S25.041,14.131,25.041,14.131Z" fill="#36597f"/>
    <path id="clap_icon-2" data-name="clap_icon" d="M33.662,21.3a2.456,2.456,0,0,0-.175-3.223,2.42,2.42,0,0,0-1.051-.6,2.513,2.513,0,0,0,.21-1.016,2.381,2.381,0,0,0-.7-1.717,2.409,2.409,0,0,0-3.153-.245,2.646,2.646,0,0,0-.455-.806,2.423,2.423,0,0,0-1.752-.806,2.268,2.268,0,0,0-1.717.666,1.091,1.091,0,0,0-.245-.315,2.423,2.423,0,0,0-1.752-.806,2.35,2.35,0,0,0-1.787.7l-3.5,3.468a3.1,3.1,0,0,0-3.328-2.312,1.775,1.775,0,0,0-1.086.526A3.137,3.137,0,0,0,10.54,13.8a1.9,1.9,0,0,0-1.682,1.892l.035,5.08a15.557,15.557,0,0,1-.49,3.889v.035h0a7,7,0,0,0,1.787,6.867,9.783,9.783,0,0,0,6.937,2.873,4.24,4.24,0,0,0,.666-.035,10.085,10.085,0,0,0,3.048.49,9.672,9.672,0,0,0,6.937-2.873l6.761-6.8a2.44,2.44,0,0,0,.7-1.717,2.381,2.381,0,0,0-.7-1.717A2.691,2.691,0,0,0,33.662,21.3ZM22.1,14.149a1.027,1.027,0,0,1,.736-.28,1.008,1.008,0,0,1,.7.315.837.837,0,0,1,.175.49L17.932,20.6l-.175-2.137ZM11.206,30.58A5.58,5.58,0,0,1,9.77,25.15h0a16.422,16.422,0,0,0,.561-4.344l-.035-5.08a.421.421,0,0,1,.385-.42A1.651,1.651,0,0,1,12.5,16.742l.07.841.035,3.678a17.076,17.076,0,0,1-.455,3.854c0,.035-.035.035-.035.07A7,7,0,0,0,13.9,32.051c.175.175.385.35.561.525A8.459,8.459,0,0,1,11.206,30.58Zm22.316-6.341-6.761,6.8a8.394,8.394,0,0,1-11.841,0,5.577,5.577,0,0,1-1.436-5.4v-.035a16.611,16.611,0,0,0,.561-4.344h0V17.582h0v-1.4a.421.421,0,0,1,.385-.42A1.651,1.651,0,0,1,16.251,17.2l.245,3.538a1.385,1.385,0,0,0,2.347.841L25.78,14.64a.792.792,0,0,1,.736-.28,1.008,1.008,0,0,1,.7.315,1.122,1.122,0,0,1-.105,1.436h0L21.961,21.3a.718.718,0,0,0,.525,1.226.772.772,0,0,0,.525-.21L28.2,17.127h0l1.366-1.366a.994.994,0,0,1,1.4,0,1.016,1.016,0,0,1,0,1.4l-6.586,6.551a.731.731,0,0,0,1.051,1.016l3.678-3.679,1.962-1.962a.991.991,0,0,1,1.4,1.4L31.14,21.821h0l-.981.946L26.8,26.131a.731.731,0,0,0,1.051,1.016l4.309-4.309a.994.994,0,0,1,1.4,0,.978.978,0,0,1,.28.7A.882.882,0,0,1,33.522,24.239ZM29,9.315,30.789,5.5a.713.713,0,1,1,1.3.6L30.334,9.945a.721.721,0,0,1-.666.42,1.023,1.023,0,0,1-.315-.07A.792.792,0,0,1,29,9.315ZM25.254,5.426a.722.722,0,0,1,.526-.876.7.7,0,0,1,.876.49L27.742,9.1a.722.722,0,0,1-.525.876,1.517,1.517,0,0,0-.175.035.747.747,0,0,1-.7-.525Zm10.475,4.9-3.819,1.787a1.023,1.023,0,0,1-.315.07.721.721,0,0,1-.666-.42.705.705,0,0,1,.35-.946L35.1,9.034a.705.705,0,0,1,.946.35A.674.674,0,0,1,35.729,10.33Z" transform="translate(-2.135 0.477)" fill="#183c68"/>
  </g>
</svg>
