<svg xmlns="http://www.w3.org/2000/svg" width="43.718" height="39.234" viewBox="0 0 43.718 39.234">
  <path id="Path_13729" data-name="Path 13729" d="M127.553-790.766a5.973,5.973,0,0,1-3.74-1.261,5.873,5.873,0,0,1-2.162-3.223H109.617a8.1,8.1,0,0,1-5.946-2.462,8.1,8.1,0,0,1-2.462-5.946,8.1,8.1,0,0,1,2.462-5.946,8.1,8.1,0,0,1,5.946-2.462H114.1a4.854,4.854,0,0,0,3.562-1.483,4.863,4.863,0,0,0,1.482-3.565,4.851,4.851,0,0,0-1.482-3.562,4.862,4.862,0,0,0-3.562-1.479H102.068a6.091,6.091,0,0,1-2.18,3.223,5.9,5.9,0,0,1-3.723,1.261,5.948,5.948,0,0,1-4.367-1.8,5.942,5.942,0,0,1-1.8-4.365,5.95,5.95,0,0,1,1.8-4.368,5.943,5.943,0,0,1,4.367-1.8,5.9,5.9,0,0,1,3.723,1.261,6.091,6.091,0,0,1,2.18,3.223H114.1a8.1,8.1,0,0,1,5.946,2.462,8.1,8.1,0,0,1,2.462,5.946,8.1,8.1,0,0,1-2.462,5.946A8.1,8.1,0,0,1,114.1-808.7h-4.484a4.854,4.854,0,0,0-3.562,1.483,4.863,4.863,0,0,0-1.482,3.565,4.851,4.851,0,0,0,1.482,3.562,4.862,4.862,0,0,0,3.562,1.479H121.65a6.091,6.091,0,0,1,2.18-3.223,5.9,5.9,0,0,1,3.723-1.261,5.948,5.948,0,0,1,4.367,1.8,5.942,5.942,0,0,1,1.8,4.365,5.95,5.95,0,0,1-1.8,4.368A5.943,5.943,0,0,1,127.553-790.766ZM96.165-821.032a2.7,2.7,0,0,0,1.985-.817,2.7,2.7,0,0,0,.817-1.985,2.7,2.7,0,0,0-.817-1.985,2.7,2.7,0,0,0-1.985-.817,2.7,2.7,0,0,0-1.985.817,2.7,2.7,0,0,0-.817,1.985,2.7,2.7,0,0,0,.817,1.985A2.7,2.7,0,0,0,96.165-821.032Z" transform="translate(-90 830)" fill="#8a8a8e"/>
</svg>
