<svg xmlns="http://www.w3.org/2000/svg" width="41.567" height="26.817" viewBox="0 0 41.567 26.817">
  <path id="crown_icon" d="M1780.882,305.008c-4.333,3.941-4.347,3.37-5.609-3.179a2.056,2.056,0,0,0,1.595-.663,2.164,2.164,0,1,0-3.281-.2,2.365,2.365,0,0,0,.488.457c-4.795,6.647-5.595,5.2-9.255-2.964a2.72,2.72,0,0,0,.976-.675,2.818,2.818,0,1,0-4.031,0,2.722,2.722,0,0,0,.975.675c-3.66,8.163-4.46,9.611-9.255,2.964a2.353,2.353,0,0,0,.488-.457,2.164,2.164,0,1,0-3.281.2,2.05,2.05,0,0,0,1.595.663c-1.261,6.548-1.276,7.119-5.609,3.179a2.328,2.328,0,0,0,.2-.223,2.164,2.164,0,1,0-3.28.2,2.051,2.051,0,0,0,1.659.66l1.868,9.493h33.306l1.868-9.493a2.052,2.052,0,0,0,1.659-.66,2.164,2.164,0,1,0-3.281-.2,2.2,2.2,0,0,0,.2.223Zm-1.039,7.688a6.151,6.151,0,0,1,0-3.294,6.2,6.2,0,0,1-2.86,1.649,4.324,4.324,0,0,1,.638,2.186A4.356,4.356,0,0,1,1779.843,312.7Zm-4.755-1a10.137,10.137,0,0,1-1.4-5.237,10.163,10.163,0,0,1-3.842,3.836,7.114,7.114,0,0,1,1.949,3.2,7.15,7.15,0,0,1,3.3-1.8Zm-27.37,1a6.163,6.163,0,0,0,0-3.294,6.206,6.206,0,0,0,2.86,1.649,4.323,4.323,0,0,0-.638,2.186A4.358,4.358,0,0,0,1747.718,312.7Zm4.755-1a10.137,10.137,0,0,0,1.4-5.237,10.185,10.185,0,0,0,3.842,3.837,7.116,7.116,0,0,0-1.948,3.2,7.153,7.153,0,0,0-3.3-1.8Zm7.838-1.509a12.978,12.978,0,0,0,3.47-6,12.979,12.979,0,0,0,3.469,6,3.473,3.473,0,0,1-6.939,0Zm20.7,5.45h-34.463v4.183h34.463Z" transform="translate(-1742.998 -293)" fill="#f8bb44"/>
</svg>
