<svg xmlns="http://www.w3.org/2000/svg" width="18" height="18" viewBox="0 0 18 18">
  <g id="delte_post" transform="translate(18.5 -69)">
    <rect id="Rectangle_5300" data-name="Rectangle 5300" width="18" height="18" transform="translate(-18.5 69)" fill="#fff"/>
    <g id="delete_icon" transform="translate(-16.5 70)">
      <path id="delete_icon-2" data-name="delete_icon" d="M182.661-799.38a1.651,1.651,0,0,1-1.211-.5,1.651,1.651,0,0,1-.5-1.211V-813.12H180v-1.421h4.264v-.838h5.686v.838h4.264v1.421h-.948v12.027a1.654,1.654,0,0,1-.5,1.216,1.654,1.654,0,0,1-1.216.5Zm9.185-13.74h-9.476v12.027a.284.284,0,0,0,.082.21.284.284,0,0,0,.21.082h8.893a.278.278,0,0,0,.2-.091.278.278,0,0,0,.091-.2Zm-7.2,10.424h1.421v-8.529h-1.421Zm3.5,0h1.421v-8.529h-1.421Zm-5.777-10.424v0Z" transform="translate(-180 815.38)" fill="#8a8a8e"/>
    </g>
  </g>
</svg>
