<svg xmlns="http://www.w3.org/2000/svg" width="19.152" height="19.151" viewBox="0 0 19.152 19.151">
  <path id="download_icon" d="M21.446,15.972a.845.845,0,1,1,1.69,0v3.5a3.667,3.667,0,0,1-3.661,3.661H7.645a3.667,3.667,0,0,1-3.661-3.661v-3.5a.845.845,0,1,1,1.689,0v3.5a1.977,1.977,0,0,0,1.971,1.971H19.474a1.977,1.977,0,0,0,1.971-1.971v-3.5ZM10.025,13.26l2.839,3.49a.845.845,0,0,0,1.392,0L17.1,13.26A.842.842,0,1,0,15.788,12.2l-1.383,1.7V4.83a.845.845,0,1,0-1.69,0V13.9l-1.384-1.7a.842.842,0,0,0-1.307,1.063Z" transform="translate(-3.984 -3.985)" fill="#fff" fill-rule="evenodd"/>
</svg>
