<svg id="Download" xmlns="http://www.w3.org/2000/svg" width="24" height="24" viewBox="0 0 24 24">
  <rect id="Rectangle_5331" data-name="Rectangle 5331" width="24" height="24" fill="#b4b4b4" opacity="0"/>
  <g id="Download-2" data-name="Download" transform="translate(-4 -4)">
    <path id="Path_22689" data-name="Path 22689" d="M28,24V20a1,1,0,0,0-2,0v4a1,1,0,0,1-1,1H7a1,1,0,0,1-1-1V20a1,1,0,0,0-2,0v4a3,3,0,0,0,3,3H25a3,3,0,0,0,3-3Zm-6.38-5.22-5,4a1,1,0,0,1-1.24,0l-5-4a1,1,0,0,1,1.24-1.56L15,19.92V6a1,1,0,1,1,2,0V19.92l3.38-2.7a1,1,0,1,1,1.24,1.56Z"/>
  </g>
</svg>
