<svg xmlns="http://www.w3.org/2000/svg" width="16" height="16.001" viewBox="0 0 16 16.001">
  <path id="edit_icon" d="M153.467,90.009,144.888,98.6a1.81,1.81,0,0,0-.428.721l-1.374,4.71a.805.805,0,0,0,.2.789.781.781,0,0,0,.563.225.767.767,0,0,0,.225-.022l4.706-1.375a1.808,1.808,0,0,0,.721-.428l8.6-8.609a3.273,3.273,0,0,0,.946-2.321,3.243,3.243,0,0,0-5.584-2.276ZM148.9,101.593,146.509,99.2l6.53-6.536,2.387,2.389Zm-3.175-.969,1.756,1.758L145,103.1ZM156.98,93.5l-.428.428-2.387-2.389.428-.428a1.684,1.684,0,0,1,2.387,0,1.7,1.7,0,0,1,0,2.389Z" transform="translate(-143.051 -89.04)" fill="#8a8a8e"/>
</svg>
