<svg xmlns="http://www.w3.org/2000/svg" width="13" height="10.4" viewBox="0 0 13 10.4">
  <g id="email" transform="translate(0 0)">
    <path id="email-2" data-name="email" d="M81.3-789.6a1.252,1.252,0,0,1-.918-.382A1.252,1.252,0,0,1,80-790.9v-7.8a1.252,1.252,0,0,1,.382-.918A1.252,1.252,0,0,1,81.3-800H91.7a1.252,1.252,0,0,1,.918.382A1.252,1.252,0,0,1,93-798.7v7.8a1.252,1.252,0,0,1-.382.918,1.252,1.252,0,0,1-.918.382Zm5.2-4.55,5.2-3.25v-1.3l-5.2,3.25-5.2-3.25v1.3Z" transform="translate(-80 800)" fill="#8a8a8e"/>
  </g>
</svg>
