<svg xmlns="http://www.w3.org/2000/svg" width="62" height="62" viewBox="0 0 62 62">
  <g id="exhibitor_home" transform="translate(-75 -877.746)">
    <rect id="Rectangle_5193" data-name="Rectangle 5193" width="62" height="62" transform="translate(75 877.746)" fill="#f79622" opacity="0"/>
    <g id="noun-booth-1516365_1_" data-name="noun-booth-1516365 (1)" transform="translate(-20.497 819.041)">
      <path id="Path_9697" data-name="Path 9697" d="M149.677,78.226,127.6,70.744a1.3,1.3,0,0,0-.637,0L104.25,77.961a1.1,1.1,0,0,0-.743.849,1,1,0,0,0,.478,1.008l4.352,2.919v20.007a1.035,1.035,0,0,0,.743,1.008l17.778,5.254a.983.983,0,0,0,.637,0l17.778-5.254a1.019,1.019,0,0,0,.743-1.008V82.738l3.874-2.653a1.1,1.1,0,0,0,.478-1.008,1.041,1.041,0,0,0-.69-.849Zm-23.563,28.339-15.655-4.617V83l15.655-4.564Zm17.831-4.617-15.655,4.617V78.438L143.945,83Zm.849-20.909L127.494,76h-.531l-17.354,5.041-2.547-1.7,20.219-6.474,19.742,6.687Z" transform="translate(0 0)" fill="#333" stroke="#333" stroke-width="0.5"/>
    </g>
  </g>
</svg>
