<svg xmlns="http://www.w3.org/2000/svg" width="50" height="50" viewBox="0 0 50 50">
  <g id="favourites_home" transform="translate(-1.813 5.787)">
    <rect id="Rectangle_1" data-name="Rectangle 1" width="50" height="50" transform="translate(1.813 -5.787)" fill="#f79622" opacity="0"/>
    <g id="star_bookmark" transform="translate(9.563 -0.144)" fill="none">
      <path d="M31.112,13.018h-9.85L18.268,4.085a1.085,1.085,0,0,0-2.036,0l-2.993,8.933H3.321A1.075,1.075,0,0,0,2.25,14.089a.787.787,0,0,0,.02.181,1.029,1.029,0,0,0,.449.757l8.1,5.705L7.708,29.766a1.075,1.075,0,0,0,.368,1.205,1.036,1.036,0,0,0,.6.261,1.313,1.313,0,0,0,.67-.241l7.9-5.632,7.9,5.632a1.255,1.255,0,0,0,.67.241.962.962,0,0,0,.6-.261,1.061,1.061,0,0,0,.368-1.205l-3.107-9.033,8.029-5.759.194-.167a1.123,1.123,0,0,0,.348-.717A1.134,1.134,0,0,0,31.112,13.018Z" stroke="none"/>
      <path d="M 17.25 7.342035293579102 L 14.67797088623047 15.01785087585449 L 6.178016662597656 15.01785087585449 L 13.1944694519043 19.96245193481445 L 10.53734970092773 27.68757629394531 L 17.25 22.90339279174805 L 23.95378112792969 27.68126487731934 L 21.30305099487305 19.9747428894043 L 28.2138843536377 15.01785087585449 L 19.82202911376953 15.01785087585449 L 17.25 7.342035293579102 M 17.25 3.375001907348633 C 17.71204948425293 3.375001907348633 18.12052917480469 3.649551391601562 18.26786041259766 4.084821701049805 L 21.26115989685059 13.01785087585449 L 31.11159896850586 13.01785087585449 C 31.70088958740234 13.01785087585449 32.25 13.50000190734863 32.25 14.08928108215332 C 32.25 14.36384201049805 32.07588958740234 14.61830139160156 31.90179061889648 14.80580139160156 L 31.70759010314941 14.97321128845215 L 23.67856979370117 20.73214149475098 L 26.78570938110352 29.76562118530273 C 26.93972969055176 30.20759201049805 26.79240989685059 30.68973159790039 26.41740989685059 30.97098159790039 C 26.22990989685059 31.11830139160156 26.04911041259766 31.23214149475098 25.82143020629883 31.23214149475098 C 25.60044097900391 31.23214149475098 25.33927917480469 31.12500190734863 25.15177917480469 30.9910717010498 L 17.25 25.35937118530273 L 9.348209381103516 30.9910717010498 C 9.160709381103516 31.11830139160156 8.89954948425293 31.23214149475098 8.678569793701172 31.23214149475098 C 8.450889587402344 31.23214149475098 8.270090103149414 31.11160087585449 8.075889587402344 30.97098159790039 C 7.707590103149414 30.68973159790039 7.553569793701172 30.20089149475098 7.707590103149414 29.76562118530273 L 10.81472969055176 20.73214149475098 L 2.71875 15.02679252624512 C 2.390621185302734 14.76562118530273 2.283481597900391 14.50446128845215 2.270088195800781 14.27009201049805 C 2.256698608398438 14.21652221679688 2.25 14.14955139160156 2.25 14.08928108215332 C 2.25 13.50000190734863 2.732139587402344 13.01785087585449 3.321430206298828 13.01785087585449 L 13.23884010314941 13.01785087585449 L 16.23213958740234 4.084821701049805 C 16.37945938110352 3.649551391601562 16.78793907165527 3.375001907348633 17.25 3.375001907348633 Z" stroke="none" fill="#333"/>
    </g>
  </g>
</svg>
