<svg xmlns="http://www.w3.org/2000/svg" width="103" height="103" viewBox="0 0 103 103">
  <g id="Group_20300" data-name="Group 20300" transform="translate(-156 -272)">
    <circle id="Ellipse_2919" data-name="Ellipse 2919" cx="51.5" cy="51.5" r="51.5" transform="translate(156 272)" fill="#f4f3f7"/>
    <path id="flight_details" d="M116.812-750.962,139.98-757.1a2.274,2.274,0,0,0,1.443-1.09,2.23,2.23,0,0,0,.268-1.764,1.976,1.976,0,0,0-1.075-1.328,2.423,2.423,0,0,0-1.749-.18l-6.549,1.761-10.526-9.868-3.229.769,6.316,11.053-6.771,1.68-3.289-2.5-2.045.557Zm28.431,10.435H104.757a4.585,4.585,0,0,1-3.363-1.394A4.585,4.585,0,0,1,100-745.284v-8.653a6.374,6.374,0,0,0,3.755-2.2,6.171,6.171,0,0,0,1.508-4.122,6.171,6.171,0,0,0-1.508-4.122,6.375,6.375,0,0,0-3.755-2.2v-8.653a4.585,4.585,0,0,1,1.394-3.363A4.585,4.585,0,0,1,104.757-780h40.486a4.584,4.584,0,0,1,3.363,1.394A4.585,4.585,0,0,1,150-775.243v29.959a4.585,4.585,0,0,1-1.394,3.363A4.585,4.585,0,0,1,145.243-740.526Zm0-3.947a.789.789,0,0,0,.582-.228.789.789,0,0,0,.228-.582v-29.959a.789.789,0,0,0-.228-.582.789.789,0,0,0-.582-.228H104.757a.789.789,0,0,0-.582.228.789.789,0,0,0-.228.582v5.9a10.787,10.787,0,0,1,3.849,3.849,10.122,10.122,0,0,1,1.414,5.23,10.123,10.123,0,0,1-1.414,5.23,10.787,10.787,0,0,1-3.849,3.849v5.9a.789.789,0,0,0,.228.582.789.789,0,0,0,.582.228ZM125-760.263Z" transform="translate(83 1084)" fill="#8a8a8e"/>
  </g>
</svg>
