<svg xmlns="http://www.w3.org/2000/svg" width="62" height="62" viewBox="0 0 62 62">
  <g id="floorNavigation_home" transform="translate(-1.09 6.086)">
    <rect id="Rectangle_1" data-name="Rectangle 1" width="62" height="62" transform="translate(1.09 -6.086)" fill="#f79622" opacity="0"/>
    <g id="Group_4721" data-name="Group 4721" transform="translate(11.09 3.914)">
      <path id="Path_10006" data-name="Path 10006" d="M21,42A21,21,0,1,0,0,21,21,21,0,0,0,21,42Z" transform="translate(0)" fill="#4788fe"/>
      <path id="Path_10007" data-name="Path 10007" d="M198.157,528.832l2.673-7.879a2.091,2.091,0,0,1,1.9-1.543H222.64a2.087,2.087,0,0,1,1.89,1.525l2.73,7.878c.57,1.644-.423,3.463-1.89,3.463H200.053C198.593,532.277,197.6,530.473,198.157,528.832Z" transform="translate(-191.683 -499.398)" fill="#fff"/>
      <path id="Path_10008" data-name="Path 10008" d="M239.326,560.566l-4.484,1.968,1.206-3.554Z" transform="translate(-226.956 -537.282)" fill="#a8eefc"/>
      <path id="Path_10009" data-name="Path 10009" d="M208.826,611.358l-10.664,4.591a2.934,2.934,0,0,1,.144-.675l.98-2.889L205.4,609.7Z" transform="translate(-191.839 -585.841)" fill="#00c172"/>
      <path id="Path_10010" data-name="Path 10010" d="M263.562,751.816h-9.81l7.192-3.1Z" transform="translate(-245.06 -718.937)" fill="#a8eefc"/>
      <path id="Path_10011" data-name="Path 10011" d="M460.53,701.036H448.141l-2.969-3.511,4.285-1.845Z" transform="translate(-428.323 -668.157)" fill="#00c172"/>
      <path id="Path_10012" data-name="Path 10012" d="M385.156,519.41l-8.557,3.684-7.616-3.684Z" transform="translate(-355.38 -499.398)" fill="#ffde47"/>
      <path id="Path_10013" data-name="Path 10013" d="M653.961,577.871l-3.245,2.744-5.674-2.744,7.761-3.341Z" transform="translate(-619.677 -552.169)" fill="#00c172"/>
      <path id="Path_10014" data-name="Path 10014" d="M805.11,680.819l-3.688-1.784,2.61-2.205.935,2.7A2.965,2.965,0,0,1,805.11,680.819Z" transform="translate(-769.393 -650.11)" fill="#ffde47"/>
      <path id="Path_10015" data-name="Path 10015" d="M299.829,189.069,281.2,196.877a.852.852,0,0,0,.023,1.578l7.11,2.76a.848.848,0,0,1,.485.486l2.742,7.123a.849.849,0,0,0,1.574.024l7.8-18.667A.849.849,0,0,0,299.829,189.069Z" transform="translate(-270.842 -183.067)" fill="#fff" stroke="#4788fe" stroke-width="1"/>
    </g>
  </g>
</svg>
