<svg xmlns="http://www.w3.org/2000/svg" width="26" height="25.999" viewBox="0 0 26 25.999">
  <g id="google_icon" transform="translate(-1623 -418)">
    <ellipse id="Ellipse_476" data-name="Ellipse 476" cx="10" cy="10" rx="10" ry="10" transform="translate(1625 420)" fill="#00264c"/>
    <path id="google_icon-2" data-name="google_icon" d="M16.835,4.015a13,13,0,1,0,13,13A13,13,0,0,0,16.835,4.015ZM24.3,19.781a7.1,7.1,0,0,1-5.334,5.058,8.605,8.605,0,0,1-4.12-.044,8.014,8.014,0,0,1-2.926-1.475,8.048,8.048,0,0,1-2.887-7.9A8.066,8.066,0,0,1,14.3,9.4a8.143,8.143,0,0,1,5.424.048,7.794,7.794,0,0,1,2.591,1.606c-.251.273-.523.527-.783.792q-.741.74-1.482,1.48a4.364,4.364,0,0,0-1.736-1.02,4.731,4.731,0,0,0-4.769,1.24,5,5,0,0,0-1.169,1.9,4.877,4.877,0,0,0,0,3.136,5,5,0,0,0,1.846,2.473,4.731,4.731,0,0,0,1.793.774,5.256,5.256,0,0,0,1.922.006,4.6,4.6,0,0,0,1.773-.7,3.783,3.783,0,0,0,1.612-2.487H16.931c0-1.047,0-2.1,0-3.143q3.789,0,7.578,0A9.459,9.459,0,0,1,24.3,19.781Z" transform="translate(1619.166 413.985)" fill="#ffffff"/>
  </g>
</svg>
