<svg id="hoot" xmlns="http://www.w3.org/2000/svg" width="40" height="40" viewBox="0 0 40 40">
  <path id="Path_9679" data-name="Path 9679" d="M32.256,13.385,28.537,15.7l-3.6,1.756-3.106.565H20.7l-.425,4.034,3.82.519,4.061,1.133,2.223,1.536,1.878,1.14Z" fill="#36597f"/>
  <g id="hoot_icon" transform="translate(0)">
    <rect id="Rectangle_3855" data-name="Rectangle 3855" width="40" height="40" transform="translate(0)" fill="#fff" opacity="0"/>
    <path id="Path_9680" data-name="Path 9680" d="M11.548,22.634l-1.251.954.535,1.88,1.616,1.564h2.812l2.566-1.564v-2.22l-1.84-.615Z" fill="#36597f"/>
    <path id="hoot_icon-2" data-name="hoot_icon" d="M28.6,6.087a.65.65,0,0,0-.73.441c-1.2,3.6-7.923,6.129-11.608,6.129H2.447V12a.658.658,0,0,0-1.316,0v7.11a.658.658,0,1,0,1.316,0v-.658h3a2.373,2.373,0,0,0-.367,1.316c0,2.176,2.066,3.947,4.6,3.947s4.6-1.77,4.6-3.947a2.373,2.373,0,0,0-.367-1.316h2.341c3.685,0,10.408,2.527,11.608,6.129a.658.658,0,0,0,1.282-.208V6.737A.658.658,0,0,0,28.6,6.087ZM2.447,13.973H15.6v3.163H2.447Zm10.525,5.794c0,1.451-1.475,2.631-3.289,2.631s-3.289-1.18-3.289-2.631c0-1.021.737-1.316,3.289-1.316S12.972,18.746,12.972,19.767Zm14.864,2.322a17.693,17.693,0,0,0-10.917-4.932V13.952A17.694,17.694,0,0,0,27.836,9.019Z" transform="translate(4.369 4.422)" fill="#36597f" stroke="#36597f" stroke-width="0.4"/>
  </g>
</svg>
