<svg xmlns="http://www.w3.org/2000/svg" width="54" height="54" viewBox="-5 -5 64 64">
  <g id="ai_matches_menu" transform="translate(4.961 0.696)">
    <rect id="Rectangle_1" data-name="Rectangle 1" width="54" height="54" transform="translate(-4.961 -0.696)" fill="#f79622" opacity="0"/>
    <g id="noun-ai-6297105" transform="translate(-0.962 4.304)">
      <g id="Path_10292" data-name="Path 10292" transform="translate(-4.262 0.26)" fill="none">
        <path d="M24.221,7.108a.938.938,0,0,1,1.727,0c1.223,3.226,3.575,8.835,5.926,11.187s7.685,4.715,10.72,5.936a.934.934,0,0,1,0,1.708c-3.035,1.22-8.362,3.578-10.72,5.936s-4.7,7.961-5.926,11.187a.938.938,0,0,1-1.727,0C23,39.836,20.647,34.226,18.295,31.874s-7.961-4.7-11.187-5.926a.938.938,0,0,1,0-1.727c3.226-1.223,8.835-3.575,11.187-5.927S23,10.334,24.221,7.108Z" stroke="none"/>
        <path d="M 25.08467102050781 11.62664794921875 C 23.66573905944824 14.88037490844727 21.90823364257812 18.21723747253418 20.0627613067627 20.06266784667969 C 18.21770286560059 21.90771865844727 14.88043975830078 23.66544914245605 11.62620544433594 25.08476829528809 C 14.88037872314453 26.5037899017334 18.21744537353516 28.26124000549316 20.06277084350586 30.10655784606934 C 21.90808486938477 31.95190048217773 23.66571998596191 35.28910064697266 25.08467483520508 38.54281234741211 C 26.5036792755127 35.28899383544922 28.26131820678711 31.95183563232422 30.10674095153809 30.1064281463623 C 31.94887924194336 28.26455688476562 35.151123046875 26.50539398193359 38.24533081054688 25.08470726013184 C 35.1508674621582 23.66379547119141 31.94836807250977 21.9044075012207 30.10665130615234 20.06269836425781 C 28.26114273071289 18.2172679901123 26.50359344482422 14.88033676147461 25.08467102050781 11.62664794921875 M 25.08467102050781 6.536373138427734 C 25.44401550292969 6.536373138427734 25.80335998535156 6.727027893066406 25.9479808807373 7.10833740234375 C 27.17115020751953 10.33392715454102 29.52276039123535 15.94337844848633 31.87438011169434 18.29489707946777 C 34.23210906982422 20.65261840820312 39.55931854248047 23.01034736633301 42.59432220458984 24.23079681396484 C 43.33541870117188 24.52886772155762 43.33541870117188 25.64067840576172 42.59432220458984 25.93874740600586 C 39.5589714050293 27.15920829772949 34.23210906982422 29.51692771911621 31.87438011169434 31.87431716918945 C 29.52276039123535 34.22592926025391 27.17115020751953 39.83558654785156 25.9479808807373 43.06103897094727 C 25.65873908996582 43.82351684570312 24.51059913635254 43.82351684570312 24.22136116027832 43.06103897094727 C 22.99818992614746 39.83558654785156 20.64657020568848 34.22592926025391 18.29499053955078 31.87431716918945 C 15.9433708190918 29.52269744873047 10.33382034301758 27.17142677307129 7.108192443847656 25.94825744628906 C 6.345539093017578 25.65901756286621 6.345539093017578 24.51087760925293 7.108161926269531 24.22162818908691 C 10.33378219604492 22.99812698364258 15.9433708190918 20.64651679992676 18.29499053955078 18.29489707946777 C 20.64657020568848 15.94337844848633 22.99818992614746 10.33392715454102 24.22136116027832 7.10833740234375 C 24.36598014831543 6.727027893066406 24.72532653808594 6.536373138427734 25.08467102050781 6.536373138427734 Z" stroke="none" fill="#333"/>
      </g>
      <path id="Path_10293" data-name="Path 10293" d="M22,5.1a1,1,0,0,1,1.8,0A15.507,15.507,0,0,0,26.3,9.51a15.673,15.673,0,0,0,4.259,2.506,1,1,0,0,1,0,1.778A15.67,15.67,0,0,0,26.3,16.3a15.507,15.507,0,0,0-2.494,4.41,1,1,0,0,1-1.8,0A15.507,15.507,0,0,0,19.51,16.3a15.51,15.51,0,0,0-4.41-2.494,1,1,0,0,1,0-1.8A15.512,15.512,0,0,0,19.51,9.51,15.507,15.507,0,0,0,22,5.1Z" transform="translate(14.893 -4.535)" fill="#333"/>
      <path id="Path_10294" data-name="Path 10294" d="M9.906,6.422a1.074,1.074,0,0,1,1.882,0A8.137,8.137,0,0,0,13.11,8.584a8.383,8.383,0,0,0,2.116,1.338,1.063,1.063,0,0,1,0,1.851A8.383,8.383,0,0,0,13.11,13.11a8.137,8.137,0,0,0-1.323,2.162,1.074,1.074,0,0,1-1.882,0A8.138,8.138,0,0,0,8.584,13.11a8.137,8.137,0,0,0-2.162-1.322,1.074,1.074,0,0,1,0-1.882A8.138,8.138,0,0,0,8.584,8.584,8.138,8.138,0,0,0,9.906,6.422Z" transform="translate(-5.866 -1.345)" fill="#333"/>
    </g>
  </g>
</svg>
