<svg xmlns="http://www.w3.org/2000/svg" width="54" height="54" viewBox="0 0 54 54">
  <g id="ai_gallery_menu" transform="translate(-0.038 0.696)">
    <rect id="Rectangle_1" data-name="Rectangle 1" width="54" height="54" transform="translate(0.038 -0.696)" fill="#f79622" opacity="0"/>
    <g id="ai_gallery_icon" transform="translate(6.038 6.304)">
      <path id="Path_13734" data-name="Path 13734" d="M21.375,41.912H9.485A6.485,6.485,0,0,1,3,35.427V9.485A6.485,6.485,0,0,1,9.485,3H35.427a6.485,6.485,0,0,1,6.485,6.485V20.294" transform="translate(-3 -3)" fill="none" stroke="#333" stroke-linecap="round" stroke-linejoin="round" stroke-width="2.5"/>
      <path id="Path_13735" data-name="Path 13735" d="M3,22.587,13.809,11.778a4.355,4.355,0,0,1,6.485,0l3.243,3.243" transform="translate(-3 5.516)" fill="none" stroke="#333" stroke-linecap="round" stroke-linejoin="round" stroke-width="2.5"/>
      <g id="noun-ai-6297105" transform="translate(21.88 22.758)">
        <path id="Path_10292" data-name="Path 10292" d="M13.916,6.775a.391.391,0,0,1,.721,0,15.958,15.958,0,0,0,2.473,4.668,15.89,15.89,0,0,0,4.473,2.477.39.39,0,0,1,0,.713A15.891,15.891,0,0,0,17.11,17.11a15.96,15.96,0,0,0-2.473,4.668.391.391,0,0,1-.721,0,15.96,15.96,0,0,0-2.473-4.668,15.959,15.959,0,0,0-4.668-2.473.391.391,0,0,1,0-.721,15.963,15.963,0,0,0,4.668-2.473A15.958,15.958,0,0,0,13.916,6.775Z" transform="translate(-5.587 -3.7)" fill="#333"/>
        <path id="Path_10293" data-name="Path 10293" d="M17.651,4.77a.418.418,0,0,1,.752,0,6.471,6.471,0,0,0,1.041,1.84,6.54,6.54,0,0,0,1.777,1.046.415.415,0,0,1,0,.742,6.539,6.539,0,0,0-1.777,1.046,6.471,6.471,0,0,0-1.041,1.84.418.418,0,0,1-.752,0,6.471,6.471,0,0,0-1.041-1.84A6.473,6.473,0,0,0,14.77,8.4a.418.418,0,0,1,0-.752,6.473,6.473,0,0,0,1.84-1.041A6.471,6.471,0,0,0,17.651,4.77Z" transform="translate(-2.254 -4.535)" fill="#333"/>
        <path id="Path_10294" data-name="Path 10294" d="M7.552,6.1a.448.448,0,0,1,.785,0,3.4,3.4,0,0,0,.552.9,3.5,3.5,0,0,0,.883.558.444.444,0,0,1,0,.772,3.5,3.5,0,0,0-.883.558,3.4,3.4,0,0,0-.552.9.448.448,0,0,1-.785,0A3.4,3.4,0,0,0,7,8.889a3.4,3.4,0,0,0-.9-.552.448.448,0,0,1,0-.785A3.4,3.4,0,0,0,7,7,3.4,3.4,0,0,0,7.552,6.1Z" transform="translate(-5.866 -3.98)" fill="#333"/>
      </g>
      <g id="Ellipse_2925" data-name="Ellipse 2925" transform="translate(23.984 9.09)" fill="#333" stroke="#333" stroke-width="1">
        <circle cx="2.5" cy="2.5" r="2.5" stroke="none"/>
        <circle cx="2.5" cy="2.5" r="2" fill="none"/>
      </g>
    </g>
  </g>
</svg>
