<svg xmlns="http://www.w3.org/2000/svg" width="19.468" height="20.658" viewBox="0 0 19.468 20.658">
  <path id="add" d="M154.669-843.956v-3.2h-3.2v-1.6h3.2v-3.2h1.6v3.2h3.2v1.6h-3.2v3.2Zm-12.74-2.4a1.861,1.861,0,0,1-1.368-.56,1.861,1.861,0,0,1-.56-1.368v-12.145a1.861,1.861,0,0,1,.56-1.368,1.861,1.861,0,0,1,1.368-.56h1.477v-2.257h1.641v2.257H151v-2.257h1.6v2.257h1.477a1.861,1.861,0,0,1,1.368.56,1.861,1.861,0,0,1,.56,1.368v6.3a6.541,6.541,0,0,0-.8-.049,6.541,6.541,0,0,0-.8.049v-2.035H141.6v7.878a.314.314,0,0,0,.1.226.314.314,0,0,0,.226.1h7.293a6.543,6.543,0,0,0,.049.8,4.214,4.214,0,0,0,.181.8Zm-.328-11.406h12.8v-2.667a.314.314,0,0,0-.1-.226.314.314,0,0,0-.226-.1H141.929a.314.314,0,0,0-.226.1.314.314,0,0,0-.1.226Zm0,0v0Z" transform="translate(-140.001 864.614)" fill="#333"/>
</svg>
