<svg xmlns="http://www.w3.org/2000/svg" width="18" height="18" viewBox="0 0 18 18">
  <g id="document_icon" transform="translate(-24.043 -223.862)">
    <rect id="Rectangle_3945" data-name="Rectangle 3945" width="18" height="18" transform="translate(24.043 223.862)" fill="#8087b7" opacity="0"/>
    <path id="contact_support_FILL0_wght400_GRAD0_opsz48" d="M14.888,22l-.225-2.475h-.9a7.48,7.48,0,0,1-5.49-2.272A7.48,7.48,0,0,1,6,11.763a7.461,7.461,0,0,1,2.284-5.49A7.543,7.543,0,0,1,13.808,4a7.54,7.54,0,0,1,2.959.574A7.192,7.192,0,0,1,19.14,6.183a7.5,7.5,0,0,1,1.586,2.441A8.054,8.054,0,0,1,21.3,11.7a10.436,10.436,0,0,1-.439,2.97A11.7,11.7,0,0,1,19.59,17.5,12.745,12.745,0,0,1,17.565,20,13.7,13.7,0,0,1,14.888,22Zm1.125-2.43A11.338,11.338,0,0,0,18.9,15.914,9.4,9.4,0,0,0,19.95,11.7a6.248,6.248,0,0,0-1.744-4.568,5.9,5.9,0,0,0-4.4-1.778A6.231,6.231,0,0,0,9.229,7.229,6.178,6.178,0,0,0,7.35,11.763,6.178,6.178,0,0,0,9.229,16.3a6.178,6.178,0,0,0,4.534,1.879h2.25Zm-2.205-2.588a.845.845,0,1,0-.608-.247A.826.826,0,0,0,13.808,16.983Zm-.608-3.06h1.125a2.028,2.028,0,0,1,.191-.934,4.489,4.489,0,0,1,.8-.979A4.381,4.381,0,0,0,16.17,10.9a2.451,2.451,0,0,0,.247-1.091,2.2,2.2,0,0,0-.686-1.665A2.551,2.551,0,0,0,13.9,7.488a2.959,2.959,0,0,0-2.79,1.845l1.035.427a1.841,1.841,0,0,1,.686-.866,1.815,1.815,0,0,1,1-.281,1.579,1.579,0,0,1,1.057.326,1.082,1.082,0,0,1,.383.866,1.754,1.754,0,0,1-.248.866,5.869,5.869,0,0,1-.877,1.091,4.009,4.009,0,0,0-.776,1.012,2.98,2.98,0,0,0-.169,1.148ZM13.65,12.46Z" transform="translate(19.043 219.862)" fill="#333"/>
  </g>
</svg>
