<svg id="booth_chat" xmlns="http://www.w3.org/2000/svg" width="30" height="30" viewBox="0 0 30 30">
  <rect id="Rectangle_3949" data-name="Rectangle 3949" width="30" height="30" fill="#004141" opacity="0"/>
  <g id="block_icon" transform="translate(5 5)">
    <path id="block_icon-2" data-name="block_icon" d="M110-840a9.742,9.742,0,0,1-3.9-.787,10.1,10.1,0,0,1-3.176-2.137,10.1,10.1,0,0,1-2.138-3.174A9.732,9.732,0,0,1,100-850a9.742,9.742,0,0,1,.787-3.9,10.1,10.1,0,0,1,2.137-3.176,10.1,10.1,0,0,1,3.174-2.138A9.732,9.732,0,0,1,110-860a9.742,9.742,0,0,1,3.9.787,10.1,10.1,0,0,1,3.176,2.137,10.1,10.1,0,0,1,2.138,3.174A9.732,9.732,0,0,1,120-850a9.741,9.741,0,0,1-.787,3.9,10.1,10.1,0,0,1-2.137,3.176,10.1,10.1,0,0,1-3.174,2.138A9.732,9.732,0,0,1,110-840Zm0-1.579a8.252,8.252,0,0,0,2.853-.5,8.348,8.348,0,0,0,2.507-1.45l-11.83-11.83a8.553,8.553,0,0,0-1.445,2.507A8.178,8.178,0,0,0,101.58-850a8.127,8.127,0,0,0,2.447,5.974A8.127,8.127,0,0,0,110-841.578Zm6.47-3.061a8.349,8.349,0,0,0,1.45-2.507,8.251,8.251,0,0,0,.5-2.853,8.127,8.127,0,0,0-2.447-5.974A8.127,8.127,0,0,0,110-858.42a8.366,8.366,0,0,0-2.86.5,8.023,8.023,0,0,0-2.5,1.456Z" transform="translate(-100.001 859.999)" fill="#de3c34"/>
  </g>
</svg>
