<svg xmlns="http://www.w3.org/2000/svg" width="34" height="34" viewBox="0 0 34 34">
  <g id="info_menu" transform="translate(0 -0.361)">
    <rect id="Rectangle_1" data-name="Rectangle 1" width="34" height="34" transform="translate(0 0.361)" fill="#f79622" opacity="0"/>
    <g id="my_leads_icon" transform="translate(5 5.361)">
      <path id="Path_10321" data-name="Path 10321" d="M27,7V25a3,3,0,0,1-3,3H9a3,3,0,0,1-3-3V7A3,3,0,0,1,9,4H24A3,3,0,0,1,27,7Z" transform="translate(-3 -4)" fill="none" stroke="#333" stroke-linecap="round" stroke-linejoin="round" stroke-width="1.5"/>
      <path id="Path_10322" data-name="Path 10322" d="M10,16h9" transform="translate(-1 2)" fill="none" stroke="#333" stroke-linecap="round" stroke-linejoin="round" stroke-width="1.5"/>
      <path id="Path_10323" data-name="Path 10323" d="M14,12m-3,0a3,3,0,1,0,3-3,3,3,0,0,0-3,3" transform="translate(-0.5 -1.5)" fill="none" stroke="#333" stroke-linecap="round" stroke-linejoin="round" stroke-width="1.5"/>
      <path id="Path_10324" data-name="Path 10324" d="M4,8H8.5" transform="translate(-4 -2)" fill="none" stroke="#333" stroke-linecap="round" stroke-linejoin="round" stroke-width="1.5"/>
      <path id="Path_10325" data-name="Path 10325" d="M4,12H8.5" transform="translate(-4 0)" fill="none" stroke="#333" stroke-linecap="round" stroke-linejoin="round" stroke-width="1.5"/>
      <path id="Path_10326" data-name="Path 10326" d="M4,16H8.5" transform="translate(-4 2)" fill="none" stroke="#333" stroke-linecap="round" stroke-linejoin="round" stroke-width="1.5"/>
    </g>
  </g>
</svg>
