<svg xmlns="http://www.w3.org/2000/svg" width="22" height="22" viewBox="0 0 22 22">
  <g id="Group_20534" data-name="Group 20534" transform="translate(-352 -132.964)">
    <path id="Path_-_Outline" data-name="Path - Outline" d="M4,1A3,3,0,0,0,1,4V18a3,3,0,0,0,3,3H18a3,3,0,0,0,3-3V4a3,3,0,0,0-3-3H4M4,0H18a4,4,0,0,1,4,4V18a4,4,0,0,1-4,4H4a4,4,0,0,1-4-4V4A4,4,0,0,1,4,0Z" transform="translate(352 132.964)" fill="#4658a7"/>
    <path id="Path" d="M11.233.186a.661.661,0,0,1,.919,0,.624.624,0,0,1,0,.9l-7.8,7.612a.661.661,0,0,1-.919,0L.19,5.523a.624.624,0,0,1,0-.9.661.661,0,0,1,.919,0L3.9,7.349Z" transform="translate(356.767 139.197)" fill="#4658a7"/>
    <path id="Path_-_Outline-2" data-name="Path - Outline" d="M11.693-.25a.9.9,0,0,1,.634.257.874.874,0,0,1,0,1.255l-7.8,7.612a.911.911,0,0,1-1.268,0L.016,5.7a.874.874,0,0,1,0-1.255A.9.9,0,0,1,.65,4.19a.9.9,0,0,1,.634.257L3.9,7,11.059.007A.9.9,0,0,1,11.693-.25ZM3.9,8.63a.4.4,0,0,0,.285-.115L11.977.9a.374.374,0,0,0,0-.539.411.411,0,0,0-.569,0L3.9,7.7.934,4.8a.411.411,0,0,0-.569,0,.374.374,0,0,0,0,.539L3.613,8.516A.4.4,0,0,0,3.9,8.63Z" transform="translate(356.767 139.197)" fill="#4658a7" stroke="#4658a7" stroke-width="0.5"/>
  </g>
</svg>
