<svg xmlns="http://www.w3.org/2000/svg" width="18" height="18" viewBox="0 0 18 18">
  <g id="document_icon" transform="translate(-24.043 -223.862)">
    <rect id="Rectangle_3945" data-name="Rectangle 3945" width="18" height="18" transform="translate(24.043 223.862)" fill="#8087b7" opacity="0"/>
    <path id="chat_FILL0_wght400_GRAD0_opsz48_2_" data-name="chat_FILL0_wght400_GRAD0_opsz48 (2)" d="M7.135,13.424h6.133V12.249H7.135Zm0-2.547h9.4V9.7h-9.4Zm0-2.547h9.4V7.154h-9.4ZM4,19.674V5.176a1.139,1.139,0,0,1,.353-.813A1.113,1.113,0,0,1,5.176,4H18.5a1.124,1.124,0,0,1,.813.362,1.124,1.124,0,0,1,.362.813V15.364A1.244,1.244,0,0,1,18.5,16.54H7.135Zm1.176-2.841,1.469-1.469H18.5V5.176H5.176Zm0-11.658v0Z" transform="translate(21.206 221.197)" fill="#333"/>
  </g>
</svg>
