<svg id="booth_chat" xmlns="http://www.w3.org/2000/svg" width="30" height="30" viewBox="0 0 30 30">
  <rect id="Rectangle_3949" data-name="Rectangle 3949" width="30" height="30" fill="#004141" opacity="0"/>
  <path id="chat_FILL0_wght400_GRAD0_opsz48_2_" data-name="chat_FILL0_wght400_GRAD0_opsz48 (2)" d="M8.1,16.334h8.026V14.8H8.1ZM8.1,13H20.411V11.462H8.1Zm0-3.333H20.411V8.128H8.1ZM4,24.513V5.539a1.49,1.49,0,0,1,.462-1.064A1.457,1.457,0,0,1,5.539,4H22.975a1.471,1.471,0,0,1,1.064.474,1.471,1.471,0,0,1,.474,1.064V18.872a1.628,1.628,0,0,1-1.539,1.539H8.1ZM5.539,20.8l1.923-1.923H22.975V5.539H5.539Zm0-15.257v0Z" transform="translate(0.743 0.412)" fill="#333"/>
</svg>
