<svg xmlns="http://www.w3.org/2000/svg" width="54" height="54" viewBox="0 0 54 54">
  <g id="connect_menu" transform="translate(-1.09 5.705)">
    <rect id="Rectangle_1" data-name="Rectangle 1" width="54" height="54" transform="translate(1.09 -5.705)" fill="#f79622" opacity="0"/>
    <g id="Group_5265" data-name="Group 5265" transform="translate(-15.688 -38.285)">
      <path id="Path_9954" data-name="Path 9954" d="M63.055,52.855a6.637,6.637,0,1,0-6.637-6.637A6.644,6.644,0,0,0,63.055,52.855Zm0-10.828a4.19,4.19,0,1,1-4.19,4.191A4.2,4.2,0,0,1,63.055,42.026Z" transform="translate(-8.369 0)" fill="#333" stroke="#f4f3f7" stroke-width="0.3"/>
      <path id="Path_9955" data-name="Path 9955" d="M58.051,59.966H51.658a5.96,5.96,0,0,0-5.477,3.661,11.337,11.337,0,0,1-2.041,3.082.335.335,0,0,1-.257.121h0a.328.328,0,0,1-.257-.121,11.26,11.26,0,0,1-2.044-3.076,5.966,5.966,0,0,0-5.474-3.667H29.674a5.9,5.9,0,0,0-5.9,5.9V73.05a1.977,1.977,0,0,0,1.974,1.975h1.917l.294,7.954a1.853,1.853,0,0,0,1.859,1.792h6.249a1.852,1.852,0,0,0,1.856-1.789l.336-9.148V72.075l2.4,2.7c.972,1.5,3.221,1.445,3.222,1.445a4.325,4.325,0,0,0,3.217-1.439l2.47-2.761.3,10.995a1.809,1.809,0,0,0,1.816,1.756h6.241a1.885,1.885,0,0,0,1.868-1.8l.294-7.946h1.851a1.834,1.834,0,0,0,1.831-1.832v-7.5A5.733,5.733,0,0,0,58.051,59.966Zm3.28,12.614h-1.8a1.853,1.853,0,0,0-1.858,1.791l-.3,7.956H52.3l-.277-8.491V69.719a1.569,1.569,0,0,0-2.736-1.045l-4,4.476c-.372.671-1.395.623-1.4.623a1.852,1.852,0,0,1-1.394-.626l-3.981-4.471a1.544,1.544,0,0,0-2.7,1.028V73.79L35.5,82.326H30.387l-.294-7.936a1.9,1.9,0,0,0-1.878-1.81H26.223V65.862a3.453,3.453,0,0,1,3.45-3.449H36.1a3.57,3.57,0,0,1,3.223,2.179,13.672,13.672,0,0,0,2.444,3.719,2.786,2.786,0,0,0,2.107.965h0a2.787,2.787,0,0,0,2.109-.972,13.656,13.656,0,0,0,2.439-3.723,3.566,3.566,0,0,1,3.226-2.17h2.087v3.85a1.223,1.223,0,0,0,2.446,0v-3.85h1.859a3.284,3.284,0,0,1,3.28,3.28v6.887Z" transform="translate(0 -5.227)" fill="#333" stroke="#f4f3f7" stroke-width="0.3"/>
      <path id="Path_9956" data-name="Path 9956" d="M27.358,46.218A6.637,6.637,0,1,0,34,39.58,6.644,6.644,0,0,0,27.358,46.218Zm10.827,0A4.19,4.19,0,1,1,34,42.027,4.195,4.195,0,0,1,38.185,46.218Z" transform="translate(-0.918 0)" fill="#333" stroke="#f4f3f7" stroke-width="0.3"/>
    </g>
  </g>
</svg>
