<svg id="document" xmlns="http://www.w3.org/2000/svg" width="22.364" height="22.364" viewBox="0 0 22.364 22.364">
  <g id="Rectangle_3989" data-name="Rectangle 3989" fill="#fff" stroke="#707070" stroke-width="1" opacity="0">
    <rect width="22.364" height="22.364" stroke="none"/>
    <rect x="0.5" y="0.5" width="21.364" height="21.364" fill="none"/>
  </g>
  <path id="description_FILL1_wght400_GRAD0_opsz48" d="M11.852,19.263h7.8V17.81h-7.8Zm0-4.119h7.8V13.691h-7.8Zm-2.4,8.237A1.49,1.49,0,0,1,8,21.928V5.454a1.4,1.4,0,0,1,.436-1.018A1.4,1.4,0,0,1,9.454,4H18.2l5.306,5.306V21.928a1.49,1.49,0,0,1-1.454,1.454ZM17.473,9.96h4.579L17.473,5.454Z" transform="translate(-4.273 -2.509)" fill="#333"/>
</svg>
