<svg xmlns="http://www.w3.org/2000/svg" width="100" height="22.339" viewBox="0 0 100 22.339">
  <g id="Group_4929" data-name="Group 4929" transform="translate(0)">
    <g id="Group_19977" data-name="Group 19977">
      <path id="Path_10091" data-name="Path 10091" d="M96.251,0H7.521A5.467,5.467,0,0,0,2.338,4.434L.064,17.905a3.648,3.648,0,0,0,3.685,4.434H92.48a5.467,5.467,0,0,0,5.183-4.434L99.937,4.434A3.648,3.648,0,0,0,96.251,0" transform="translate(0 0)" fill="#dcdcdd" opacity="0.7"/>
      <g id="Group_4948" data-name="Group 4948" transform="translate(7.143 4.988)">
        <path id="Path_10092" data-name="Path 10092" d="M57.172,33.97l-.8,3.986a.23.23,0,0,1-.392.117,2.741,2.741,0,0,0-.9-.635,4.323,4.323,0,0,0-1.794-.344,4.9,4.9,0,0,0-2.515.656,4.665,4.665,0,0,0-1.761,1.819,5.39,5.39,0,0,0-.639,2.638,4.029,4.029,0,0,0,.508,2.057A3.391,3.391,0,0,0,50.271,45.6a4.155,4.155,0,0,0,1.958.459,4.261,4.261,0,0,0,2.357-.659.232.232,0,0,1,.359.236l-.006.03a.232.232,0,0,0,.228.278h1.477a.232.232,0,0,0,.228-.187L59.2,34.06a.232.232,0,0,0-.228-.277H57.4a.232.232,0,0,0-.228.187m-1.806,8.752a2.87,2.87,0,0,1-1.073,1.164,2.91,2.91,0,0,1-1.54.418,2.36,2.36,0,0,1-1.7-.582,2.13,2.13,0,0,1-.606-1.614,3.642,3.642,0,0,1,.385-1.7A2.869,2.869,0,0,1,51.9,39.248a2.91,2.91,0,0,1,1.54-.418,2.363,2.363,0,0,1,1.7.581,2.131,2.131,0,0,1,.606,1.614,3.641,3.641,0,0,1-.385,1.7" transform="translate(-48.378 -33.783)" fill="#4b4b4b"/>
        <path id="Path_10093" data-name="Path 10093" d="M124.321,56.507a.234.234,0,0,0-.234-.277,5.894,5.894,0,0,0-1.686.274,3.116,3.116,0,0,0-.884.463.232.232,0,0,1-.372-.227l.028-.139a.232.232,0,0,0-.227-.278H119.47a.232.232,0,0,0-.228.187L117.6,64.8a.232.232,0,0,0,.228.277H119.4a.232.232,0,0,0,.228-.186l.831-4.123a2.863,2.863,0,0,1,3.031-2.638,2.572,2.572,0,0,1,.3.018.231.231,0,0,0,.251-.186Z" transform="translate(-107.373 -52.915)" fill="#4b4b4b"/>
        <path id="Path_10094" data-name="Path 10094" d="M163.527,55.413a5.171,5.171,0,0,0-2.4,1.186,4.638,4.638,0,0,0-1.378,2.165,5.344,5.344,0,0,0-.081,2.707,3.863,3.863,0,0,0,.938,1.868,3.469,3.469,0,0,0,1.75,1.007,5.16,5.16,0,0,0,2.335-.016,6.411,6.411,0,0,0,1.867-.711,4.428,4.428,0,0,0,1.267-1.07.233.233,0,0,0-.015-.3l-.811-.87a.229.229,0,0,0-.341,0,3.342,3.342,0,0,1-.8.681,4.106,4.106,0,0,1-1.328.528q-2.267.487-2.847-1.316a.235.235,0,0,1,.171-.3l6.363-1.367a.233.233,0,0,0,.185-.233,5.934,5.934,0,0,0-.131-1.053A3.658,3.658,0,0,0,166.61,55.8a4.13,4.13,0,0,0-3.083-.385m-1.7,4.17a.235.235,0,0,1-.279-.269,2.767,2.767,0,0,1,.626-1.364,2.816,2.816,0,0,1,1.605-.914,2.381,2.381,0,0,1,1.725.191,1.816,1.816,0,0,1,.846,1.124.235.235,0,0,1-.173.3Z" transform="translate(-143.119 -52.109)" fill="#4b4b4b"/>
        <path id="Path_10095" data-name="Path 10095" d="M231.242,56.486l-.113.6a.23.23,0,0,1-.394.117,3.44,3.44,0,0,0-2.685-1,4.9,4.9,0,0,0-2.515.656,4.709,4.709,0,0,0-1.77,1.827,5.345,5.345,0,0,0-.647,2.63,4.03,4.03,0,0,0,.508,2.057A3.39,3.39,0,0,0,225.01,64.7a4.156,4.156,0,0,0,1.958.459,4.271,4.271,0,0,0,2.37-.65.233.233,0,0,1,.361.235l0,.022a.232.232,0,0,0,.228.278H231.4a.232.232,0,0,0,.228-.187l1.645-8.286a.232.232,0,0,0-.228-.277H231.47a.232.232,0,0,0-.228.189m-1.127,5.341a2.949,2.949,0,0,1-1.073,1.164,2.9,2.9,0,0,1-1.548.418,2.361,2.361,0,0,1-1.7-.582,2.13,2.13,0,0,1-.606-1.614,3.581,3.581,0,0,1,.393-1.7,2.945,2.945,0,0,1,1.073-1.163,2.9,2.9,0,0,1,1.548-.418,2.363,2.363,0,0,1,1.7.581,2.131,2.131,0,0,1,.606,1.614,3.579,3.579,0,0,1-.393,1.7" transform="translate(-197.317 -52.889)" fill="#4b4b4b"/>
        <path id="Path_10096" data-name="Path 10096" d="M304.873,56.2a4.531,4.531,0,0,0-3.247,1.229.231.231,0,0,1-.354-.033,2.438,2.438,0,0,0-.922-.827A3.525,3.525,0,0,0,298.7,56.2a4.178,4.178,0,0,0-2.4.671.231.231,0,0,1-.356-.235l.012-.063a.232.232,0,0,0-.228-.275h-1.479a.232.232,0,0,0-.228.187l-1.645,8.286a.232.232,0,0,0,.228.277h1.576a.232.232,0,0,0,.227-.186l.88-4.353q.508-2.523,2.687-2.523,1.672,0,1.671,1.573a3.515,3.515,0,0,1-.065.688l-.911,4.523a.232.232,0,0,0,.227.278h1.575a.232.232,0,0,0,.227-.186l.88-4.369q.508-2.507,2.687-2.507,1.671,0,1.671,1.573a3.51,3.51,0,0,1-.066.688l-.911,4.523a.232.232,0,0,0,.227.278h1.574a.232.232,0,0,0,.228-.187l.93-4.663a5.356,5.356,0,0,0,.115-1.081,2.75,2.75,0,0,0-.844-2.163,3.356,3.356,0,0,0-2.318-.754" transform="translate(-256.346 -52.889)" fill="#4b4b4b"/>
        <path id="Path_10097" data-name="Path 10097" d="M408.7,63.106a3,3,0,0,1-1.36.3,2.385,2.385,0,0,1-1.721-.582,2.131,2.131,0,0,1-.606-1.614,3.582,3.582,0,0,1,.393-1.7,2.945,2.945,0,0,1,1.073-1.163,2.9,2.9,0,0,1,1.548-.418,2.246,2.246,0,0,1,2.071,1.019.233.233,0,0,0,.3.092l1.342-.69a.231.231,0,0,0,.1-.321,3.487,3.487,0,0,0-1.366-1.321A4.755,4.755,0,0,0,408.2,56.2a5.467,5.467,0,0,0-2.712.664,4.819,4.819,0,0,0-1.86,1.827,5.146,5.146,0,0,0-.672,2.622,3.822,3.822,0,0,0,.524,2.016,3.539,3.539,0,0,0,1.5,1.351,5.048,5.048,0,0,0,2.27.484,5.267,5.267,0,0,0,2.327-.516,4.138,4.138,0,0,0,1.534-1.239.231.231,0,0,0-.06-.328l-1.128-.76a.234.234,0,0,0-.314.053,2.707,2.707,0,0,1-.9.734" transform="translate(-350.599 -52.889)" fill="#4b4b4b"/>
        <path id="Path_10098" data-name="Path 10098" d="M470.226,56.486l-.113.6a.231.231,0,0,1-.394.117,3.44,3.44,0,0,0-2.685-1,4.9,4.9,0,0,0-2.515.656,4.708,4.708,0,0,0-1.77,1.827,5.344,5.344,0,0,0-.647,2.63,4.03,4.03,0,0,0,.508,2.057,3.39,3.39,0,0,0,1.385,1.335,4.156,4.156,0,0,0,1.958.459,4.271,4.271,0,0,0,2.37-.65.233.233,0,0,1,.361.235l0,.022a.232.232,0,0,0,.228.278h1.476a.232.232,0,0,0,.228-.187l1.645-8.286a.232.232,0,0,0-.228-.277h-1.573a.232.232,0,0,0-.228.189M469.1,61.827a2.949,2.949,0,0,1-1.073,1.164,2.9,2.9,0,0,1-1.548.418,2.361,2.361,0,0,1-1.7-.582,2.13,2.13,0,0,1-.606-1.614,3.581,3.581,0,0,1,.393-1.7,2.946,2.946,0,0,1,1.073-1.163,2.9,2.9,0,0,1,1.548-.418,2.363,2.363,0,0,1,1.7.581,2.131,2.131,0,0,1,.606,1.614,3.579,3.579,0,0,1-.393,1.7" transform="translate(-401.014 -52.889)" fill="#4b4b4b"/>
        <path id="Path_10099" data-name="Path 10099" d="M541.261,47.409h1.979a.232.232,0,0,0,.227-.186l.235-1.174a.232.232,0,0,0-.228-.278h-1.792a.232.232,0,0,1-.227-.279l.3-1.442a.232.232,0,0,0-.227-.279h-1.573a.232.232,0,0,0-.228.187l-.318,1.618a.23.23,0,0,1-.234.187c-.91-.031-4.7-.158-4.982-.158a5.185,5.185,0,0,0-3.023.795,2.5,2.5,0,0,0-1.139,2.154,1.816,1.816,0,0,0,.434,1.287,2.493,2.493,0,0,0,1.032.672,11.656,11.656,0,0,0,1.532.385,7.869,7.869,0,0,1,1.319.377.6.6,0,0,1,.418.574.847.847,0,0,1-.5.778,3.2,3.2,0,0,1-1.483.271,6.226,6.226,0,0,1-1.688-.229,4.515,4.515,0,0,1-1.161-.489.229.229,0,0,0-.32.09l-.63,1.164a.234.234,0,0,0,.087.311,5.22,5.22,0,0,0,1.378.554,8.16,8.16,0,0,0,2.122.27,5.385,5.385,0,0,0,3.048-.77,2.475,2.475,0,0,0,1.147-2.179,1.758,1.758,0,0,0-.426-1.245,2.472,2.472,0,0,0-1.016-.664,11.5,11.5,0,0,0-1.507-.385,7.687,7.687,0,0,1-1.352-.385.636.636,0,0,1-.435-.614.876.876,0,0,1,.5-.77,2.929,2.929,0,0,1,1.466-.3c.28,0,3.763.107,4.774.139a.231.231,0,0,1,.219.278l-.781,3.86a3.514,3.514,0,0,0-.065.688,2.2,2.2,0,0,0,.688,1.72,2.605,2.605,0,0,0,1.819.623,4.046,4.046,0,0,0,1.964-.436.232.232,0,0,0,.109-.257l-.249-1.039a.23.23,0,0,0-.325-.153,2.026,2.026,0,0,1-.894.2q-1.032,0-1.032-.983a3.444,3.444,0,0,1,.033-.377l.782-3.926a.232.232,0,0,1,.228-.187" transform="translate(-457.994 -42.296)" fill="#4b4b4b"/>
      </g>
    </g>
  </g>
</svg>
