<svg id="edit_icon" xmlns="http://www.w3.org/2000/svg" width="16.014" height="16.001" viewBox="0 0 16.014 16.001">
  <path id="edit_icon-2" data-name="edit_icon" d="M153.476,90.009,144.889,98.6a1.81,1.81,0,0,0-.428.721l-1.375,4.71a.8.8,0,0,0,.2.789.782.782,0,0,0,.563.225.769.769,0,0,0,.225-.022l4.71-1.375a1.81,1.81,0,0,0,.721-.428l8.609-8.609a3.272,3.272,0,0,0,.947-2.321,3.246,3.246,0,0,0-5.589-2.276ZM148.9,101.593,146.512,99.2l6.536-6.536,2.389,2.389Zm-3.178-.969,1.758,1.758L145,103.1ZM156.992,93.5l-.428.428-2.389-2.389.428-.428a1.687,1.687,0,0,1,2.389,0,1.7,1.7,0,0,1,0,2.389Z" transform="translate(-143.051 -89.04)" fill="#333"/>
</svg>
