<svg xmlns="http://www.w3.org/2000/svg" width="14" height="14.001" viewBox="0 0 14 14.001">
  <g id="icon_edit" transform="translate(-336 -33.999)">
    <path id="edit_icon" d="M152.165,89.888,144.658,97.4a1.584,1.584,0,0,0-.374.631l-1.2,4.121a.7.7,0,0,0,.177.69.684.684,0,0,0,.493.2.672.672,0,0,0,.2-.02l4.118-1.2a1.582,1.582,0,0,0,.631-.375l7.527-7.533a2.864,2.864,0,0,0,.828-2.031,2.838,2.838,0,0,0-4.886-1.992Zm-4,10.136-2.088-2.09,5.714-5.719,2.089,2.09Zm-2.778-.848,1.537,1.538-2.167.631Zm9.851-6.231-.374.375-2.088-2.09.374-.375a1.474,1.474,0,0,1,2.089,0,1.489,1.489,0,0,1,0,2.09Z" transform="translate(192.949 -55.041)" fill="#333"/>
  </g>
</svg>
