<svg xmlns="http://www.w3.org/2000/svg" width="54" height="54" viewBox="0 0 54 54">
  <g id="event_feed_menu" data-name="event feed_menu" transform="translate(-0.038 0.696)">
    <rect id="Rectangle_1" data-name="Rectangle 1" width="54" height="54" transform="translate(0.038 -0.696)" fill="#f79622" opacity="0"/>
    <path id="newspaper_FILL0_wght400_GRAD0_opsz48" d="M7,42a2.988,2.988,0,0,1-3-3V6L7.35,9.35,10.65,6,14,9.35,17.35,6l3.3,3.35L24,6l3.35,3.35L30.65,6,34,9.35,37.35,6l3.3,3.35L44,6V39a2.988,2.988,0,0,1-3,3Zm0-3H22.5V25H7Zm18.5,0H41V33.5H25.5Zm0-8.5H41V25H25.5ZM7,22H41V16H7Z" transform="translate(3.038 2.304)" fill="#333" stroke="#f4f3f7" stroke-width="0.7"/>
  </g>
</svg>
