<svg xmlns="http://www.w3.org/2000/svg" width="50" height="50" viewBox="0 0 50 50">
  <g id="my_badge" transform="translate(-1.813 5.318)">
    <rect id="Rectangle_1" data-name="Rectangle 1" width="50" height="50" transform="translate(1.813 -5.318)" fill="#f79622" opacity="0"/>
    <g id="Group_19881" data-name="Group 19881" transform="translate(11.813 4.421)">
      <path id="Path_10295" data-name="Path 10295" d="M4,4,4,7.75A3.75,3.75,0,0,1,7.75,4h22.5A3.75,3.75,0,0,1,34,7.75v22.5A3.75,3.75,0,0,1,30.25,34H7.75A3.75,3.75,0,0,1,4,30.25Z" transform="translate(-4 -4)" fill="none" stroke="#fff" stroke-linecap="round" stroke-linejoin="round" stroke-width="2"/>
      <path id="Path_10296" data-name="Path 10296" d="M12,4V34" transform="translate(3 -4)" fill="none" stroke="#fff" stroke-linecap="round" stroke-linejoin="round" stroke-width="2"/>
      <path id="Path_10297" data-name="Path 10297" d="M4,15H17.606" transform="translate(-4 5.625)" fill="none" stroke="#fff" stroke-linecap="round" stroke-linejoin="round" stroke-width="2"/>
      <path id="Path_10298" data-name="Path 10298" d="M12,12H25.606" transform="translate(4.394 3)" fill="none" stroke="#fff" stroke-linecap="round" stroke-linejoin="round" stroke-width="2"/>
      <path id="Path_10299" data-name="Path 10299" d="M16,12V25.606" transform="translate(6.5 4.394)" fill="none" stroke="#fff" stroke-linecap="round" stroke-linejoin="round" stroke-width="2"/>
      <path id="Path_10300" data-name="Path 10300" d="M16,16h6.8" transform="translate(7.197 6.5)" fill="none" stroke="#fff" stroke-linecap="round" stroke-linejoin="round" stroke-width="2"/>
    </g>
  </g>
</svg>
