<svg id="filter_new_icon" xmlns="http://www.w3.org/2000/svg" width="20.855" height="21.525" viewBox="0 0 20.855 21.525">
  <path id="filter_new_icon-2" data-name="filter_new_icon" d="M198.876-758.474a1.229,1.229,0,0,1-.905-.364,1.229,1.229,0,0,1-.364-.905v-8.306l-8.033-10.2a1.029,1.029,0,0,1-.12-1.148,1.021,1.021,0,0,1,.992-.6h18.627a1.021,1.021,0,0,1,.992.6,1.029,1.029,0,0,1-.12,1.148l-8.033,10.2v8.306a1.229,1.229,0,0,1-.364.905,1.229,1.229,0,0,1-.905.364Zm.883-10.332,7.1-9.04H192.656ZM199.759-768.806Z" transform="translate(-189.332 779.999)" fill="#333"/>
</svg>
