<svg xmlns="http://www.w3.org/2000/svg" width="34" height="34" viewBox="0 0 34 34">
  <g id="info_menu" transform="translate(0 -0.361)">
    <rect id="Rectangle_1" data-name="Rectangle 1" width="34" height="34" transform="translate(0 0.361)" fill="#f79622" opacity="0"/>
    <g id="info_icon" transform="translate(4 4.361)">
      <path id="info_icon-2" data-name="info_icon" d="M111.975-840.5h2.053v-7.868h-2.053ZM113-850.71a1.07,1.07,0,0,0,.787-.318,1.069,1.069,0,0,0,.318-.787,1.07,1.07,0,0,0-.318-.788,1.07,1.07,0,0,0-.787-.318,1.07,1.07,0,0,0-.787.318,1.07,1.07,0,0,0-.318.788,1.069,1.069,0,0,0,.318.787A1.07,1.07,0,0,0,113-850.71ZM113-834a12.664,12.664,0,0,1-5.07-1.024A13.131,13.131,0,0,1,103.8-837.8a13.126,13.126,0,0,1-2.78-4.127A12.652,12.652,0,0,1,100-847a12.664,12.664,0,0,1,1.024-5.07A13.133,13.133,0,0,1,103.8-856.2a13.126,13.126,0,0,1,4.127-2.779A12.652,12.652,0,0,1,113-860a12.664,12.664,0,0,1,5.07,1.024A13.132,13.132,0,0,1,122.2-856.2a13.125,13.125,0,0,1,2.78,4.127A12.652,12.652,0,0,1,126-847a12.664,12.664,0,0,1-1.024,5.07A13.132,13.132,0,0,1,122.2-837.8a13.124,13.124,0,0,1-4.127,2.779A12.651,12.651,0,0,1,113-834Zm0-2.053a10.566,10.566,0,0,0,7.766-3.182A10.566,10.566,0,0,0,123.948-847a10.566,10.566,0,0,0-3.182-7.766A10.566,10.566,0,0,0,113-857.946a10.566,10.566,0,0,0-7.766,3.182A10.566,10.566,0,0,0,102.054-847a10.566,10.566,0,0,0,3.182,7.766A10.566,10.566,0,0,0,113-836.052ZM113-847Z" transform="translate(-100.001 859.999)" fill="#333"/>
    </g>
  </g>
</svg>
