<svg xmlns="http://www.w3.org/2000/svg" width="18" height="18" viewBox="0 0 18 18">
  <path id="image_icon" d="M141.914-802a1.848,1.848,0,0,1-1.358-.556,1.848,1.848,0,0,1-.556-1.358v-14.172a1.848,1.848,0,0,1,.556-1.358,1.848,1.848,0,0,1,1.358-.556h14.172a1.848,1.848,0,0,1,1.358.556,1.847,1.847,0,0,1,.556,1.358v14.172a1.848,1.848,0,0,1-.556,1.358,1.848,1.848,0,0,1-1.358.556Zm0-1.588h14.172a.311.311,0,0,0,.224-.1.311.311,0,0,0,.1-.224v-14.172a.311.311,0,0,0-.1-.224.311.311,0,0,0-.224-.1H141.914a.311.311,0,0,0-.224.1.311.311,0,0,0-.1.224v14.172a.311.311,0,0,0,.1.224A.311.311,0,0,0,141.914-803.588Zm1.527-2.382h11.2l-3.482-4.642-2.973,3.869-2.118-2.708Zm-1.853,2.382v0Z" transform="translate(-140 820)" fill="#333"/>
</svg>
