<svg xmlns="http://www.w3.org/2000/svg" width="26" height="26" viewBox="0 0 26 26">
  <g id="photos" transform="translate(-0.054 -0.182)">
    <g id="Rectangle_3987" data-name="Rectangle 3987" transform="translate(0.054 0.182)" fill="#fff" stroke="#707070" stroke-width="1" opacity="0">
      <rect width="26" height="26" stroke="none"/>
      <rect x="0.5" y="0.5" width="25" height="25" fill="none"/>
    </g>
    <g id="Icon_ionic-ios-image" data-name="Icon ionic-ios-image" transform="translate(24.152 24.129) rotate(180)">
      <path id="Path_9447" data-name="Path 9447" d="M.29,0h9.865a.288.288,0,0,1,.233.455L5.453,8.39a.285.285,0,0,1-.471,0L.053.455A.29.29,0,0,1,.29,0Z" transform="translate(3.051 7.847)" fill="#8a8a8e"/>
      <path id="Path_9448" data-name="Path 9448" d="M.051,3.005,1.862.124A.28.28,0,0,1,2.094,0H4.846a.288.288,0,0,1,.233.455L1.893,4.992a.285.285,0,0,1-.471,0L.046,3.331A.3.3,0,0,1,.051,3.005Z" transform="translate(13.331 7.842)" fill="#8a8a8e"/>
      <path id="Path_9449" data-name="Path 9449" d="M1.595.008A1.448,1.448,0,1,1,.007,1.6,1.453,1.453,0,0,1,1.595.008Z" transform="translate(14.084 15.309)" fill="#8a8a8e"/>
      <path id="Path_9450" data-name="Path 9450" d="M19.864,21.519H1.655A1.654,1.654,0,0,1,0,19.864V1.655A1.654,1.654,0,0,1,1.655,0H19.864a1.654,1.654,0,0,1,1.655,1.655V19.864A1.654,1.654,0,0,1,19.864,21.519Zm-.14-14.484a.415.415,0,0,0-.414-.414H2.209a.415.415,0,0,0-.414.414V19.31a.415.415,0,0,0,.414.414H19.315a.415.415,0,0,0,.414-.414V7.035Z" transform="translate(0 0)" fill="#8a8a8e"/>
    </g>
  </g>
</svg>
