<svg xmlns="http://www.w3.org/2000/svg" width="42" height="42" viewBox="0 0 42 42">
  <g id="twitter" transform="translate(0 0.324)">
    <circle id="Ellipse_484" data-name="Ellipse 484" cx="21" cy="21" r="21" transform="translate(0 -0.324)" fill="#fff"/>
    <g id="info_icon" transform="translate(8 7.676)">
      <path id="info_icon-2" data-name="info_icon" d="M111.975-840.5h2.053v-7.868h-2.053ZM113-850.71a1.07,1.07,0,0,0,.787-.318,1.07,1.07,0,0,0,.318-.787,1.07,1.07,0,0,0-.318-.788,1.07,1.07,0,0,0-.787-.318,1.07,1.07,0,0,0-.787.318,1.07,1.07,0,0,0-.318.788,1.07,1.07,0,0,0,.318.787A1.07,1.07,0,0,0,113-850.71ZM113-834a12.664,12.664,0,0,1-5.07-1.024A13.131,13.131,0,0,1,103.8-837.8a13.125,13.125,0,0,1-2.78-4.127A12.652,12.652,0,0,1,100-847a12.665,12.665,0,0,1,1.024-5.07A13.132,13.132,0,0,1,103.8-856.2a13.127,13.127,0,0,1,4.127-2.78A12.653,12.653,0,0,1,113-860a12.664,12.664,0,0,1,5.07,1.024A13.131,13.131,0,0,1,122.2-856.2a13.126,13.126,0,0,1,2.78,4.127A12.652,12.652,0,0,1,126-847a12.664,12.664,0,0,1-1.024,5.07A13.131,13.131,0,0,1,122.2-837.8a13.124,13.124,0,0,1-4.127,2.779A12.651,12.651,0,0,1,113-834Zm0-2.053a10.566,10.566,0,0,0,7.766-3.182A10.565,10.565,0,0,0,123.948-847a10.566,10.566,0,0,0-3.182-7.766A10.565,10.565,0,0,0,113-857.946a10.566,10.566,0,0,0-7.766,3.182A10.566,10.566,0,0,0,102.054-847a10.566,10.566,0,0,0,3.182,7.766A10.566,10.566,0,0,0,113-836.052ZM113-847Z" transform="translate(-100.001 859.999)" fill="#333"/>
    </g>
  </g>
</svg>
