<svg id="location_icon" xmlns="http://www.w3.org/2000/svg" width="13.6" height="17" viewBox="0 0 13.6 17">
  <path id="location_icon-2" data-name="location_icon" d="M166.8-871.5a1.637,1.637,0,0,0,1.2-.5,1.637,1.637,0,0,0,.5-1.2,1.637,1.637,0,0,0-.5-1.2,1.637,1.637,0,0,0-1.2-.5,1.637,1.637,0,0,0-1.2.5,1.637,1.637,0,0,0-.5,1.2,1.637,1.637,0,0,0,.5,1.2A1.637,1.637,0,0,0,166.8-871.5Zm0,6.247a23.389,23.389,0,0,0,3.846-4.324,6.6,6.6,0,0,0,1.254-3.453,5.135,5.135,0,0,0-1.477-3.793A4.926,4.926,0,0,0,166.8-878.3a4.926,4.926,0,0,0-3.623,1.477,5.135,5.135,0,0,0-1.477,3.793,6.6,6.6,0,0,0,1.254,3.453A23.388,23.388,0,0,0,166.8-865.253Zm0,2.253a28.259,28.259,0,0,1-5.111-5.408A8.41,8.41,0,0,1,160-873.03a6.574,6.574,0,0,1,2.051-5.079A6.793,6.793,0,0,1,166.8-880a6.793,6.793,0,0,1,4.749,1.891,6.574,6.574,0,0,1,2.051,5.079,8.41,8.41,0,0,1-1.689,4.622A28.259,28.259,0,0,1,166.8-863ZM166.8-873.2Z" transform="translate(-160 880)" fill="#8a8a8e"/>
</svg>
