<svg xmlns="http://www.w3.org/2000/svg" xmlns:xlink="http://www.w3.org/1999/xlink" width="76" height="76" viewBox="0 0 76 76">
  <defs>
    <filter id="Rectangle_5206" x="0" y="0" width="76" height="76" filterUnits="userSpaceOnUse">
      <feOffset input="SourceAlpha"/>
      <feGaussianBlur stdDeviation="3" result="blur"/>
      <feFlood flood-opacity="0.078"/>
      <feComposite operator="in" in2="blur"/>
      <feComposite in="SourceGraphic"/>
    </filter>
  </defs>
  <g id="location" transform="translate(-269.164 -15.493)">
    <g transform="matrix(1, 0, 0, 1, 269.16, 15.49)" filter="url(#Rectangle_5206)">
      <rect id="Rectangle_5206-2" data-name="Rectangle 5206" width="58" height="58" rx="10" transform="translate(9 9)" fill="#fff"/>
    </g>
    <g id="location_icon" transform="translate(296.283 40.53)">
      <path id="location_icon-2" data-name="location_icon" d="M170.881-866.4a2.619,2.619,0,0,0,1.921-.8,2.619,2.619,0,0,0,.8-1.921,2.62,2.62,0,0,0-.8-1.921,2.62,2.62,0,0,0-1.921-.8,2.62,2.62,0,0,0-1.921.8,2.62,2.62,0,0,0-.8,1.921,2.619,2.619,0,0,0,.8,1.921A2.619,2.619,0,0,0,170.881-866.4Zm0,10a37.431,37.431,0,0,0,6.155-6.92,10.561,10.561,0,0,0,2.006-5.526,8.217,8.217,0,0,0-2.363-6.07,7.883,7.883,0,0,0-5.8-2.363,7.883,7.883,0,0,0-5.8,2.363,8.217,8.217,0,0,0-2.363,6.07,10.561,10.561,0,0,0,2.006,5.526A37.431,37.431,0,0,0,170.881-856.4Zm0,3.6a45.217,45.217,0,0,1-8.178-8.654,13.458,13.458,0,0,1-2.7-7.4,10.519,10.519,0,0,1,3.281-8.127,10.87,10.87,0,0,1,7.6-3.026,10.87,10.87,0,0,1,7.6,3.026,10.519,10.519,0,0,1,3.281,8.127,13.458,13.458,0,0,1-2.7,7.4A45.217,45.217,0,0,1,170.881-852.8ZM170.881-869.119Z" transform="translate(-160 880)" fill="#333"/>
    </g>
  </g>
</svg>
