<svg id="link_icon" xmlns="http://www.w3.org/2000/svg" width="20.46" height="15.991" viewBox="0 0 20.46 15.991">
  <path id="Path_10362" data-name="Path 10362" d="M16.285,15.618l-.227-.227a5.558,5.558,0,0,0-1.515-.909,4.944,4.944,0,0,0-5.226,1.136l-2.84,2.84A4.725,4.725,0,0,0,5,21.943a4.774,4.774,0,0,0,1.439,3.484,4.837,4.837,0,0,0,3.484,1.439,4.928,4.928,0,0,0,3.484-1.439l1.7-1.7a7.83,7.83,0,0,1-.947-.568L12.65,24.669A3.856,3.856,0,0,1,7.2,19.216l2.84-2.84a3.856,3.856,0,0,1,3.257-1.1h0a4.054,4.054,0,0,1,1.894.833h0a.885.885,0,0,1,.265.265A3.872,3.872,0,0,1,16.588,19.1a3.741,3.741,0,0,1-.682,2.159,3.061,3.061,0,0,0,1.023.417A4.819,4.819,0,0,0,16.285,15.618Zm7.726-3.295a4.914,4.914,0,0,0-6.968,0l-1.7,1.7a5.017,5.017,0,0,1,.947.606L17.8,13.119a3.856,3.856,0,1,1,5.453,5.453l-2.84,2.84a3.872,3.872,0,0,1-2.727,1.136,2.866,2.866,0,0,1-.568-.038h0a4.054,4.054,0,0,1-1.894-.833h0a1.647,1.647,0,0,1-.265-.227,3.9,3.9,0,0,1-.454-4.885,3.061,3.061,0,0,0-1.023-.417,4.932,4.932,0,0,0,.72,6.059l.227.227a5.558,5.558,0,0,0,1.515.909,4.944,4.944,0,0,0,5.226-1.136l2.84-2.84A5.005,5.005,0,0,0,24.011,12.324Z" transform="translate(-5 -10.875)" fill="#333"/>
</svg>
