<svg xmlns="http://www.w3.org/2000/svg" width="16" height="20" viewBox="0 0 16 20">
  <path id="location_session" d="M168-870a1.926,1.926,0,0,0,1.412-.587A1.926,1.926,0,0,0,170-872a1.926,1.926,0,0,0-.587-1.413A1.926,1.926,0,0,0,168-874a1.926,1.926,0,0,0-1.413.588A1.926,1.926,0,0,0,166-872a1.926,1.926,0,0,0,.588,1.413A1.926,1.926,0,0,0,168-870Zm0,7.35a27.517,27.517,0,0,0,4.525-5.088A7.764,7.764,0,0,0,174-871.8a6.041,6.041,0,0,0-1.738-4.462A5.8,5.8,0,0,0,168-878a5.8,5.8,0,0,0-4.262,1.737A6.041,6.041,0,0,0,162-871.8a7.764,7.764,0,0,0,1.475,4.063A27.518,27.518,0,0,0,168-862.65Zm0,2.65a33.243,33.243,0,0,1-6.013-6.363A9.894,9.894,0,0,1,160-871.8a7.733,7.733,0,0,1,2.413-5.975A7.991,7.991,0,0,1,168-880a7.991,7.991,0,0,1,5.587,2.225A7.733,7.733,0,0,1,176-871.8a9.894,9.894,0,0,1-1.988,5.438A33.243,33.243,0,0,1,168-860ZM168-872Z" transform="translate(-160 880)" fill="#333"/>
</svg>
