<svg xmlns="http://www.w3.org/2000/svg" width="34" height="34" viewBox="0 0 34 34">
  <g id="info_menu" transform="translate(0 -0.361)">
    <rect id="Rectangle_1" data-name="Rectangle 1" width="34" height="34" transform="translate(0 0.361)" fill="#f79622" opacity="0"/>
    <g id="noun-meeting-1144664" transform="translate(-239.721 -169.241)">
      <path id="Path_9691" data-name="Path 9691" d="M267.534,189.487a10.839,10.839,0,0,0-6.71-11.64,4.111,4.111,0,1,0-8.217,0,10.792,10.792,0,0,0-6.71,11.64,4.1,4.1,0,1,0,4.04,7.121,10.9,10.9,0,0,0,13.489,0,4.1,4.1,0,0,0,5.683-1.438,3.992,3.992,0,0,0-1.575-5.683Zm-10.818-14.516a2.739,2.739,0,1,1-2.739,2.739A2.746,2.746,0,0,1,256.716,174.971Zm-11.3,19.514a2.788,2.788,0,0,1,1.027-3.766,2.407,2.407,0,0,1,1.369-.342,2.756,2.756,0,0,1,1.369,5.135,2.787,2.787,0,0,1-3.766-1.027Zm5.614,1.233a4.1,4.1,0,0,0-3.766-6.642,9.537,9.537,0,0,1,5.683-9.86,4.126,4.126,0,0,0,7.668,0,9.463,9.463,0,0,1,5.683,9.86,4.121,4.121,0,0,0-3.834,6.642,9.765,9.765,0,0,1-11.435,0Zm16.981-1.233a2.788,2.788,0,0,1-3.766,1.027c-3.15-1.78-.411-6.573,2.739-4.725a2.691,2.691,0,0,1,1.027,3.7Z" transform="translate(0)" fill="#333"/>
    </g>
  </g>
</svg>
