<svg id="appointment" xmlns="http://www.w3.org/2000/svg" width="34" height="34" viewBox="0 0 34 34">
  <rect id="Rectangle_3950" data-name="Rectangle 3950" width="34" height="34" fill="#8087b7" opacity="0"/>
  <g id="poster_hall" transform="translate(-26.2 -417.019)">
    <rect id="Rectangle_3948" data-name="Rectangle 3948" width="28" height="28" transform="translate(29.2 420.019)" fill="#8087b7" opacity="0"/>
    <g id="Group_1910" data-name="Group 1910" transform="translate(31.109 422.019)">
      <path id="Path_9954" data-name="Path 9954" d="M60.32,47.384a3.9,3.9,0,1,0-3.9-3.9A3.906,3.906,0,0,0,60.32,47.384Zm0-6.366a2.463,2.463,0,1,1-2.463,2.464A2.466,2.466,0,0,1,60.32,41.018Z" transform="translate(-42.149 -39.58)" fill="#fff"/>
      <path id="Path_9955" data-name="Path 9955" d="M43.926,59.965H40.168a3.5,3.5,0,0,0-3.22,2.152,6.665,6.665,0,0,1-1.2,1.812A.2.2,0,0,1,35.6,64h0a.193.193,0,0,1-.151-.071,6.62,6.62,0,0,1-1.2-1.809,3.508,3.508,0,0,0-3.218-2.156H27.244a3.47,3.47,0,0,0-3.467,3.466v4.226a1.162,1.162,0,0,0,1.161,1.161h1.127l.173,4.676a1.089,1.089,0,0,0,1.093,1.054H31A1.089,1.089,0,0,0,32.1,73.5l.2-5.378V67.085l1.414,1.587a2.391,2.391,0,0,0,1.894.849,2.543,2.543,0,0,0,1.891-.846l1.452-1.623.176,6.464a1.064,1.064,0,0,0,1.068,1.032h3.669a1.108,1.108,0,0,0,1.1-1.058l.173-4.671h1.088a1.078,1.078,0,0,0,1.077-1.077V63.332A3.371,3.371,0,0,0,43.926,59.965Zm1.928,7.416H44.8A1.089,1.089,0,0,0,43.7,68.434l-.174,4.677H40.547l-.163-4.992V65.7a.922.922,0,0,0-1.609-.615l-2.354,2.632c-.219.394-.82.366-.821.366a1.089,1.089,0,0,1-.82-.368L32.44,65.086a.908.908,0,0,0-1.586.6v2.4l-.184,5.018H27.663l-.173-4.666a1.116,1.116,0,0,0-1.1-1.064H25.215V63.432A2.03,2.03,0,0,1,27.243,61.4h3.782a2.1,2.1,0,0,1,1.9,1.281,8.038,8.038,0,0,0,1.437,2.187,1.638,1.638,0,0,0,1.238.567h0a1.639,1.639,0,0,0,1.24-.571,8.029,8.029,0,0,0,1.434-2.189,2.1,2.1,0,0,1,1.9-1.276h1.227v2.264a.719.719,0,1,0,1.438,0V61.4h1.093a1.931,1.931,0,0,1,1.928,1.928v4.049Z" transform="translate(-23.777 -51.054)" fill="#fff"/>
      <path id="Path_9956" data-name="Path 9956" d="M27.358,43.483a3.9,3.9,0,1,0,3.9-3.9A3.906,3.906,0,0,0,27.358,43.483Zm6.365,0a2.463,2.463,0,1,1-2.463-2.464A2.466,2.466,0,0,1,33.723,43.483Z" transform="translate(-25.793 -39.58)" fill="#fff"/>
    </g>
  </g>
</svg>
