<svg id="platform_notification" xmlns="http://www.w3.org/2000/svg" width="22" height="22" viewBox="0 0 22 22">
  <g id="Group_1675" data-name="Group 1675">
    <g id="Group_1673" data-name="Group 1673">
      <g id="Group_1672" data-name="Group 1672">
        <path id="Path_9729" data-name="Path 9729" d="M11,0A11,11,0,1,0,22,11,11,11,0,0,0,11,0Z" fill="#8a8a8e"/>
        <path id="notifications_FILL0_wght300_GRAD0_opsz24" d="M180-847.181v-1.173h1.414v-5.837a4.33,4.33,0,0,1,.974-2.791,4.317,4.317,0,0,1,2.5-1.551v-.487a.943.943,0,0,1,.285-.693.942.942,0,0,1,.692-.285.945.945,0,0,1,.693.285.942.942,0,0,1,.286.693v.487a4.317,4.317,0,0,1,2.5,1.551,4.33,4.33,0,0,1,.974,2.791v5.837h1.414v1.173ZM185.868-852.913Zm0,7.928a1.359,1.359,0,0,1-1-.415,1.363,1.363,0,0,1-.414-1h2.828a1.36,1.36,0,0,1-.416,1A1.365,1.365,0,0,1,185.867-844.985Zm-3.278-3.37h6.559v-5.837a3.16,3.16,0,0,0-.961-2.319,3.16,3.16,0,0,0-2.319-.961,3.16,3.16,0,0,0-2.319.961,3.16,3.16,0,0,0-.961,2.319Z" transform="translate(-174.868 863.492)" fill="#fff"/>
      </g>
    </g>
  </g>
</svg>
