<svg xmlns="http://www.w3.org/2000/svg" width="22" height="22" viewBox="0 0 22 22">
  <path id="emoji_icon" d="M18.082,12.936a1.485,1.485,0,0,0,1.075-.425,1.45,1.45,0,0,0,.438-1.088,1.539,1.539,0,1,0-1.513,1.513Zm-7.59,0a1.513,1.513,0,1,0-1.075-2.6,1.45,1.45,0,0,0-.438,1.088,1.454,1.454,0,0,0,1.513,1.513Zm3.795,7.139a5.843,5.843,0,0,0,3.291-.982A5.415,5.415,0,0,0,19.7,16.439H8.873a5.811,5.811,0,0,0,5.414,3.636Zm0,5.175a10.629,10.629,0,0,1-4.273-.862,11.132,11.132,0,0,1-5.852-5.852A10.629,10.629,0,0,1,3.3,14.263a10.7,10.7,0,0,1,.862-4.3A11.114,11.114,0,0,1,6.511,6.488,11.259,11.259,0,0,1,10,4.126a10.583,10.583,0,0,1,4.286-.876,10.648,10.648,0,0,1,4.312.876,11.035,11.035,0,0,1,5.825,5.825,10.648,10.648,0,0,1,.876,4.312,10.583,10.583,0,0,1-.876,4.286,11.259,11.259,0,0,1-2.362,3.49,11.114,11.114,0,0,1-3.476,2.349A10.7,10.7,0,0,1,14.287,25.25ZM14.287,14.263Zm0,8.89a8.577,8.577,0,0,0,6.3-2.587,8.577,8.577,0,0,0,2.587-6.3,8.577,8.577,0,0,0-2.587-6.3,8.577,8.577,0,0,0-6.3-2.587A8.613,8.613,0,0,0,8,7.947a8.512,8.512,0,0,0-2.6,6.29A8.6,8.6,0,0,0,8,20.553,8.568,8.568,0,0,0,14.287,23.153Z" transform="translate(-3.3 -3.25)" fill="#8a8a8e"/>
</svg>
