<svg xmlns="http://www.w3.org/2000/svg" width="18" height="18" viewBox="0 0 18 18">
  <g id="document_icon" transform="translate(-24.044 -223.862)">
    <rect id="Rectangle_3945" data-name="Rectangle 3945" width="18" height="18" transform="translate(24.044 223.862)" fill="#8087b7" opacity="0"/>
    <path id="noun-product-3164203" d="M122.8,40.226l-2.076-4.159A1.928,1.928,0,0,0,118.993,35h-9.977a1.928,1.928,0,0,0-1.729,1.067l-2.076,4.159a1.929,1.929,0,0,0-.206.862v9.983A1.928,1.928,0,0,0,106.933,53h14.143A1.928,1.928,0,0,0,123,51.071V41.087a1.93,1.93,0,0,0-.206-.862Zm-3.214-3.587,1.736,3.5h-4.243l-.964-3.857h2.88a.643.643,0,0,1,.579.354Zm-7.509,4.789h3.857v4.5l-1.543-1.157a.643.643,0,0,0-.771,0l-1.543,1.157Zm2.713-5.143.964,3.857h-3.594l.482-3.857Zm-6.351.354h0a.643.643,0,0,1,.579-.354h2.333l-.482,3.857h-4.179Zm13.281,14.432a.643.643,0,0,1-.643.643H106.933a.643.643,0,0,1-.643-.643V41.428h4.5v5.786a.63.63,0,0,0,1,.514L114,46.089l2.186,1.639a.642.642,0,0,0,.386.129.585.585,0,0,0,.289-.071.643.643,0,0,0,.354-.572V41.428h4.5Zm-1.929-1.929a.643.643,0,1,1,0,1.286h-2.571a.643.643,0,1,1,0-1.286Z" transform="translate(-80.96 188.862)" fill="#004141"/>
  </g>
</svg>
