<svg xmlns="http://www.w3.org/2000/svg" width="34" height="34" viewBox="0 0 34 34">
  <g id="floor_plan_menu" transform="translate(0 0.049)">
    <rect id="Rectangle_1" data-name="Rectangle 1" width="34" height="34" transform="translate(0 -0.049)" fill="#f79622" opacity="0"/>
    <path id="polls_icon" d="M3.385,24A3.385,3.385,0,0,1,0,20.615V3.386A3.386,3.386,0,0,1,3.385,0H20.615A3.386,3.386,0,0,1,24,3.386v17.23A3.385,3.385,0,0,1,20.615,24ZM2,3.386v17.23A1.4,1.4,0,0,0,3.385,22H20.615A1.4,1.4,0,0,0,22,20.615V3.386A1.4,1.4,0,0,0,20.615,2H3.385A1.4,1.4,0,0,0,2,3.386Zm14.046,14.93a.507.507,0,0,1-.506-.5V11.849a.508.508,0,0,1,.506-.506h2.1a.508.508,0,0,1,.506.506v5.962a.507.507,0,0,1-.506.5Zm-5.078,0a.507.507,0,0,1-.506-.5V6.19a.507.507,0,0,1,.506-.5h2.1a.542.542,0,0,1,.5.5V17.811a.506.506,0,0,1-.5.5Zm-5.1,0a.507.507,0,0,1-.506-.5V9.146a.507.507,0,0,1,.506-.506h2.1a.507.507,0,0,1,.5.506v8.666a.506.506,0,0,1-.5.5Z" transform="translate(5 4.951)" fill="#333"/>
  </g>
</svg>
