<svg xmlns="http://www.w3.org/2000/svg" width="18" height="18" viewBox="0 0 18 18">
  <g id="document_icon" transform="translate(-24.043 -223.862)">
    <rect id="Rectangle_3945" data-name="Rectangle 3945" width="18" height="18" transform="translate(24.043 223.862)" fill="#8087b7" opacity="0"/>
    <path id="polls_icon" d="M1.975,14A1.975,1.975,0,0,1,0,12.026V1.975A1.975,1.975,0,0,1,1.975,0h10.05A1.975,1.975,0,0,1,14,1.975V12.026A1.975,1.975,0,0,1,12.025,14ZM1.164,1.975V12.026a.818.818,0,0,0,.811.811h10.05a.818.818,0,0,0,.811-.811V1.975a.818.818,0,0,0-.811-.811H1.975A.818.818,0,0,0,1.164,1.975Zm8.194,8.709a.3.3,0,0,1-.295-.294V6.912a.3.3,0,0,1,.295-.295h1.223a.3.3,0,0,1,.295.295V10.39a.3.3,0,0,1-.295.294Zm-2.962,0A.3.3,0,0,1,6.1,10.39V3.611A.3.3,0,0,1,6.4,3.316H7.619a.316.316,0,0,1,.294.294V10.39a.3.3,0,0,1-.294.294Zm-2.977,0a.3.3,0,0,1-.295-.294V5.335a.3.3,0,0,1,.295-.295H4.642a.3.3,0,0,1,.294.295V10.39a.3.3,0,0,1-.294.294Z" transform="translate(26.043 225.862)" fill="#333"/>
  </g>
</svg>
