<svg xmlns="http://www.w3.org/2000/svg" width="78" height="78" viewBox="0 0 78 78">
  <g id="Group_20470" data-name="Group 20470" transform="translate(-139 -36)">
    <circle id="Ellipse_2918" data-name="Ellipse 2918" cx="39" cy="39" r="39" transform="translate(139 36)" fill="#f4f3f7"/>
    <path id="question_mark" d="M290.115-798.1a15.3,15.3,0,0,1,.883-5.871,13.972,13.972,0,0,1,3.689-4.516A22.212,22.212,0,0,0,298-812.014a6.037,6.037,0,0,0,1.127-3.589,5.916,5.916,0,0,0-1.813-4.425,6.857,6.857,0,0,0-4.992-1.763,6.247,6.247,0,0,0-4.516,1.554,10.821,10.821,0,0,0-2.453,3.47l-4.121-1.811a12.845,12.845,0,0,1,4.108-5.409,11.055,11.055,0,0,1,6.982-2.164q5.471,0,8.422,3.085a10.235,10.235,0,0,1,2.951,7.323,9.316,9.316,0,0,1-1.148,4.675,18.5,18.5,0,0,1-3.485,4.219,15.77,15.77,0,0,0-3.641,4.253,11.325,11.325,0,0,0-.7,4.5h-4.6Zm2.205,12.94a3.258,3.258,0,0,1-2.386-1,3.258,3.258,0,0,1-1-2.386,3.258,3.258,0,0,1,1-2.386,3.258,3.258,0,0,1,2.386-1,3.258,3.258,0,0,1,2.386,1,3.258,3.258,0,0,1,1,2.386,3.258,3.258,0,0,1-1,2.386A3.258,3.258,0,0,1,292.32-785.159Z" transform="translate(-113.984 880.423)" fill="#8a8a8e"/>
  </g>
</svg>
