<svg xmlns="http://www.w3.org/2000/svg" width="34" height="34" viewBox="0 0 34 34">
  <g id="resource_center_menu" transform="translate(0 -0.361)">
    <rect id="Rectangle_1" data-name="Rectangle 1" width="34" height="34" transform="translate(0 0.361)" fill="#f79622" opacity="0"/>
    <g id="link_icon" transform="translate(0 4.361)">
      <path id="Path_10362" data-name="Path 10362" d="M23.754,18.757l-.378-.378a9.236,9.236,0,0,0-2.517-1.51,8.216,8.216,0,0,0-8.685,1.888l-4.72,4.72A7.852,7.852,0,0,0,5,29.267a7.934,7.934,0,0,0,2.391,5.79,8.037,8.037,0,0,0,5.79,2.391,8.189,8.189,0,0,0,5.79-2.391L21.8,32.225a13.012,13.012,0,0,1-1.573-.944L17.713,33.8A6.408,6.408,0,0,1,8.65,24.736l4.72-4.72a6.407,6.407,0,0,1,5.412-1.825h0a6.737,6.737,0,0,1,3.147,1.385h0a1.47,1.47,0,0,1,.441.441,6.434,6.434,0,0,1,1.888,4.531,6.216,6.216,0,0,1-1.133,3.587,5.087,5.087,0,0,0,1.7.692A8.009,8.009,0,0,0,23.754,18.757Zm12.839-5.475a8.167,8.167,0,0,0-11.58,0l-2.832,2.832a8.337,8.337,0,0,1,1.573,1.007L26.272,14.6a6.408,6.408,0,1,1,9.062,9.062l-4.72,4.72a6.434,6.434,0,0,1-4.531,1.888,4.763,4.763,0,0,1-.944-.063h0a6.737,6.737,0,0,1-3.147-1.385h0a2.737,2.737,0,0,1-.441-.378,6.476,6.476,0,0,1-.755-8.118,5.087,5.087,0,0,0-1.7-.692,8.2,8.2,0,0,0,1.2,10.069l.378.378a9.236,9.236,0,0,0,2.517,1.51,8.216,8.216,0,0,0,8.685-1.888l4.72-4.72A8.318,8.318,0,0,0,36.593,13.282Z" transform="translate(-5 -10.875)" fill="#333"/>
    </g>
  </g>
</svg>
