<svg id="search_icon" xmlns="http://www.w3.org/2000/svg" width="18.783" height="18.783" viewBox="0 0 18.783 18.783">
  <path id="search_icon-2" data-name="search_icon" d="M23.406,24.733l-4.477-4.477a6.9,6.9,0,0,1-2.191,1.268,7.748,7.748,0,0,1-2.661.454A7.8,7.8,0,0,1,8.348,19.63,7.721,7.721,0,0,1,6,13.964,7.721,7.721,0,0,1,8.348,8.3a7.758,7.758,0,0,1,5.7-2.348A7.67,7.67,0,0,1,19.7,8.3a7.747,7.747,0,0,1,2.332,5.666,7.809,7.809,0,0,1-.438,2.6,7.946,7.946,0,0,1-1.315,2.348l4.508,4.445ZM14.045,20.1a5.859,5.859,0,0,0,4.32-1.8,5.936,5.936,0,0,0,1.784-4.336,5.936,5.936,0,0,0-1.784-4.336,5.859,5.859,0,0,0-4.32-1.8,5.946,5.946,0,0,0-4.367,1.8,5.91,5.91,0,0,0-1.8,4.336,5.91,5.91,0,0,0,1.8,4.336,5.946,5.946,0,0,0,4.367,1.8Z" transform="translate(-6 -5.95)" fill="#333"/>
</svg>
