<svg xmlns="http://www.w3.org/2000/svg" width="54" height="54" viewBox="0 0 54 54">
  <g id="mna_bridge_menu" transform="translate(-1.197 5.803)">
    <rect id="Rectangle_4064" data-name="Rectangle 4064" width="54" height="54" transform="translate(1.197 -5.803)" fill="#f79622" opacity="0"/>
    <g id="noun-group-6450155" transform="translate(-8.803 -15.763)">
      <path id="Path_10401" data-name="Path 10401" d="M62.507,34.054a7.547,7.547,0,1,0-7.547-7.547A7.554,7.554,0,0,0,62.507,34.054Zm0-11.611a4.064,4.064,0,1,1-4.064,4.064A4.068,4.068,0,0,1,62.507,22.443Z" transform="translate(-15.083)" fill="#333" stroke="#f4f3f7" stroke-width="0.5"/>
      <path id="Path_10402" data-name="Path 10402" d="M31.772,19.04a39.051,39.051,0,0,0-5.051.209A8.581,8.581,0,0,0,21.554,21.6a8.71,8.71,0,0,0-2.345,5.155A39.291,39.291,0,0,0,19,31.818a1.742,1.742,0,1,0,3.483,0,36.892,36.892,0,0,1,.174-4.586,5.167,5.167,0,0,1,1.358-3.17,5.129,5.129,0,0,1,3.164-1.353,36.791,36.791,0,0,1,4.586-.174,1.742,1.742,0,1,0,0-3.483Z" transform="translate(0 -0.034)" fill="#333" stroke="#f4f3f7" stroke-width="0.5"/>
      <path id="Path_10403" data-name="Path 10403" d="M68.776,56.036a1.747,1.747,0,0,0-1.742,1.742,36.891,36.891,0,0,1-.174,4.586,4.633,4.633,0,0,1-4.522,4.522,36.893,36.893,0,0,1-4.586.174,1.742,1.742,0,1,0,0,3.483,39.148,39.148,0,0,0,5.051-.209,8.6,8.6,0,0,0,5.167-2.351,8.71,8.71,0,0,0,2.345-5.155,39.294,39.294,0,0,0,.209-5.057,1.747,1.747,0,0,0-1.742-1.742Z" transform="translate(-15.524 -15.549)" fill="#333" stroke="#f4f3f7" stroke-width="0.5"/>
      <path id="Path_10404" data-name="Path 10404" d="M27.507,54.96c-2.322,0-3.721,0-4.935.7a5.212,5.212,0,0,0-1.91,1.916c-.7,1.213-.7,2.612-.7,4.935s0,3.721.7,4.935a5.2,5.2,0,0,0,1.91,1.91c1.213.7,2.612.7,4.935.7s3.721,0,4.935-.7a5.169,5.169,0,0,0,1.91-1.916c.7-1.213.7-2.612.7-4.935s0-3.721-.7-4.935a5.2,5.2,0,0,0-1.91-1.91C31.229,54.96,29.829,54.96,27.507,54.96ZM31.339,65.7a1.728,1.728,0,0,1-.639.639c-.354.2-1.033.232-3.193.232-2.026,0-2.821-.023-3.193-.232a1.8,1.8,0,0,1-.639-.633c-.215-.372-.232-1.173-.232-3.193,0-2.16.029-2.845.232-3.193a1.686,1.686,0,0,1,.639-.639c.372-.215,1.167-.232,3.193-.232s2.821.023,3.193.232a1.8,1.8,0,0,1,.639.633c.215.372.232,1.173.232,3.193,0,2.16-.029,2.839-.232,3.193Z" transform="translate(-0.403 -15.1)" fill="#333" stroke="#f4f3f7" stroke-width="0.5"/>
    </g>
  </g>
</svg>
