<svg xmlns="http://www.w3.org/2000/svg" width="54" height="54" viewBox="0 0 54 54">
  <g id="session" transform="translate(-0.038 -1.304)">
    <rect id="Rectangle_1" data-name="Rectangle 1" width="54" height="54" transform="translate(0.038 1.304)" fill="#f79622" opacity="0"/>
    <path id="Path_10428" data-name="Path 10428" d="M33.273,7H14.727A7.734,7.734,0,0,0,7,14.727V28.636a1.545,1.545,0,1,0,3.091,0V19.364H37.909V33.273a4.642,4.642,0,0,1-4.636,4.636H16.223l4.324-5.193a1.545,1.545,0,0,0-2.371-1.981l-6.438,7.727a1.545,1.545,0,0,0,0,1.981l6.438,7.727a1.559,1.559,0,0,0,1.187.556,1.544,1.544,0,0,0,1.184-2.535L16.223,41H33.273A7.734,7.734,0,0,0,41,33.273V14.727A7.734,7.734,0,0,0,33.273,7ZM10.091,16.273V14.727a4.642,4.642,0,0,1,4.636-4.636H33.273a4.642,4.642,0,0,1,4.636,4.636v1.545Z" transform="translate(2.038 -0.696)" fill="#333" stroke="#f4f3f7" stroke-width="0.5"/>
  </g>
</svg>
