<svg xmlns="http://www.w3.org/2000/svg" width="32" height="32" viewBox="0 0 32 32">
  <g id="dates" transform="translate(-7)">
    <rect id="Rectangle_1" data-name="Rectangle 1" width="32" height="32" transform="translate(7)" fill="#f79622" opacity="0"/>
    <g id="Group_4743" data-name="Group 4743" transform="translate(2.32 -4)">
      <path id="Path_64" data-name="Path 64" d="M99.957,48.037V35.2h18.08V38.42a8.487,8.487,0,0,1,1.954.5V31.639a1.438,1.438,0,0,0-1.437-1.438h-2.228V29.033A1.012,1.012,0,0,0,115.4,28a.975.975,0,0,0-1.027.973V30.2h-10.76V29.033A1.012,1.012,0,0,0,102.694,28a.975.975,0,0,0-1.027.973V30.2H99.44A1.438,1.438,0,0,0,98,31.639V48.554a1.437,1.437,0,0,0,1.437,1.437h9.479a8.489,8.489,0,0,1-.5-1.954ZM114.377,31.45V31.8h0a.975.975,0,1,0,1.949,0V31.45h0a1.588,1.588,0,1,1-1.949,0Zm-12.71,0V31.8h0a.975.975,0,0,0,1.949,0V31.45h0a1.588,1.588,0,1,1-1.949,0Zm15.244,8.37a7.091,7.091,0,1,0,5.014,2.077,7.091,7.091,0,0,0-5.014-2.077Zm3.349,5.693-2.911,1.929a.756.756,0,0,1-.952-.1l-2.963-2.96L113.05,44h0a.677.677,0,1,1,.957-.959l.384.382,2.615,2.612,2.5-1.658h0a.679.679,0,0,1,.75,1.132Z" transform="translate(-90.323 -21.003)" fill="#333"/>
      <rect id="Rectangle_2" data-name="Rectangle 2" width="6.882" height="1.529" transform="translate(12.86 16.001)" fill="#333"/>
      <rect id="Rectangle_3" data-name="Rectangle 3" width="3.824" height="1.529" transform="translate(12.57 20.002)" fill="#333"/>
    </g>
  </g>
</svg>
