<svg id="save_to_phone" data-name="save to phone" xmlns="http://www.w3.org/2000/svg" width="22" height="21.232" viewBox="0 0 22 21.232">
  <g id="Group_19848" data-name="Group 19848">
    <path id="Path_10536" data-name="Path 10536" d="M28.959,40.232H21.767A3.767,3.767,0,0,1,18,36.465v-13.7A3.767,3.767,0,0,1,21.767,19H29.3a3.767,3.767,0,0,1,3.767,3.767v8.561H31.013V22.767A1.712,1.712,0,0,0,29.3,21.055H21.767a1.712,1.712,0,0,0-1.712,1.712v13.7a1.712,1.712,0,0,0,1.712,1.712h7.192Z" transform="translate(-18 -19)" fill="#36597f"/>
    <path id="Path_10537" data-name="Path 10537" d="M35.818,26.055H33.661a1.027,1.027,0,0,1-.918-.568L32,24h5.479l-.743,1.486a1.027,1.027,0,0,1-.918.568Z" transform="translate(-27.206 -22.288)" fill="#36597f"/>
  </g>
  <path id="Path_10538" data-name="Path 10538" d="M62.849,67.849H57.027A1.027,1.027,0,0,1,56,66.822V61h2.055v4.794h4.794Z" transform="translate(-42.987 -46.617)" fill="#36597f"/>
  <rect id="Rectangle_5242" data-name="Rectangle 5242" width="9.318" height="2.055" transform="translate(13.958 18.836) rotate(-45)" fill="#36597f"/>
</svg>
