<svg xmlns="http://www.w3.org/2000/svg" width="17.5" height="17.5" viewBox="0 0 17.5 17.5">
  <g id="scanned" transform="translate(0.75 0.75)">
    <path id="Path_10028" data-name="Path 10028" d="M4,4,4,5A1,1,0,0,1,5,4H9a1,1,0,0,1,1,1V9a1,1,0,0,1-1,1H5A1,1,0,0,1,4,9Z" transform="translate(-4 -4)" fill="none" stroke="#8a8a8e" stroke-linecap="round" stroke-linejoin="round" stroke-width="1.5"/>
    <path id="Path_10029" data-name="Path 10029" d="M7,17v.01" transform="translate(-4 -4)" fill="none" stroke="#8a8a8e" stroke-linecap="round" stroke-linejoin="round" stroke-width="1.5"/>
    <path id="Path_10030" data-name="Path 10030" d="M14,4m0,1a1,1,0,0,1,1-1h4a1,1,0,0,1,1,1V9a1,1,0,0,1-1,1H15a1,1,0,0,1-1-1Z" transform="translate(-4 -4)" fill="none" stroke="#8a8a8e" stroke-linecap="round" stroke-linejoin="round" stroke-width="1.5"/>
    <path id="Path_10031" data-name="Path 10031" d="M7,7v.01" transform="translate(-4 -4)" fill="none" stroke="#8a8a8e" stroke-linecap="round" stroke-linejoin="round" stroke-width="1.5"/>
    <path id="Path_10032" data-name="Path 10032" d="M4,14m0,1a1,1,0,0,1,1-1H9a1,1,0,0,1,1,1v4a1,1,0,0,1-1,1H5a1,1,0,0,1-1-1Z" transform="translate(-4 -4)" fill="none" stroke="#8a8a8e" stroke-linecap="round" stroke-linejoin="round" stroke-width="1.5"/>
    <path id="Path_10033" data-name="Path 10033" d="M17,7v.01" transform="translate(-4 -4)" fill="none" stroke="#8a8a8e" stroke-linecap="round" stroke-linejoin="round" stroke-width="1.5"/>
    <path id="Path_10034" data-name="Path 10034" d="M14,14h3" transform="translate(-4 -4)" fill="none" stroke="#8a8a8e" stroke-linecap="round" stroke-linejoin="round" stroke-width="1.5"/>
    <path id="Path_10035" data-name="Path 10035" d="M20,14v.01" transform="translate(-4 -4)" fill="none" stroke="#8a8a8e" stroke-linecap="round" stroke-linejoin="round" stroke-width="1.5"/>
    <path id="Path_10036" data-name="Path 10036" d="M14,14v3" transform="translate(-4 -4)" fill="none" stroke="#8a8a8e" stroke-linecap="round" stroke-linejoin="round" stroke-width="1.5"/>
    <path id="Path_10037" data-name="Path 10037" d="M14,20h3" transform="translate(-4 -4)" fill="none" stroke="#8a8a8e" stroke-linecap="round" stroke-linejoin="round" stroke-width="1.5"/>
    <path id="Path_10038" data-name="Path 10038" d="M17,17h3" transform="translate(-4 -4)" fill="none" stroke="#8a8a8e" stroke-linecap="round" stroke-linejoin="round" stroke-width="1.5"/>
    <path id="Path_10039" data-name="Path 10039" d="M20,17v3" transform="translate(-4 -4)" fill="none" stroke="#8a8a8e" stroke-linecap="round" stroke-linejoin="round" stroke-width="1.5"/>
  </g>
</svg>
