<svg xmlns="http://www.w3.org/2000/svg" width="30" height="50" viewBox="0 0 30 50">
  <path id="update_app" d="M244.039-830a3.912,3.912,0,0,1-2.883-1.156A3.912,3.912,0,0,1,240-834.039v-41.922a3.912,3.912,0,0,1,1.156-2.883A3.912,3.912,0,0,1,244.039-880h21.922a3.912,3.912,0,0,1,2.883,1.156A3.912,3.912,0,0,1,270-875.961v41.922a3.912,3.912,0,0,1-1.156,2.883A3.912,3.912,0,0,1,265.961-830Zm-1.539-6.25v2.211a1.47,1.47,0,0,0,.481,1.058,1.471,1.471,0,0,0,1.058.481h21.922a1.471,1.471,0,0,0,1.058-.481,1.47,1.47,0,0,0,.481-1.058v-2.211Zm0-2.5h25v-32.5h-25Zm12.5-7.981L246.731-855l1.769-1.769,5.25,5.221v-11.721h2.5v11.721l5.25-5.221L263.269-855ZM242.5-873.75h25v-2.211a1.47,1.47,0,0,0-.481-1.058,1.471,1.471,0,0,0-1.058-.481H244.039a1.471,1.471,0,0,0-1.058.481,1.47,1.47,0,0,0-.481,1.058Zm0,0v0Zm0,37.5v0Z" transform="translate(-240 880)" fill="#8a8a8e"/>
</svg>
