<svg id="videos" xmlns="http://www.w3.org/2000/svg" width="22.364" height="22.364" viewBox="0 0 22.364 22.364">
  <g id="Rectangle_3988" data-name="Rectangle 3988" fill="#fff" stroke="#707070" stroke-width="1" opacity="0">
    <rect width="22.364" height="22.364" stroke="none"/>
    <rect x="0.5" y="0.5" width="21.364" height="21.364" fill="none"/>
  </g>
  <path id="video_file_FILL1_wght400_GRAD0_opsz48" d="M12.814,20.046H17.2a.9.9,0,0,0,.877-.877V17.789l2.006,1.153V15.132l-2.006,1.153V14.906a.9.9,0,0,0-.877-.877H12.814a.9.9,0,0,0-.877.877v4.262a.9.9,0,0,0,.877.877ZM9.5,24.057a1.542,1.542,0,0,1-1.5-1.5V5.5a1.443,1.443,0,0,1,.451-1.053A1.443,1.443,0,0,1,9.5,4h9.051l5.491,5.491V22.553a1.542,1.542,0,0,1-1.5,1.5Zm8.3-13.889h4.738L17.8,5.5Z" transform="translate(-4.728 -2.509)" fill="#333"/>
</svg>
