<svg xmlns="http://www.w3.org/2000/svg" width="19" height="19" viewBox="0 0 19 19">
  <g id="Layer_2" data-name="Layer 2" transform="translate(-2.251 -2.251)">
    <path id="Path_10290" data-name="Path 10290" d="M14.312,9.465,10.93,12.845,9.5,11.414a.731.731,0,0,0-1.033,1.033L10.414,14.4a.729.729,0,0,0,1.033,0l3.9-3.9a.731.731,0,0,0-1.033-1.033Z" transform="translate(-0.153 -0.179)" fill="#4285f4"/>
    <path id="Path_10291" data-name="Path 10291" d="M16.533,4.327h-1.12a1.169,1.169,0,0,1-.836-.347l-.956-.955a2.645,2.645,0,0,0-3.738,0l-.956.955a1.169,1.169,0,0,1-.836.347H6.971A2.647,2.647,0,0,0,4.327,6.971V8.09a1.176,1.176,0,0,1-.346.836l-.957.956a2.648,2.648,0,0,0,0,3.738l.957.956a1.176,1.176,0,0,1,.346.836v1.12a2.647,2.647,0,0,0,2.644,2.644H8.09a1.169,1.169,0,0,1,.836.347l.956.955a2.647,2.647,0,0,0,3.738,0l.956-.955a1.169,1.169,0,0,1,.836-.347h1.12a2.647,2.647,0,0,0,2.644-2.644v-1.12a1.176,1.176,0,0,1,.346-.836l.957-.956a2.648,2.648,0,0,0,0-3.738l-.957-.957a1.176,1.176,0,0,1-.346-.836V6.971a2.647,2.647,0,0,0-2.644-2.644Zm2.918,6.59a1.183,1.183,0,0,1,0,1.67l-.956.957a2.622,2.622,0,0,0-.78,1.869v1.12a1.183,1.183,0,0,1-1.182,1.182h-1.12a2.625,2.625,0,0,0-1.869.78l-.957.956a1.183,1.183,0,0,1-1.67,0l-.957-.956a2.625,2.625,0,0,0-1.869-.78H6.971a1.183,1.183,0,0,1-1.182-1.182v-1.12a2.622,2.622,0,0,0-.775-1.869l-.956-.957a1.183,1.183,0,0,1,0-1.67l.956-.957a2.622,2.622,0,0,0,.78-1.869V6.971A1.183,1.183,0,0,1,6.971,5.789H8.09a2.625,2.625,0,0,0,1.869-.775l.957-.956a1.183,1.183,0,0,1,1.67,0l.957.956a2.625,2.625,0,0,0,1.869.78h1.12a1.183,1.183,0,0,1,1.182,1.182V8.09a2.622,2.622,0,0,0,.78,1.869Z" transform="translate(0 0)" fill="#4285f4"/>
  </g>
</svg>
