<svg xmlns="http://www.w3.org/2000/svg" width="19" height="19" viewBox="0 0 19 19">
  <g id="video_icon" transform="translate(0.5)">
    <rect id="Rectangle_3945" data-name="Rectangle 3945" width="18" height="18" fill="#8087b7" opacity="0"/>
    <g id="video_icon-2" data-name="video_icon" transform="translate(-26.111 -463.328)" fill="none">
      <path d="M35.111,464.828a8,8,0,1,1-8,8A8,8,0,0,1,35.111,464.828Z" stroke="none"/>
      <path d="M 35.1109619140625 464.8279113769531 C 30.69269180297852 464.8279113769531 27.1109619140625 468.4096374511719 27.1109619140625 472.8279113769531 C 27.1109619140625 477.2462158203125 30.69269180297852 480.8279113769531 35.1109619140625 480.8279113769531 C 39.52924346923828 480.8279113769531 43.1109619140625 477.2462158203125 43.1109619140625 472.8279113769531 C 43.1109619140625 468.4096374511719 39.52924346923828 464.8279113769531 35.1109619140625 464.8279113769531 M 35.1109619140625 463.3279113769531 C 40.34928131103516 463.3279113769531 44.6109619140625 467.589599609375 44.6109619140625 472.8279113769531 C 44.6109619140625 478.0662231445312 40.34928131103516 482.3279113769531 35.1109619140625 482.3279113769531 C 29.87264251708984 482.3279113769531 25.6109619140625 478.0662231445312 25.6109619140625 472.8279113769531 C 25.6109619140625 467.589599609375 29.87264251708984 463.3279113769531 35.1109619140625 463.3279113769531 Z" stroke="none" fill="#333"/>
    </g>
    <path id="Op_component_2" data-name="Op component 2" d="M41.54,478.709l-3.973,2.5a.528.528,0,0,1-.805-.435v-5a.512.512,0,0,1,.805-.435l3.973,2.5C41.836,477.949,41.836,478.492,41.54,478.709Z" transform="translate(-29.794 -468.755)" fill="none" stroke="#333" stroke-width="1.5"/>
  </g>
</svg>
