<svg width="27" height="27" viewBox="0 0 27 27" fill="none" xmlns="http://www.w3.org/2000/svg">
<path fill-rule="evenodd" clip-rule="evenodd" d="M25.02 27L18.585 20.565C17.685 21.345 16.635 21.9525 15.435 22.3875C14.235 22.8225 12.96 23.04 11.61 23.04C8.37001 23.04 5.62501 21.915 3.375 19.665C1.125 17.415 0 14.7 0 11.52C0 8.34 1.125 5.625 3.375 3.375C5.62501 1.125 8.355 0 11.565 0C14.745 0 17.4525 1.125 19.6875 3.375C21.9225 5.625 23.04 8.34 23.04 11.52C23.04 12.81 22.83 14.055 22.41 15.255C21.99 16.455 21.36 17.58 20.52 18.63L27 25.02L25.02 27ZM11.565 20.34C13.995 20.34 16.065 19.4775 17.775 17.7525C19.485 16.0275 20.34 13.95 20.34 11.52C20.34 9.09 19.485 7.0125 17.775 5.2875C16.065 3.56249 13.995 2.7 11.565 2.7C9.10501 2.7 7.01251 3.56249 5.28751 5.2875C3.5625 7.0125 2.70001 9.09 2.70001 11.52C2.70001 13.95 3.5625 16.0275 5.28751 17.7525C7.01251 19.4775 9.10501 20.34 11.565 20.34H11.565Z" fill="#6F6F6F"/>
</svg>
