<svg xmlns="http://www.w3.org/2000/svg" width="36" height="36" viewBox="0 0 36 36">
  <g id="emoji2" transform="translate(-64.248 -278.291)">
    <g id="Group_98" data-name="Group 98" transform="translate(65.248 279.291)">
      <circle id="Ellipse_10" data-name="Ellipse 10" cx="17" cy="17" r="17" fill="none" stroke="#8a8a8e" stroke-width="2"/>
    </g>
    <g id="Group_20118" data-name="Group 20118" transform="translate(69.248 290.394)">
      <path id="Path_179" data-name="Path 179" d="M1752.545,470.66a.78.78,0,0,1-.7-.425,3.891,3.891,0,0,0-3.4-1.915,3.771,3.771,0,0,0-3.394,1.9.78.78,0,0,1-1.4-.679,5.317,5.317,0,0,1,4.8-2.782,5.454,5.454,0,0,1,4.79,2.764.781.781,0,0,1-.694,1.135Z" transform="translate(-1735.859 -455.548)" fill="#8a8a8e"/>
      <path id="Path_180" data-name="Path 180" d="M1742.867,460.46a2.211,2.211,0,1,1-2.193-2.486A2.354,2.354,0,0,1,1742.867,460.46Z" transform="translate(-1736.929 -454.383)" fill="#8a8a8e"/>
      <path id="Path_181" data-name="Path 181" d="M1759.727,460.46a2.211,2.211,0,1,1-2.193-2.486A2.354,2.354,0,0,1,1759.727,460.46Z" transform="translate(-1735.574 -454.383)" fill="#8a8a8e"/>
      <path id="Path_182" data-name="Path 182" d="M1760.479,457.27a.781.781,0,0,1-.716-.468,2.989,2.989,0,0,0-1-1.106,3.271,3.271,0,0,0-2.037-.243.78.78,0,0,1-.292-1.533,4.791,4.791,0,0,1,3.187.473,4.45,4.45,0,0,1,1.575,1.785.78.78,0,0,1-.714,1.092Z" transform="translate(-1735.635 -453.834)" fill="#8a8a8e"/>
      <path id="Path_183" data-name="Path 183" d="M1737.472,457.27a.781.781,0,0,0,.716-.468,2.988,2.988,0,0,1,1-1.106,3.273,3.273,0,0,1,2.037-.243.78.78,0,0,0,.291-1.533,4.791,4.791,0,0,0-3.187.473,4.457,4.457,0,0,0-1.575,1.785.78.78,0,0,0,.715,1.092Z" transform="translate(-1736.692 -453.834)" fill="#8a8a8e"/>
    </g>
  </g>
</svg>
