<svg xmlns="http://www.w3.org/2000/svg" width="26" height="26" viewBox="0 0 26 26">
<g id="info_icon" transform="translate(-1544.563 -417.062)">
  <ellipse id="Ellipse_475" data-name="Ellipse 475" cx="9" cy="8.5" rx="9" ry="8.5" transform="translate(1549.563 423.062)" fill="#333"/>
  <path id="Icon_awesome-info-circle" data-name="Icon awesome-info-circle" d="M13.563.563a13,13,0,1,0,13,13A13,13,0,0,0,13.563.563Zm0,5.766a2.2,2.2,0,1,1-2.2,2.2A2.2,2.2,0,0,1,13.563,6.329ZM16.5,19.643a.629.629,0,0,1-.629.629H11.256a.629.629,0,0,1-.629-.629V18.385a.629.629,0,0,1,.629-.629h.629V14.4h-.629a.629.629,0,0,1-.629-.629V12.514a.629.629,0,0,1,.629-.629h3.355a.629.629,0,0,1,.629.629v5.242h.629a.629.629,0,0,1,.629.629Z" transform="translate(1544 416.5)" fill="#ffffff"/>
</g>
</svg>

