<svg xmlns="http://www.w3.org/2000/svg" width="58" height="58" viewBox="0 0 58 58">
  <g id="investor_zone" transform="translate(-0.998 -1)">
    <rect id="Rectangle_5162" data-name="Rectangle 5162" width="2.107" height="16.873" rx="1" transform="translate(26.289 37.909)" fill="#48428e"/>
    <rect id="Rectangle_5163" data-name="Rectangle 5163" width="2.107" height="10.545" rx="1" transform="translate(33.665 44.236)" fill="#48428e"/>
    <rect id="Rectangle_5164" data-name="Rectangle 5164" width="2.107" height="10.545" rx="1" transform="translate(41.041 44.236)" fill="#48428e"/>
    <rect id="Rectangle_5165" data-name="Rectangle 5165" width="2.107" height="16.873" rx="1" transform="translate(48.416 37.909)" fill="#48428e"/>
    <ellipse id="Ellipse_2913" data-name="Ellipse 2913" cx="3.272" cy="3.274" rx="3.272" ry="3.274" transform="translate(5.206 6.613)" fill="#48428e"/>
    <rect id="Rectangle_5166" data-name="Rectangle 5166" width="2.107" height="2.109" rx="1" transform="translate(51.578 17.873)" fill="#48428e"/>
    <rect id="Rectangle_5167" data-name="Rectangle 5167" width="2.107" height="2.109" rx="1" transform="translate(27.343 1)" fill="#48428e"/>
    <rect id="Rectangle_5168" data-name="Rectangle 5168" width="2.107" height="1.055" rx="0.527" transform="translate(38.933 13.655)" fill="#48428e"/>
    <path id="Path_9998" data-name="Path 9998" d="M55.952,4.272,46.96,2a.458.458,0,0,0-.561.561l2.253,9.027a.467.467,0,0,0,.785.215l6.758-6.764a.468.468,0,0,0-.243-.767Z" transform="translate(-2.962 -0.063)" fill="#48428e"/>
    <path id="Path_9999" data-name="Path 9999" d="M6.307,23.915l11.217,5.613a1.871,1.871,0,0,1,1.056,1.815l-.093,1.328a13.089,13.089,0,0,1,4.356,3.658l2.514-2.806a2.8,2.8,0,0,1,3.739-.365L34.91,37.48l-.449-6.146a1.871,1.871,0,0,1,1.056-1.815l11.217-5.613A2.311,2.311,0,0,0,47.921,21.1a2.43,2.43,0,0,0-2.3-1.6,2.55,2.55,0,0,0-.935.168l-6.861,2.638A31.4,31.4,0,0,1,26.5,24.421a31.405,31.405,0,0,1-11.33-2.115L8.326,19.668a2.55,2.55,0,0,0-.935-.168,2.43,2.43,0,0,0-2.3,1.6,2.311,2.311,0,0,0,1.215,2.816Z" transform="translate(-0.26 -1.194)" fill="#48428e"/>
    <path id="Path_10000" data-name="Path 10000" d="M13.608,52.532V51.6a3.534,3.534,0,0,0,3.739-3.274,3.534,3.534,0,0,0-3.739-3.274V42.242a1.934,1.934,0,0,1,1.757.935.935.935,0,0,0,.8.468h0A.935.935,0,0,0,17.02,42.3a3.813,3.813,0,0,0-3.412-1.927v-.935a.935.935,0,0,0-.935-.935h0a.935.935,0,0,0-.935.935v.935A3.534,3.534,0,0,0,8,43.645a3.534,3.534,0,0,0,3.739,3.274v2.806a1.934,1.934,0,0,1-1.757-.935.935.935,0,0,0-.8-.468h0a.935.935,0,0,0-.851,1.347A3.813,3.813,0,0,0,11.739,51.6v.935a.935.935,0,0,0,.935.935h0A.935.935,0,0,0,13.608,52.532Zm0-5.613c1.01,0,1.869.645,1.869,1.4s-.86,1.4-1.869,1.4Zm-1.869-1.871c-1.01,0-1.869-.645-1.869-1.4s.86-1.4,1.869-1.4Z" transform="translate(-0.457 -2.419)" fill="#48428e"/>
    <path id="Path_10001" data-name="Path 10001" d="M60.791,27.5l-9.17.851a.936.936,0,0,0-.654,1.5l2.561,3.34L45.116,40a.934.934,0,1,0,1.178,1.45l8.413-6.782,2.561,3.349a.934.934,0,0,0,.748.365h.159a.935.935,0,0,0,.729-.636l2.907-9.018A.948.948,0,0,0,60.791,27.5Zm-3.159,7.952-4.15-5.407,6.066-.561Z" transform="translate(-2.857 -1.709)" fill="#48428e"/>
    <path id="Path_10002" data-name="Path 10002" d="M23.433,45.729a7.178,7.178,0,0,0-.047-1.01,10.8,10.8,0,0,0-.449-2.264L27.294,37.6l10.534,7.942a.94.94,0,0,0,1.15-.019l1.58-1.282a.936.936,0,0,0,.14-1.319h0a.934.934,0,0,0-1.309-.14l-1,.823-10.656-7.98a.934.934,0,0,0-1.253.122l-4.318,4.836a11.228,11.228,0,1,0,1.271,5.145Zm-20.564,0a9.344,9.344,0,0,1,18.143-3.153,8.944,8.944,0,0,1,.6,3.153,9.347,9.347,0,1,1-18.695,0Z" transform="translate(0 -2.164)" fill="#48428e"/>
    <rect id="Rectangle_5169" data-name="Rectangle 5169" width="48.47" height="3.164" rx="1" transform="translate(6.269 55.836)" fill="#48428e"/>
    <g id="Ellipse_2914" data-name="Ellipse 2914" transform="translate(18.998 6.899)" fill="none" stroke="#48428e" stroke-width="2">
      <circle cx="7.5" cy="7.5" r="7.5" stroke="none"/>
      <circle cx="7.5" cy="7.5" r="6.5" fill="none"/>
    </g>
  </g>
</svg>
