<svg xmlns="http://www.w3.org/2000/svg" width="40" height="40" viewBox="0 0 40 40">
  <g id="like_icon" transform="translate(0.228 0.388)">
    <rect id="Rectangle_3856" data-name="Rectangle 3856" width="40" height="40" transform="translate(-0.228 -0.388)" fill="#fff" opacity="0"/>
    <g id="like_icon-2" data-name="like_icon" transform="translate(5.216 5.352)">
      <path id="XMLID_5_" d="M23.232,11.583H17.738V6.115a1.855,1.855,0,0,0-3.3-1.159L7.669,13.414h0v9.154L10.415,24.4H21.832a1.829,1.829,0,0,0,1.758-1.328l2.279-7.986A2.746,2.746,0,0,0,23.232,11.583Z" transform="translate(0.38)" fill="none" stroke="#333" stroke-linecap="round" stroke-linejoin="round" stroke-width="1.6"/>
      <rect id="XMLID_3_" width="5.492" height="12.815" transform="translate(2.556 11.583)" fill="none" stroke="#333" stroke-linecap="round" stroke-linejoin="round" stroke-width="1.6"/>
      <circle id="XMLID_4_" cx="0.915" cy="0.915" r="0.915" transform="translate(4.387 19.822)" fill="#333"/>
    </g>
    <path id="Path_9678" data-name="Path 9678" d="M29.315,17.537H23.876l-.785-1.978V10.741l-1.326-.721H20.3l-5.73,7.518-1.055,1.248v8.959l2.175,1.547H27.659l.893-.652,2.659-8.725V18.227Z" fill="#333"/>
  </g>
</svg>
