<svg xmlns="http://www.w3.org/2000/svg" width="14" height="14" viewBox="0 0 14 14">
  <g id="linkedin" transform="translate(0 0)">
    <path id="Exclusion_1" data-name="Exclusion 1" d="M367.25-252h-10.5A1.752,1.752,0,0,1,355-253.75v-10.5A1.752,1.752,0,0,1,356.75-266h10.5a1.752,1.752,0,0,1,1.75,1.75v10.5A1.752,1.752,0,0,1,367.25-252Zm-3.314-7.43c.777,0,1.188.551,1.188,1.595v3.774h2.344v-4.045c0-1.988-1.009-3.175-2.7-3.175a2.316,2.316,0,0,0-2.113,1.165v-1h-2.344c.03.652,0,6.989,0,7.053h2.344V-258a1.556,1.556,0,0,1,.077-.572A1.282,1.282,0,0,1,363.937-259.43Zm-7.268-1.685h0v7.053h2.345v-7.053Zm1.189-3.4a1.221,1.221,0,0,0-1.327,1.219,1.217,1.217,0,0,0,1.3,1.219h.015a1.221,1.221,0,0,0,1.327-1.219A1.217,1.217,0,0,0,357.858-264.515Z" transform="translate(-355 266)" fill="#0b65c2"/>
  </g>
</svg>
