<svg id="linkedin" xmlns="http://www.w3.org/2000/svg" width="32" height="32" viewBox="0 0 32 32">
  <circle id="Ellipse_2904" data-name="Ellipse 2904" cx="16" cy="16" r="16" transform="translate(0)" fill="#fff"/>
  <g id="Group_4695" data-name="Group 4695" transform="translate(7.999 8)">
    <path id="Union_29" data-name="Union 29" d="M12.445,14.4V8.337c0-.994-.653-1.516-1.778-1.516-1.153,0-1.778.533-1.778,1.516V14.4H5.333V3.79H8.889V5.305c.2-.744.63-1.516,3.11-1.516,3.537,0,4,2.273,4,5.3V14.4ZM0,14.4V3.79H3.556V14.4ZM0,1.516A1.663,1.663,0,0,1,1.778,0,1.662,1.662,0,0,1,3.556,1.516,1.662,1.662,0,0,1,1.778,3.032,1.663,1.663,0,0,1,0,1.516Z" transform="translate(0)" fill="#333"/>
  </g>
</svg>
