<svg xmlns="http://www.w3.org/2000/svg" width="46" height="26" viewBox="0 0 46 26">
  <g id="long_arrow" transform="translate(-338 -562)">
    <rect id="Rectangle_4080" data-name="Rectangle 4080" width="46" height="26" rx="13" transform="translate(338 562)" fill="#f4f3f7"/>
    <path id="Icon_ionic-ios-arrow-round-forward" data-name="Icon ionic-ios-arrow-round-forward" d="M19.826,11.491a.851.851,0,0,0-.007,1.2l3.958,3.964H8.715a.846.846,0,0,0,0,1.692H23.771L19.813,22.31a.857.857,0,0,0,.007,1.2.843.843,0,0,0,1.191-.007l5.364-5.4h0a.95.95,0,0,0,.176-.267.808.808,0,0,0,.065-.325.848.848,0,0,0-.241-.592l-5.364-5.4A.829.829,0,0,0,19.826,11.491Z" transform="translate(343.876 557.249)" fill="#333"/>
  </g>
</svg>
