<svg xmlns="http://www.w3.org/2000/svg" width="62" height="62" viewBox="0 0 62 62">
  <g id="startup_networking_home" transform="translate(-1.197 5.856)">
    <rect id="Rectangle_4064" data-name="Rectangle 4064" width="62" height="62" transform="translate(1.197 -5.856)" fill="#f79622" opacity="0"/>
    <g id="Group_19980" data-name="Group 19980" transform="translate(10.199 3.497)">
      <path id="Path_10505" data-name="Path 10505" d="M31.769,1.646A4.388,4.388,0,0,0,28.605,3,19.994,19.994,0,0,0,9.061,6.624a4.333,4.333,0,0,0-2.119-.552,4.392,4.392,0,0,0-3.13,7.481A19.983,19.983,0,0,0,5.331,32.921a4.355,4.355,0,0,0-.479,1.986,4.413,4.413,0,0,0,4.4,4.4,4.332,4.332,0,0,0,2.073-.526,20,20,0,0,0,20.935.254,4.38,4.38,0,0,0,6.97-3.367.912.912,0,0,0,0-.369,4.387,4.387,0,0,0-.693-2.185A19.988,19.988,0,0,0,35.9,7.5a4.382,4.382,0,0,0,.246-1.268.94.94,0,0,0,0-.375A4.4,4.4,0,0,0,31.769,1.646Zm0,1.871a2.535,2.535,0,0,1,2.244,3.7q-.02.03-.038.061A2.525,2.525,0,0,1,32.111,8.55H32.1c-.047.006-.1.011-.143.015l-.035,0c-.052,0-.1.005-.158.005a2.531,2.531,0,0,1-1.419-.429h0a2.509,2.509,0,0,1-.286-.224h0a2.509,2.509,0,0,1-.25-.263q-.077-.093-.145-.194t-.126-.208q-.058-.108-.106-.221a2.516,2.516,0,0,1-.118-.353q-.031-.122-.05-.248a2.6,2.6,0,0,1-.029-.387c0-.058,0-.115.006-.172l0-.032a2.525,2.525,0,0,1,.426-1.212q.023-.034.043-.071a2.517,2.517,0,0,1,2.051-1.04ZM22,3.745a18.086,18.086,0,0,1,5.585.95,4.351,4.351,0,0,0-.209,1.161c0,.062,0,.125,0,.188A4.355,4.355,0,0,0,27.585,7.4,28.55,28.55,0,0,0,19.6,12.433a4.331,4.331,0,0,0-2.113-.549A4.4,4.4,0,0,0,14,13.608c-1.113-.637-2.108-1.163-2.944-1.584a4.353,4.353,0,0,0,.285-1.505q0-.024,0-.048t0-.032a4.393,4.393,0,0,0-.852-2.548A18.117,18.117,0,0,1,22,3.745ZM6.942,7.942a2.526,2.526,0,0,1,1.547.522q.029.028.06.054a2.525,2.525,0,0,1-.4,4.178c-.036.019-.072.038-.109.056a2.546,2.546,0,0,1-1.1.247c-.06,0-.121,0-.181-.007l-.023,0a2.527,2.527,0,0,1-1.24-.444q-.037-.026-.076-.048a2.533,2.533,0,0,1,1.52-4.555Zm21.6,1.08a4.442,4.442,0,0,0,1.327.986h0a4.371,4.371,0,0,0,.6.237h0c.079.025.159.047.24.067a37.453,37.453,0,0,1-1.5,8.116l1.783.565a39.167,39.167,0,0,0,1.592-8.626l.058-.01.057-.013c.051-.011.1-.022.152-.035l.109-.03.09-.025a4.423,4.423,0,0,0,1.835-1.1,17.941,17.941,0,0,1,2.265,22.59,4.335,4.335,0,0,0-1.96-.642l-.061,0-.086,0c-.062,0-.125,0-.188,0a4.361,4.361,0,0,0-1.268.188q-.428-.643-.872-1.266c-.772-1.081-1.58-2.113-2.412-3.1l-.06.05a4.383,4.383,0,0,0,.621-2.071.928.928,0,0,0,0-.369,4.405,4.405,0,0,0-4.381-4.211,4.359,4.359,0,0,0-2.166.576c-1.01-.874-2.019-1.688-3.012-2.444a4.384,4.384,0,0,0,.566-1.972.936.936,0,0,0,0-.377,4.393,4.393,0,0,0-.853-2.413,26.078,26.078,0,0,1,7.529-4.657ZM10.025,13.6c.875.437,1.953,1,3.171,1.7a4.36,4.36,0,0,0,.8,3.654A37.163,37.163,0,0,0,9.6,28.62l1.793.535a35.374,35.374,0,0,1,4.046-8.981,4.356,4.356,0,0,0,4.609-.331c.942.714,1.9,1.482,2.856,2.3a4.366,4.366,0,0,0,.119,5.28,20.912,20.912,0,0,1-9.99,5.246A4.437,4.437,0,0,0,10.521,30.7h0c-.065-.02-.13-.038-.2-.055l-.025-.006c-.059-.015-.119-.028-.179-.04l-.063-.011c-.049-.009-.1-.018-.147-.026l-.086-.011c-.043-.006-.085-.012-.128-.016l-.09-.007c-.044,0-.087-.008-.131-.01q-.109-.005-.219-.005c-.065,0-.13,0-.194,0l-.13.008-.045,0a4.374,4.374,0,0,0-2.255.858A17.773,17.773,0,0,1,5.425,14.6a4.358,4.358,0,0,0,1.516.271q.112,0,.223-.006l.081-.006c.046,0,.092-.006.137-.01s.1-.012.15-.019l.063-.008c.05-.008.1-.017.15-.026l.064-.012c.053-.011.106-.023.159-.036l.047-.011A4.409,4.409,0,0,0,10.025,13.6Zm7.459.155a2.528,2.528,0,1,1-2.529,2.528A2.514,2.514,0,0,1,17.484,13.754Zm8.992,8.427a2.528,2.528,0,1,1-2.529,2.528A2.515,2.515,0,0,1,26.476,22.181Zm2.536,6.111c.75.9,1.478,1.829,2.174,2.8q.385.539.756,1.094a4.43,4.43,0,0,0-1.226,1.786h0a4.356,4.356,0,0,0-.268,1.508c0,.061,0,.122,0,.183q0,.042,0,.084l0,.032a4.357,4.357,0,0,0,.517,1.783,17.793,17.793,0,0,1-18.152-.118,4.415,4.415,0,0,0,.521-.977,4.218,4.218,0,0,0,.305-1.564,4.391,4.391,0,0,0-.024-.453A23.5,23.5,0,0,0,24.49,28.629a4.353,4.353,0,0,0,4.522-.338ZM9.252,32.379a2.6,2.6,0,0,1,.388.029h0a2.532,2.532,0,0,1,.486.123h0q.058.021.115.045h0a2.514,2.514,0,0,1,1.539,2.331c0,.07,0,.139-.009.207,0,.024,0,.048-.006.072s0,.028-.005.042a2.526,2.526,0,0,1-.986,1.7q-.033.025-.063.052A2.535,2.535,0,0,1,7.148,33.5q.027-.031.051-.064A2.526,2.526,0,0,1,8.944,32.4h.009c.043-.005.085-.009.128-.012l.025,0c.048,0,.1,0,.146,0Zm25.6.577c.045,0,.09,0,.135,0a2.528,2.528,0,0,1,1.716.8q.029.032.062.06A2.534,2.534,0,0,1,33.078,37.3q-.027-.034-.056-.064a2.528,2.528,0,0,1-.7-1.748c0-.044,0-.088,0-.131a2.575,2.575,0,0,1,.048-.382h0a2.507,2.507,0,0,1,.96-1.516q.1-.072.2-.136a2.536,2.536,0,0,1,1.316-.363Z" transform="translate(0 0)" fill="#333" stroke="#333" stroke-width="0.4"/>
    </g>
  </g>
</svg>
