<svg xmlns="http://www.w3.org/2000/svg" width="54" height="54" viewBox="0 0 54 54">
  <g id="partners" transform="translate(-0.038 0.696)">
    <rect id="Rectangle_1" data-name="Rectangle 1" width="54" height="54" transform="translate(0.038 -0.696)" fill="#f79622" opacity="0"/>
    <path id="Path_10361" data-name="Path 10361" d="M20.51,48.908l.6,1.563a2.637,2.637,0,0,1-1.444,3.372L16.214,55.29a2.644,2.644,0,0,1-3.5-1.541L7.968,40.554a2.636,2.636,0,0,1,1.5-3.342l3.219-1.29a2.642,2.642,0,0,1,3.447,1.51l.138.369L19.125,35a6.107,6.107,0,0,1,2.26-1.411l0,0a9.775,9.775,0,0,1,8,.479,2.572,2.572,0,0,1,.622.451c.136.123.321.306.495.475a.7.7,0,0,0,.49.2h7.556a2.63,2.63,0,0,1,1.864.774,2.691,2.691,0,0,1,.457.611l8.692-7.686a2.64,2.64,0,0,1,3.6.095l1.1,1.084a2.636,2.636,0,0,1,.334,3.364L45.933,46.209a6.152,6.152,0,0,1-5.092,2.7ZM41.2,38.644V39.75a2.642,2.642,0,0,1-2.638,2.638h-8.2a.879.879,0,0,1,0-1.759h8.2a.878.878,0,0,0,.879-.879V37.833a.878.878,0,0,0-.879-.877H31a2.469,2.469,0,0,1-1.724-.706c-.16-.16-.336-.332-.462-.448l-.018-.018a.952.952,0,0,0-.211-.152,8.08,8.08,0,0,0-6.617-.383,4.394,4.394,0,0,0-1.611,1.009l-3.364,3.3c.693,1.814,2.9,7.589,2.9,7.589H40.841a4.4,4.4,0,0,0,3.638-1.926l8.67-12.773a.878.878,0,0,0-.112-1.121l-1.1-1.084a.884.884,0,0,0-1.2-.033ZM31.555,6.25A12.311,12.311,0,1,1,19.244,18.559,12.316,12.316,0,0,1,31.555,6.25Zm0,1.759A10.552,10.552,0,1,0,42.11,18.559,10.557,10.557,0,0,0,31.555,8.009Zm0,11.431a3.924,3.924,0,0,1-4.1-3.7,3.822,3.822,0,0,1,3.225-3.614V11.3a.879.879,0,0,1,1.759,0v.82a3.82,3.82,0,0,1,3.225,3.614.879.879,0,1,1-1.759,0A2.169,2.169,0,0,0,31.555,13.8a2.167,2.167,0,0,0-2.344,1.941,2.168,2.168,0,0,0,2.344,1.943,3.922,3.922,0,0,1,4.1,3.7A3.824,3.824,0,0,1,32.434,25v.816a.879.879,0,1,1-1.759,0V25a3.826,3.826,0,0,1-3.225-3.616.88.88,0,0,1,1.761,0,2.165,2.165,0,0,0,2.344,1.941A2.168,2.168,0,0,0,33.9,21.381,2.168,2.168,0,0,0,31.555,19.44Z" transform="translate(-4.398 -4.696)" fill="#333" fill-rule="evenodd"/>
  </g>
</svg>
