<svg xmlns="http://www.w3.org/2000/svg" width="54" height="54" viewBox="0 0 54 54">
  <g id="mindmixer_menu" transform="translate(-1.09 5.205)">
    <rect id="Rectangle_1" data-name="Rectangle 1" width="54" height="54" transform="translate(1.09 -5.205)" fill="#f79622" opacity="0"/>
    <path id="stream_FILL0_wght300_GRAD0_opsz24" d="M93.95-844.05a3.808,3.808,0,0,1-2.8-1.152A3.808,3.808,0,0,1,90-848a3.807,3.807,0,0,1,1.152-2.8,3.808,3.808,0,0,1,2.8-1.152,3.808,3.808,0,0,1,2.8,1.152A3.807,3.807,0,0,1,97.9-848a3.808,3.808,0,0,1-1.152,2.8A3.808,3.808,0,0,1,93.95-844.05Zm3.723,12.645-2.378-2.378,9.034-9.034,2.378,2.378Zm6.769-21.887-9.034-9.034,2.378-2.378,9.034,9.034ZM112-826a3.807,3.807,0,0,1-2.8-1.152,3.807,3.807,0,0,1-1.152-2.8,3.808,3.808,0,0,1,1.152-2.8A3.808,3.808,0,0,1,112-833.9a3.808,3.808,0,0,1,2.8,1.152,3.808,3.808,0,0,1,1.152,2.8,3.807,3.807,0,0,1-1.152,2.8A3.807,3.807,0,0,1,112-826Zm0-36.1a3.808,3.808,0,0,1-2.8-1.152,3.807,3.807,0,0,1-1.152-2.8,3.807,3.807,0,0,1,1.152-2.8A3.807,3.807,0,0,1,112-870a3.808,3.808,0,0,1,2.8,1.152,3.807,3.807,0,0,1,1.152,2.8,3.807,3.807,0,0,1-1.152,2.8A3.808,3.808,0,0,1,112-862.1Zm7.559,8.878-2.378-2.447,9.147-9.034,2.378,2.378Zm6.769,21.818-9.034-9.034,2.378-2.378,9.034,9.034Zm3.723-12.645a3.808,3.808,0,0,1-2.8-1.152A3.808,3.808,0,0,1,126.1-848a3.807,3.807,0,0,1,1.152-2.8,3.808,3.808,0,0,1,2.8-1.152,3.808,3.808,0,0,1,2.8,1.152A3.807,3.807,0,0,1,134-848a3.808,3.808,0,0,1-1.152,2.8A3.808,3.808,0,0,1,130.052-844.05Z" transform="translate(-83.911 869.794)" fill="#333"/>
  </g>
</svg>
