<svg xmlns="http://www.w3.org/2000/svg" width="34" height="34" viewBox="0 0 34 34">
  <g id="info_menu" transform="translate(0 -0.361)">
    <rect id="Rectangle_1" data-name="Rectangle 1" width="34" height="34" transform="translate(0 0.361)" fill="#f79622" opacity="0"/>
    <g id="info_icon" transform="translate(4 3.361)">
      <path id="info_icon-2" data-name="info_icon" d="M112.435-839.749h2.132v-8.171h-2.132Zm1.066-10.6a1.111,1.111,0,0,0,.818-.33,1.111,1.111,0,0,0,.33-.818,1.111,1.111,0,0,0-.33-.818,1.111,1.111,0,0,0-.818-.33,1.111,1.111,0,0,0-.818.33,1.111,1.111,0,0,0-.33.818,1.11,1.11,0,0,0,.33.818A1.111,1.111,0,0,0,113.5-850.352Zm0,17.353a13.151,13.151,0,0,1-5.265-1.063,13.637,13.637,0,0,1-4.287-2.885,13.63,13.63,0,0,1-2.886-4.286A13.138,13.138,0,0,1,100-846.5a13.151,13.151,0,0,1,1.063-5.265,13.637,13.637,0,0,1,2.885-4.287,13.63,13.63,0,0,1,4.286-2.886A13.138,13.138,0,0,1,113.5-860a13.151,13.151,0,0,1,5.265,1.063,13.637,13.637,0,0,1,4.287,2.885,13.631,13.631,0,0,1,2.886,4.286A13.138,13.138,0,0,1,127-846.5a13.151,13.151,0,0,1-1.063,5.265,13.637,13.637,0,0,1-2.885,4.287,13.629,13.629,0,0,1-4.286,2.886A13.137,13.137,0,0,1,113.5-833Zm0-2.132a10.972,10.972,0,0,0,8.064-3.3,10.972,10.972,0,0,0,3.3-8.064,10.972,10.972,0,0,0-3.3-8.065,10.972,10.972,0,0,0-8.064-3.3,10.972,10.972,0,0,0-8.064,3.3,10.972,10.972,0,0,0-3.3,8.065,10.972,10.972,0,0,0,3.3,8.064A10.972,10.972,0,0,0,113.5-835.131ZM113.5-846.5Z" transform="translate(-100.001 859.999)" fill="#333"/>
    </g>
  </g>
</svg>
