<svg xmlns="http://www.w3.org/2000/svg" width="34" height="34" viewBox="0 0 34 34">
  <g id="feedback_menu" transform="translate(0 0)">
    <rect id="Rectangle_1" data-name="Rectangle 1" width="34" height="34" transform="translate(0 0)" fill="#f79622" opacity="0"/>
    <path id="rate_review_24dp_FILL0_wght300_GRAD0_opsz24" d="M105.441-843.336h3.871l7.567-7.567a1.872,1.872,0,0,0,.391-.606,1.772,1.772,0,0,0,.13-.652,1.5,1.5,0,0,0-.142-.629,2.458,2.458,0,0,0-.38-.584l-1.34-1.4a1.734,1.734,0,0,0-.588-.391,1.8,1.8,0,0,0-.67-.13,1.773,1.773,0,0,0-.652.13,1.872,1.872,0,0,0-.606.391l-7.581,7.567Zm10.2-8.825-1.363-1.378Zm-8.446,7.068v-1.4l4.4-4.4.708.692.677.723-4.387,4.387Zm5.11-5.11.677.723-1.386-1.414.708.692Zm.944,6.867h9.307v-2.211h-7.1ZM100-832.68v-24.656a2.572,2.572,0,0,1,.774-1.89,2.572,2.572,0,0,1,1.89-.774h22.672a2.572,2.572,0,0,1,1.89.774,2.571,2.571,0,0,1,.774,1.89v16.777a2.572,2.572,0,0,1-.774,1.89,2.571,2.571,0,0,1-1.89.774H105.215Zm4.274-7.425h21.062a.433.433,0,0,0,.312-.142.433.433,0,0,0,.142-.312v-16.777a.433.433,0,0,0-.142-.312.433.433,0,0,0-.312-.142H102.664a.433.433,0,0,0-.312.142.433.433,0,0,0-.142.312v19.271Zm-2.063,0v0Z" transform="translate(-97 863)" fill="#333"/>
  </g>
</svg>
