<svg xmlns="http://www.w3.org/2000/svg" width="54" height="54" viewBox="0 0 54 54">
  <g id="live_session_menu" transform="translate(-4.937 -38.384)">
    <rect id="Rectangle_5258" data-name="Rectangle 5258" width="54" height="54" transform="translate(4.937 38.384)" fill="none"/>
    <path id="Path_10380" data-name="Path 10380" d="M46.906,53.052a1.145,1.145,0,0,1,1.6-1.641,23.709,23.709,0,0,1,0,33.963,1.145,1.145,0,0,1-1.6-1.641,21.414,21.414,0,0,0,0-30.681ZM29.72,74.831l8.212-5.024a1.661,1.661,0,0,0,0-2.833L29.72,61.951a1.661,1.661,0,0,0-2.528,1.417V73.413A1.661,1.661,0,0,0,29.72,74.83Zm11.8-16.386a1.145,1.145,0,0,1,1.587-1.65,16.09,16.09,0,0,1,0,23.194,1.145,1.145,0,1,1-1.587-1.65,13.8,13.8,0,0,0,0-19.894ZM22.351,78.338a1.145,1.145,0,1,1-1.587,1.65,16.09,16.09,0,0,1,0-23.194,1.145,1.145,0,1,1,1.587,1.65,13.8,13.8,0,0,0,0,19.894Zm-5.385,5.393a1.145,1.145,0,1,1-1.6,1.641,23.709,23.709,0,0,1,0-33.963,1.145,1.145,0,0,1,1.6,1.641,21.414,21.414,0,0,0,0,30.681Z" transform="translate(-0.274 -2.702)" fill="#333"/>
  </g>
</svg>
