<svg xmlns="http://www.w3.org/2000/svg" width="50" height="50" viewBox="0 0 50 50">
  <g id="profile_home" transform="translate(10 10)">
    <rect id="Rectangle_5262" data-name="Rectangle 5262" width="50" height="50" transform="translate(-10 -10)" fill="#f79622" opacity="0"/>
    <path id="Path_10024" data-name="Path 10024" d="M18,34A16,16,0,0,1,6.686,6.686,16,16,0,0,1,29.314,29.314,15.9,15.9,0,0,1,18,34ZM4,18a14,14,0,0,0,23.9,9.9A14,14,0,0,0,8.1,8.1,13.908,13.908,0,0,0,4,18Z" transform="translate(-3 -3)" fill="#333"/>
    <path id="Path_10025" data-name="Path 10025" d="M14,18a6,6,0,1,1,6-6A6.007,6.007,0,0,1,14,18ZM14,8a4,4,0,1,0,4,4A4,4,0,0,0,14,8Z" transform="translate(1 -0.333)" fill="#333"/>
    <path id="Path_10026" data-name="Path 10026" d="M25.611,21.759a1,1,0,0,1-.958-.714A5.667,5.667,0,0,0,19.222,17H12.555a5.667,5.667,0,0,0-5.429,4.036,1,1,0,0,1-1.915-.576A7.667,7.667,0,0,1,12.553,15h6.671a7.667,7.667,0,0,1,7.345,5.472,1,1,0,0,1-.959,1.287Z" transform="translate(-0.888 5.667)" fill="#333"/>
  </g>
</svg>
