<svg xmlns="http://www.w3.org/2000/svg" width="62" height="62" viewBox="0 0 62 62">
  <g id="speakers_home" transform="translate(1.16 10.079)">
    <rect id="Rectangle_1" data-name="Rectangle 1" width="62" height="62" transform="translate(-1.16 -10.079)" fill="#f79622" opacity="0"/>
    <g id="icon_speaker" transform="translate(13.84 -1.079)">
      <g id="Group_20096" data-name="Group 20096">
        <g id="Path_10527" data-name="Path 10527" transform="translate(0.365 -2)" fill="none" stroke-linecap="round" stroke-linejoin="round">
          <path d="M9,2,9,9.024A7.024,7.024,0,0,1,16.024,2h0a7.024,7.024,0,0,1,7.024,7.024V20.73a7.024,7.024,0,0,1-7.024,7.024h0A7.024,7.024,0,0,1,9,20.73Z" stroke="none"/>
          <path d="M 16.02377700805664 2.000001907348633 C 12.14496421813965 2.000001907348633 8.999996185302734 5.144899368286133 8.999996185302734 9.023801803588867 L 8.999996185302734 20.73013305664062 C 8.999996185302734 24.60926246643066 12.14465522766113 27.7539234161377 16.02379608154297 27.7539234161377 C 19.90293502807617 27.7539234161377 23.0475959777832 24.60926246643066 23.0475959777832 20.73013305664062 L 23.0475959777832 9.023801803588867 C 23.0475959777832 5.144662857055664 19.90293502807617 2.000001907348633 16.02379608154297 2.000001907348633 C 16.0235595703125 2.000001907348633 16.02401351928711 2.000001907348633 16.02377700805664 2.000001907348633 M 16.02377700805664 -0.9999980926513672 C 16.02379608154297 -0.9999980926513672 16.02379608154297 -0.9999980926513672 16.02379608154297 -0.9999980926513672 C 21.55092620849609 -0.9999980926513672 26.0475959777832 3.496662139892578 26.0475959777832 9.023801803588867 L 26.0475959777832 20.73013305664062 C 26.0475959777832 26.25727272033691 21.55093574523926 30.7539234161377 16.02379608154297 30.7539234161377 C 10.49665641784668 30.7539234161377 5.999996185302734 26.25727272033691 5.999996185302734 20.73013305664062 L 5.999996185302734 9.023801803588867 C 5.999996185302734 3.496662139892578 10.49664688110352 -0.9999980926513672 16.02377700805664 -0.9999980926513672 Z" stroke="none" fill="#333"/>
        </g>
        <path id="Path_10528" data-name="Path 10528" d="M5,10a16.389,16.389,0,0,0,32.778,0" transform="translate(-5 8.73)" fill="none" stroke="#333" stroke-linecap="round" stroke-linejoin="round" stroke-width="3"/>
        <path id="Path_10529" data-name="Path 10529" d="M8,21H26.73" transform="translate(-0.976 23.484)" fill="none" stroke="#333" stroke-linecap="round" stroke-linejoin="round" stroke-width="3"/>
        <path id="Path_10530" data-name="Path 10530" d="M12,17v9.365" transform="translate(4.389 18.119)" fill="none" stroke="#333" stroke-linecap="round" stroke-linejoin="round" stroke-width="3"/>
      </g>
    </g>
  </g>
</svg>
