<svg xmlns="http://www.w3.org/2000/svg" width="36" height="36" viewBox="0 0 36 36">
  <g id="admin_settings" transform="translate(-27 -680.401)">
    <rect id="Rectangle_3952" data-name="Rectangle 3952" width="36" height="36" transform="translate(27 680.401)" fill="#8087b7" opacity="0"/>
    <g id="notification_icon" transform="translate(32 685.401)">
      <path id="notification_icon-2" data-name="notification_icon" d="M104.617-849.729a12.425,12.425,0,0,1,1.3-5.656,13.114,13.114,0,0,1,3.512-4.377l1.281,1.617a10.925,10.925,0,0,0-2.934,3.671,10.491,10.491,0,0,0-1.083,4.745Zm23.922,0a10.533,10.533,0,0,0-1.083-4.751,10.906,10.906,0,0,0-2.934-3.678l1.281-1.6a13.114,13.114,0,0,1,3.512,4.377,12.425,12.425,0,0,1,1.3,5.656ZM107.228-837.3v-2.078h2.5v-10.336a7.667,7.667,0,0,1,1.725-4.942,7.645,7.645,0,0,1,4.429-2.747v-.863a1.669,1.669,0,0,1,.506-1.225,1.669,1.669,0,0,1,1.225-.506,1.669,1.669,0,0,1,1.225.506,1.669,1.669,0,0,1,.506,1.225v.863a7.645,7.645,0,0,1,4.429,2.747,7.667,7.667,0,0,1,1.725,4.942v10.336h2.5v2.078ZM117.617-847.452Zm0,14.039a2.412,2.412,0,0,1-1.77-.734,2.412,2.412,0,0,1-.734-1.77h5.008a2.412,2.412,0,0,1-.734,1.77A2.412,2.412,0,0,1,117.617-833.413Zm-5.807-5.967h11.615v-10.336a5.6,5.6,0,0,0-1.7-4.106,5.6,5.6,0,0,0-4.106-1.7,5.6,5.6,0,0,0-4.106,1.7,5.6,5.6,0,0,0-1.7,4.106Z" transform="translate(-104.617 859.999)" fill="#333"/>
    </g>
  </g>
</svg>
