<svg xmlns="http://www.w3.org/2000/svg" width="24" height="24" viewBox="0 0 24 24">
  <g id="My_Profile" data-name="My Profile" transform="translate(-41 -30)">
    <rect id="Rectangle_5329" data-name="Rectangle 5329" width="24" height="24" transform="translate(41 30)" fill="#b4b4b4" opacity="0"/>
    <path id="Union_34" data-name="Union 34" d="M-2954.247-820.665a11.127,11.127,0,0,1-3.524-2.363,11.13,11.13,0,0,1-2.364-3.524A11,11,0,0,1-2961-830.9a11,11,0,0,1,.865-4.348,11.139,11.139,0,0,1,2.364-3.524,11.141,11.141,0,0,1,3.524-2.363A11.018,11.018,0,0,1-2949.9-842a11.017,11.017,0,0,1,4.347.865,11.141,11.141,0,0,1,3.524,2.363,11.143,11.143,0,0,1,2.364,3.524,11.006,11.006,0,0,1,.865,4.348,11,11,0,0,1-.865,4.347,11.134,11.134,0,0,1-2.364,3.524,11.127,11.127,0,0,1-3.524,2.363,11,11,0,0,1-4.347.865A11,11,0,0,1-2954.247-820.665Zm.972-4.1a8.553,8.553,0,0,0-2.622,1.43,8.914,8.914,0,0,0,2.705,1.524,9.673,9.673,0,0,0,3.292.585,9.672,9.672,0,0,0,3.291-.585,8.922,8.922,0,0,0,2.7-1.522,9.347,9.347,0,0,0-2.633-1.421,10.038,10.038,0,0,0-3.362-.55A10.31,10.31,0,0,0-2953.275-824.761Zm7.2-1.3a14.146,14.146,0,0,1,3.26,1.735,9.8,9.8,0,0,0,1.868-2.867,9.294,9.294,0,0,0,.729-3.7,9.374,9.374,0,0,0-2.828-6.851,9.372,9.372,0,0,0-6.85-2.827,9.373,9.373,0,0,0-6.851,2.827,9.373,9.373,0,0,0-2.828,6.851,9.294,9.294,0,0,0,.729,3.7,9.8,9.8,0,0,0,1.868,2.867,14.146,14.146,0,0,1,3.26-1.735,10.887,10.887,0,0,1,3.822-.659A10.885,10.885,0,0,1-2946.079-826.063Zm-6.5-5.216a3.655,3.655,0,0,1-1.091-2.677,3.658,3.658,0,0,1,1.09-2.677,3.653,3.653,0,0,1,2.677-1.09,3.657,3.657,0,0,1,2.677,1.089,3.654,3.654,0,0,1,1.091,2.677,3.657,3.657,0,0,1-1.09,2.677,3.654,3.654,0,0,1-2.677,1.091A3.655,3.655,0,0,1-2952.576-831.279Zm1.01-4.343a2.274,2.274,0,0,0-.678,1.667,2.274,2.274,0,0,0,.678,1.666,2.275,2.275,0,0,0,1.667.679,2.275,2.275,0,0,0,1.666-.679,2.275,2.275,0,0,0,.679-1.666,2.276,2.276,0,0,0-.679-1.667,2.274,2.274,0,0,0-1.666-.678A2.274,2.274,0,0,0-2951.566-835.622Z" transform="translate(3002.9 872.9)"/>
  </g>
</svg>
