<svg xmlns="http://www.w3.org/2000/svg" width="36" height="36" viewBox="0 0 36 36">
  <g id="My_Availability" transform="translate(-27 -680.151)">
    <rect id="Rectangle_3952" data-name="Rectangle 3952" width="36" height="36" transform="translate(27 680.151)" fill="#8087b7" opacity="0"/>
    <g id="my_availability-2" data-name="my_availability" transform="translate(31.255 685.418)">
      <path id="Path_9980" data-name="Path 9980" d="M23.6,3.4H22.4V1H20V3.4H8V1H5.6V3.4H4.4A2.4,2.4,0,0,0,2,5.8v18a2.4,2.4,0,0,0,2.4,2.4H23.6A2.4,2.4,0,0,0,26,23.8V5.8A2.4,2.4,0,0,0,23.6,3.4Zm0,20.4H4.4V8.332H23.6ZM12.506,20.829,7.627,15.95l1.7-1.7,3.182,3.182,6.17-6.17,1.7,1.7Z" transform="translate(-0.255 -0.267)" fill="#333"/>
    </g>
  </g>
</svg>
