<svg xmlns="http://www.w3.org/2000/svg" width="50" height="50" viewBox="0 0 50 50">
  <g id="my_notes" transform="translate(-1.313 5.943)">
    <rect id="Rectangle_1" data-name="Rectangle 1" width="50" height="50" transform="translate(1.313 -5.942)" fill="#f79622" opacity="0"/>
    <path id="notes" d="M142.894-795.188h13.914v-8h8v-13.914a.479.479,0,0,0-.138-.354.479.479,0,0,0-.354-.139H142.894a.479.479,0,0,0-.354.139.479.479,0,0,0-.138.354v21.425a.48.48,0,0,0,.138.354A.479.479,0,0,0,142.894-795.188Zm0,2.4a2.788,2.788,0,0,1-2.046-.848,2.789,2.789,0,0,1-.848-2.046v-21.425a2.788,2.788,0,0,1,.848-2.046,2.789,2.789,0,0,1,2.046-.848h21.425a2.789,2.789,0,0,1,2.046.848,2.788,2.788,0,0,1,.848,2.046v14.946l-9.374,9.374Zm3.417-10.836v-2.4h7.3v2.4Zm0-6.372v-2.4H160.9v2.4ZM142.4-795.188v0Z" transform="translate(-127.481 825.263)" fill="#333"/>
  </g>
</svg>
