<svg xmlns="http://www.w3.org/2000/svg" width="54" height="54" viewBox="0 0 54 54">
  <g id="nearby_attraction_menu" transform="translate(-0.038 0.696)">
    <rect id="Rectangle_1" data-name="Rectangle 1" width="54" height="54" transform="translate(0.038 -0.696)" fill="#f79622" opacity="0"/>
    <g id="noun-destination-6760257" transform="translate(-5.827 -5.072)">
      <path id="Path_10447" data-name="Path 10447" d="M18.755,51.521a1.537,1.537,0,0,0,.2.165A18.985,18.985,0,0,0,49.959,36.909a1.187,1.187,0,1,0-2.374,0,16.539,16.539,0,0,1-3.257,9.878,9.567,9.567,0,0,0-3.356-3.272,4.658,4.658,0,0,0-5.4-.171,5,5,0,0,1-4.634.343c-5.115-1.691-9.671,3.019-11.473,5.244a17.046,17.046,0,0,1-2.971-3.809,1.193,1.193,0,0,0,.189-.665c0-.2-.047-4.852,5.785-5.884,4.408-.771,7.428-2.78,8.075-5.337a3.911,3.911,0,0,0-1.471-4.093c-1.3-1.028-1.471-5.386-1.186-8.6.249-.047.505-.089.754-.125h0a1.2,1.2,0,1,0-.327-2.371,18.112,18.112,0,0,0-1.816.343h-.04a19.016,19.016,0,0,0-7.7,33.14Zm11.42-5.553a7.324,7.324,0,0,0,6.461-.487,2.353,2.353,0,0,1,3.05.064c2.374,1.495,2.8,2.735,2.872,3.25h0a16.618,16.618,0,0,1-21.276,1.673c1.508-1.828,5.186-5.726,8.914-4.5ZM25.428,21.193c-.185,2.876-.153,7.985,2.147,9.813h0a1.572,1.572,0,0,1,.671,1.652c-.31,1.217-2.112,2.883-6.187,3.607a8.976,8.976,0,0,0-7.119,5.19A16.64,16.64,0,0,1,25.428,21.2ZM38.646,34.742a4.457,4.457,0,0,0,7.714,0l5.985-10.334a11.355,11.355,0,1,0-19.667,0Zm-3.92-20.5a8.984,8.984,0,1,1,15.562,8.983L44.313,33.556a2.087,2.087,0,0,1-3.618,0L34.726,23.222a8.9,8.9,0,0,1,0-8.983Zm7.761,9.6a5.2,5.2,0,1,0-5.2-5.2,5.2,5.2,0,0,0,5.2,5.2Zm0-8.034a2.831,2.831,0,1,1-2.824,2.829A2.831,2.831,0,0,1,42.487,15.8Z" transform="translate(0)" fill="#333"/>
    </g>
  </g>
</svg>
