<svg xmlns="http://www.w3.org/2000/svg" width="40" height="40" viewBox="0 0 40 40">
  <g id="no_data_found" transform="translate(0 0)">
    <path id="Path_10519" data-name="Path 10519" d="M39.143,15.114V6.286A4.286,4.286,0,0,0,34.857,2H9.143A4.286,4.286,0,0,0,4.857,6.286V9.4A4.286,4.286,0,0,0,2,13.429V37.714A4.286,4.286,0,0,0,6.286,42H37.714A4.286,4.286,0,0,0,42,37.714V19.143a4.286,4.286,0,0,0-2.857-4.029Zm-30-10.257H34.857a1.429,1.429,0,0,1,1.429,1.429v8.571H22.343a1.429,1.429,0,0,1-1.286-.786l-1.271-2.557a4.286,4.286,0,0,0-3.843-2.371H7.714V6.286A1.429,1.429,0,0,1,9.143,4.857Zm30,32.857a1.429,1.429,0,0,1-1.429,1.429H6.286a1.429,1.429,0,0,1-1.429-1.429V13.429A1.429,1.429,0,0,1,6.286,12h9.657a1.429,1.429,0,0,1,1.286.786L18.5,15.343a4.286,4.286,0,0,0,3.843,2.371H37.714a1.429,1.429,0,0,1,1.429,1.429Z" transform="translate(-2 -2)" fill="#8a8a8e"/>
    <path id="Path_10522" data-name="Path 10522" d="M23.743,22.8a14.794,14.794,0,0,0-12.492,0,1.275,1.275,0,1,0,1.043,2.328,12.123,12.123,0,0,1,10.405,0A1.275,1.275,0,0,0,23.743,22.8Z" transform="translate(2.503 5.529)" fill="#8a8a8e"/>
    <circle id="Ellipse_2923" data-name="Ellipse 2923" cx="2.5" cy="2.5" r="2.5" transform="translate(12.779 19.86)" fill="#8a8a8e"/>
    <circle id="Ellipse_2924" data-name="Ellipse 2924" cx="2.5" cy="2.5" r="2.5" transform="translate(22.221 19.86)" fill="#8a8a8e"/>
  </g>
</svg>
