<svg xmlns="http://www.w3.org/2000/svg" width="21.687" height="21.687" viewBox="0 0 21.687 21.687">
  <path id="no_image" d="M142.306-798.313a2.226,2.226,0,0,1-1.636-.67,2.226,2.226,0,0,1-.67-1.636v-17.074a2.226,2.226,0,0,1,.67-1.636,2.226,2.226,0,0,1,1.636-.67H159.38a2.226,2.226,0,0,1,1.636.67,2.226,2.226,0,0,1,.67,1.636v17.074a2.226,2.226,0,0,1-.67,1.636,2.226,2.226,0,0,1-1.636.67Zm0-1.914H159.38a.375.375,0,0,0,.27-.123.374.374,0,0,0,.123-.27v-17.074a.374.374,0,0,0-.123-.27.374.374,0,0,0-.27-.123H142.306a.374.374,0,0,0-.27.123.374.374,0,0,0-.123.27v17.074a.374.374,0,0,0,.123.27A.374.374,0,0,0,142.306-800.227Zm1.84-2.87h13.493l-4.195-5.593-3.582,4.661-2.551-3.263Zm-2.232,2.87v0Z" transform="translate(-140 820)" fill="#333"/>
</svg>
