<svg xmlns="http://www.w3.org/2000/svg" xmlns:xlink="http://www.w3.org/1999/xlink" width="130.5" height="90.928" viewBox="0 0 130.5 90.928">
  <defs>
    <clipPath id="clip-path">
      <path id="Path_64" data-name="Path 64" d="M419.158,319.852H410.91v-8.683a4.124,4.124,0,0,1,4.124-4.124h0a4.124,4.124,0,0,1,4.124,4.124Z" transform="translate(-410.91 -307.045)" fill="none"/>
    </clipPath>
  </defs>
  <g id="OBJECT" transform="translate(-33.717 -95.83)">
    <path id="Path_1" data-name="Path 1" d="M176,388.319H56.636a2.3,2.3,0,0,1-2.3-2.3h0a2.3,2.3,0,0,1,2.3-2.3H176a2.3,2.3,0,0,1,2.3,2.3h0A2.3,2.3,0,0,1,176,388.319Z" transform="translate(-14.086 -201.561)" fill="#ff7129"/>
    <g id="Group_1" data-name="Group 1" transform="translate(68.774 95.83)">
      <rect id="Rectangle_2" data-name="Rectangle 2" width="88.289" height="63.336" rx="11" fill="#fff"/>
      <path id="Rectangle_3" data-name="Rectangle 3" d="M9.626,0H78.663a9.626,9.626,0,0,1,9.626,9.626v0a0,0,0,0,1,0,0H0a0,0,0,0,1,0,0v0A9.626,9.626,0,0,1,9.626,0Z" fill="#d6d6d6" opacity="0.5"/>
      <path id="Path_2" data-name="Path 2" d="M269.281,109.941H217.052a1.454,1.454,0,0,1-1.454-1.453h0a1.454,1.454,0,0,1,1.454-1.453h52.229a1.454,1.454,0,0,1,1.454,1.453h0A1.454,1.454,0,0,1,269.281,109.941Z" transform="translate(-195.765 -103.674)" fill="#f5f5f5"/>
      <path id="Path_3" data-name="Path 3" d="M165.056,109.108a1.188,1.188,0,1,1-1.188-1.187A1.188,1.188,0,0,1,165.056,109.108Z" transform="translate(-158.716 -104.295)" fill="#f5f5f5"/>
      <path id="Path_4" data-name="Path 4" d="M179.84,109.108a1.188,1.188,0,1,1-1.188-1.187A1.188,1.188,0,0,1,179.84,109.108Z" transform="translate(-169.067 -104.295)" fill="#f5f5f5"/>
      <path id="Path_5" data-name="Path 5" d="M194.382,109.108a1.187,1.187,0,1,1-1.187-1.187A1.188,1.188,0,0,1,194.382,109.108Z" transform="translate(-179.248 -104.295)" fill="#f5f5f5"/>
      <path id="Path_6" data-name="Path 6" d="M272.313,174.169l-7.465,7.465-7.465-7.465-4.5,4.5,7.465,7.465-7.465,7.465,4.5,4.5,7.465-7.465,7.465,7.465,4.5-4.5-7.465-7.465,7.465-7.465Z" transform="translate(-221.867 -150.677)" fill="#d6d6d6"/>
    </g>
    <g id="Group_6" data-name="Group 6" transform="translate(46.696 115.324)">
      <g id="Group_2" data-name="Group 2" transform="translate(60.977 28.51)">
        <path id="Path_7" data-name="Path 7" d="M324.755,294.24H294.18l2.415-34.588a4.069,4.069,0,0,1,4-3.736h23.1a3.438,3.438,0,0,1,3.475,3.736Z" transform="translate(-289.682 -255.916)" fill="#1282d6"/>
        <path id="Path_8" data-name="Path 8" d="M309.755,294.24H279.18l2.415-34.588a4.069,4.069,0,0,1,4-3.736h23.1a3.438,3.438,0,0,1,3.475,3.736Z" transform="translate(-279.18 -255.916)" fill="#3897e9"/>
      </g>
      <path id="Path_9" data-name="Path 9" d="M313.12,255.905a5.711,5.711,0,0,1,1.779,2.839,11.346,11.346,0,0,1,.055,3.689h0c.59.7,1.342,1.644,2.149,2.8a42.7,42.7,0,0,1,3.077,5.293c1.586,3.358,4.156,8.8,2.957,14.593a30.7,30.7,0,0,1-4.057,9.106h-17.4l2.131-38.328Z" transform="translate(-233.959 -227.395)" fill="#1282d6"/>
      <path id="Path_10" data-name="Path 10" d="M225,167.653c.085-.274,1.485-4.576,4.772-6.041a10.32,10.32,0,0,1,3.346-.768,10.026,10.026,0,0,1,1.96.138,10.174,10.174,0,0,1,4.068,1.5c3.019,2.141,4.768,7.5,4.446,12.162-.115,1.658-.508,3.36.57,4.633.581.687,1.546.915,2.914,1.334,2.842.871,7.518,1.971,9.4,5.776s2.109,9.168.871,10.635-30.775,1.329-31.821.184-2.971-6.693-3.2-11.093c-.2-3.912,2.537-5.532,3.2-10.354A20.922,20.922,0,0,0,225,167.653Z" transform="translate(-178.386 -160.839)" fill="#262626"/>
      <path id="Path_11" data-name="Path 11" d="M287.467,182.143a25.038,25.038,0,0,1,1.971,5.192c.936,3.642.2,4.224,1.054,5.626,1.9,3.115,6.038,1.213,9.993,4.768a11.473,11.473,0,0,1,3.245,5.317,12.824,12.824,0,0,1-.368,8.151" transform="translate(-224.005 -175.755)" fill="none" stroke="#262626" stroke-linecap="round" stroke-linejoin="round" stroke-width="1"/>
      <path id="Path_12" data-name="Path 12" d="M222.734,206.449c-.554,1.248-1.446,3.224-2.613,5.638-2.131,4.41-2.726,5.211-2.565,6.784.279,2.724,2.6,5.577,2.6,5.577" transform="translate(-175.041 -192.772)" fill="none" stroke="#262626" stroke-linecap="round" stroke-linejoin="round" stroke-width="1"/>
      <path id="Path_13" data-name="Path 13" d="M198.869,238.345h7.614c6.02,0,12.614,4.308,16.573,8.518A38.147,38.147,0,0,1,230.3,258.6c2.29,5.569,4.533,13.284,1.732,19.047a7.869,7.869,0,0,1-3.377,3.766c-2.212,1.12-4.523.452-5.24.452-4.676,0-46.114.013-46.114.013a53.682,53.682,0,0,1,2.567-23.3c1.432-4.111,3.106-8.752,7.476-13.16A29.132,29.132,0,0,1,198.869,238.345Z" transform="translate(-146.658 -215.104)" fill="#fec02d"/>
      <path id="Path_14" data-name="Path 14" d="M228.35,238.344l-5.317,43.716-3.438-.026,5.325-42.326Z" transform="translate(-176.485 -215.103)" fill="#eaa418"/>
      <g id="Group_3" data-name="Group 3" transform="translate(46.02 2.43)">
        <path id="Path_15" data-name="Path 15" d="M253.612,220.622h0a3.861,3.861,0,0,0,3.876-3.846l.031-8.31-7.722-.029-.031,8.31A3.861,3.861,0,0,0,253.612,220.622Z" transform="translate(-243.629 -196.594)" fill="#f7a99c"/>
        <path id="Path_16" data-name="Path 16" d="M249.78,222.359l5.03-2.584a5.9,5.9,0,0,1-2.131,3.884,5.68,5.68,0,0,1-2.905,1.163Z" transform="translate(-243.635 -204.532)" fill="#ff7769"/>
        <path id="Path_17" data-name="Path 17" d="M274.338,198.193c.025-.125.355-.315.457-.38a2.371,2.371,0,0,1,.551-.26,2.246,2.246,0,0,1,1.178-.061,2.081,2.081,0,0,1,1.581,1.616,2.357,2.357,0,0,1-.229,1.359,3.467,3.467,0,0,1-1.407,1.519,3.777,3.777,0,0,1-1.656.488,9.532,9.532,0,0,1-1.294-.066Q273.929,200.3,274.338,198.193Z" transform="translate(-260.26 -188.896)" fill="#f7a99c"/>
        <path id="Path_18" data-name="Path 18" d="M245.18,178.7a9.909,9.909,0,0,1-3.584,6.2c-.543.426-4.152,3.255-7.455,1.874-4.244-1.774-3.781-8.745-3.751-9.122.1-1.276.4-5.035,3.512-7.041A7.478,7.478,0,0,1,244.221,173,8.114,8.114,0,0,1,245.18,178.7Z" transform="translate(-230.043 -169.325)" fill="#f7a99c"/>
        <path id="Path_19" data-name="Path 19" d="M234.668,194.189a.835.835,0,1,1-.69-1.087A.919.919,0,0,1,234.668,194.189Z" transform="translate(-231.913 -185.854)" fill="#262626"/>
        <path id="Path_20" data-name="Path 20" d="M251.022,196.242a.835.835,0,1,1-.69-1.088A.919.919,0,0,1,251.022,196.242Z" transform="translate(-243.363 -187.291)" fill="#262626"/>
        <path id="Path_21" data-name="Path 21" d="M241.49,199.456l-.752,1.015a.4.4,0,0,0,.112.572l.69.42" transform="translate(-237.254 -190.306)" fill="none" stroke="#262626" stroke-linecap="round" stroke-linejoin="round" stroke-width="1.348"/>
        <path id="Path_22" data-name="Path 22" d="M255.145,204.416a1.114,1.114,0,1,1-.967-1.244A1.114,1.114,0,0,1,255.145,204.416Z" transform="translate(-245.841 -192.902)" fill="#ff7769"/>
        <path id="Path_23" data-name="Path 23" d="M277.975,204.471a2.065,2.065,0,0,1,.651-1.55,2.015,2.015,0,0,1,1.293-.5" transform="translate(-263.379 -192.381)" fill="none" stroke="#262626" stroke-linecap="round" stroke-linejoin="round" stroke-width="1.348"/>
        <path id="Path_24" data-name="Path 24" d="M279.934,204.621a.938.938,0,0,1,.794.27.909.909,0,0,1,.228.677" transform="translate(-264.751 -193.917)" fill="none" stroke="#262626" stroke-linecap="round" stroke-linejoin="round" stroke-width="1.348"/>
        <path id="Path_25" data-name="Path 25" d="M230.994,201.446a1.107,1.107,0,0,0-.6.093,15.991,15.991,0,0,0,.211,2.094c.036.008.07.02.107.025a1.114,1.114,0,1,0,.278-2.211Z" transform="translate(-230.07 -191.694)" fill="#ff7769"/>
        <path id="Path_26" data-name="Path 26" d="M240.02,210.978a2.3,2.3,0,0,1,2.8-.6" transform="translate(-236.806 -197.784)" fill="none" stroke="#262626" stroke-linecap="round" stroke-linejoin="round" stroke-width="1.348"/>
        <path id="Path_27" data-name="Path 27" d="M229.3,175.354h4.859a7.431,7.431,0,0,1,.665-2.361,4.536,4.536,0,0,1,1.215-1.261,7.022,7.022,0,0,0-.333,1.095,5.481,5.481,0,0,0-.154,1.289s0,.208.12,1.238h4.217a3.007,3.007,0,0,1,.586-3.094,8.389,8.389,0,0,0,.17,2.911,9.918,9.918,0,0,0,1.043,2.538,13.127,13.127,0,0,0,.871,1.388,5.324,5.324,0,0,1,1.037-1c.464-.281.938-.534.938-.534a7.088,7.088,0,0,0,.053-2.388,7.275,7.275,0,0,0-1.919-3.891,7.6,7.6,0,0,0-4.246-2.206,7.764,7.764,0,0,0-5.071.762A7.563,7.563,0,0,0,230,173.1,7.2,7.2,0,0,0,229.3,175.354Z" transform="translate(-229.301 -168.944)" fill="#262626"/>
      </g>
      <path id="Path_28" data-name="Path 28" d="M197.434,239.55s-4.7,19.274-5.254,25.737-.757,17.617-.757,17.617l-14.531-.186a48.506,48.506,0,0,1,2.7-24.1c1.942-4.982,4.288-11,10.383-15.4A25.123,25.123,0,0,1,197.434,239.55Z" transform="translate(-146.251 -215.947)" fill="#fdb6d6"/>
      <path id="Path_29" data-name="Path 29" d="M200.421,280.13l-6.051,31.063h3.622Z" transform="translate(-158.825 -244.359)" fill="#ff94ca"/>
      <path id="Path_30" data-name="Path 30" d="M209.932,261.633c-.332,1.869-.852,4.992-1.316,8.894-.569,4.779-.483,5.926-1.419,18.142-.28,3.662-.749,9.574-.749,9.574h0" transform="translate(-167.281 -231.408)" fill="none" stroke="#262626" stroke-linecap="round" stroke-linejoin="round" stroke-width="1"/>
      <g id="Group_4" data-name="Group 4" transform="translate(36.861 56.649)">
        <path id="Path_31" data-name="Path 31" d="M217.743,353a5.74,5.74,0,0,1,1.049,1.5,7.1,7.1,0,0,1,.607,3.123,9.992,9.992,0,0,1-.046,1.146s-7.105-2.292-8.16-2.2c-.929.081-5.558,1.265-6.647,1.545a.839.839,0,0,1-.458-.011l-1.559-.48-1.47.063a.708.708,0,0,1-.674-1,2.68,2.68,0,0,1,.219-.392,14.3,14.3,0,0,1,1.284-1.65l-2.356.425c-.228,0-.6-.031-.731-.26-.191-.342.279-.918.6-1.3a6.818,6.818,0,0,1,1.822-1.53,13.5,13.5,0,0,1,3.186-1.456,14.32,14.32,0,0,1,7.919-.349A13.469,13.469,0,0,1,217.743,353Z" transform="translate(-198.756 -349.754)" fill="#f7a99c"/>
        <path id="Path_32" data-name="Path 32" d="M251.621,359.544a3.931,3.931,0,0,1-.856,2.957,3.981,3.981,0,0,1-3.084,1.353l5.926,1.764a24.591,24.591,0,0,0-.061-2.641,7.493,7.493,0,0,0-.846-2.24A11.839,11.839,0,0,0,251.621,359.544Z" transform="translate(-233.01 -356.608)" fill="#ff7769"/>
        <path id="Path_33" data-name="Path 33" d="M211.34,366.773a12.35,12.35,0,0,1,7.724-3.942" transform="translate(-207.567 -358.91)" fill="none" stroke="#262626" stroke-linecap="round" stroke-linejoin="round" stroke-width="1"/>
        <path id="Path_34" data-name="Path 34" d="M206.437,364.534a9.1,9.1,0,0,1,3.143-3.317,34.322,34.322,0,0,1,4.057-1.673h0" transform="translate(-204.134 -356.608)" fill="none" stroke="#262626" stroke-linecap="round" stroke-linejoin="round" stroke-width="1"/>
        <path id="Path_35" data-name="Path 35" d="M208.843,359.1a5.977,5.977,0,0,1,2.422-2.174,13.518,13.518,0,0,1,2.934-.825h0" transform="translate(-205.818 -354.201)" fill="none" stroke="#262626" stroke-linecap="round" stroke-linejoin="round" stroke-width="1"/>
      </g>
      <path id="Path_36" data-name="Path 36" d="M266.841,238.345s-1.486,11.04-1.692,17.641-.417,17.877-.417,17.877L262.072,275a36.152,36.152,0,0,1,1.348,4.916,16.31,16.31,0,0,1,0,2.146c3.889-.076,7.05.02,9.224.123,1.849.087,4.6.1,10.108.137a11.2,11.2,0,0,0,5.47-.91,10.2,10.2,0,0,0,3.469-2.94c.9-1.224,2.3-3.819,1.513-10.245a37.183,37.183,0,0,0-8.045-19.184,31.511,31.511,0,0,0-8.476-7.4,26.871,26.871,0,0,0-6.436-2.672A24.691,24.691,0,0,0,266.841,238.345Z" transform="translate(-206.225 -215.104)" fill="#fdb6d6"/>
      <path id="Path_37" data-name="Path 37" d="M297.509,308.716a17.476,17.476,0,0,1-1.636,8.182,17.126,17.126,0,0,1-2.75,4.123l5.684-1.465Z" transform="translate(-227.965 -264.373)" fill="#ff94ca"/>
      <path id="Path_38" data-name="Path 38" d="M283.531,340.054s-16.6,4.08-18.8,5.019l-2.659,1.134" transform="translate(-206.225 -286.314)" fill="none" stroke="#262626" stroke-linecap="round" stroke-linejoin="round" stroke-width="1"/>
      <path id="Path_39" data-name="Path 39" d="M297.456,282.729s8.159,15.356,5.73,21.636a9.757,9.757,0,0,1-3.245,4.546c-1.925,1.415-4,1.638-7.573,1.734a117.307,117.307,0,0,1-12.239-.321" transform="translate(-218.867 -246.178)" fill="none" stroke="#fff" stroke-linecap="round" stroke-linejoin="round" stroke-width="1"/>
      <path id="Path_40" data-name="Path 40" d="M314.409,264.093a11.475,11.475,0,0,0-5.727,4.351s-2.432,3.746.564,20h0" transform="translate(-238.206 -233.131)" fill="none" stroke="#262626" stroke-linecap="round" stroke-linejoin="round" stroke-width="1"/>
      <g id="Group_5" data-name="Group 5" transform="translate(0 41.847)">
        <path id="Rectangle_4" data-name="Rectangle 4" d="M0,0H23.424a0,0,0,0,1,0,0V0a2.668,2.668,0,0,1-2.668,2.668H0a0,0,0,0,1,0,0V0A0,0,0,0,1,0,0Z" transform="translate(34.331 22.704)" fill="#374acc"/>
        <path id="Path_41" data-name="Path 41" d="M116.817,325.764H86.082a1.479,1.479,0,0,1-1.428-1.272l-2.791-22.828a1.1,1.1,0,0,1,1.117-1.272h30.735a1.479,1.479,0,0,1,1.427,1.272l2.791,22.828A1.1,1.1,0,0,1,116.817,325.764Z" transform="translate(-80.048 -300.392)" fill="#374acc"/>
        <path id="Path_42" data-name="Path 42" d="M110.817,325.764H80.082a1.479,1.479,0,0,1-1.428-1.272l-2.791-22.828a1.1,1.1,0,0,1,1.117-1.272h30.735a1.479,1.479,0,0,1,1.427,1.272l2.791,22.828A1.1,1.1,0,0,1,110.817,325.764Z" transform="translate(-75.847 -300.392)" fill="#4450e4"/>
        <path id="Path_43" data-name="Path 43" d="M75.848,304.633c.223-.061,1.037,7.056,5.688,13.463a23.473,23.473,0,0,0,4.721,5s2.507,1.952,11.85,5.64H81.3a3.8,3.8,0,0,1-2-.214,1.9,1.9,0,0,1-.744-1.428c-.048-.39-.042-.784-.086-1.175s-.118-.769-.166-1.156q-.155-1.267-.31-2.534l-.506-4.144q-.273-2.235-.546-4.469l-.507-4.15c-.13-1.062-.24-2.126-.39-3.186A8.225,8.225,0,0,1,75.848,304.633Z" transform="translate(-75.832 -303.361)" fill="#5d6ff4"/>
        <path id="Path_44" data-name="Path 44" d="M85.193,380.761" transform="translate(-82.386 -356.661)" fill="none" stroke="#262626" stroke-linecap="round" stroke-linejoin="round" stroke-width="1"/>
        <path id="Path_45" data-name="Path 45" d="M89.954,385" transform="translate(-85.719 -359.631)" fill="none" stroke="#262626" stroke-linecap="round" stroke-linejoin="round" stroke-width="1"/>
        <path id="Path_46" data-name="Path 46" d="M192.45,385" transform="translate(-157.48 -359.631)" fill="none" stroke="#262626" stroke-linecap="round" stroke-linejoin="round" stroke-width="1"/>
        <path id="Path_47" data-name="Path 47" d="M79.61,300.392h30.735a1.479,1.479,0,0,1,1.427,1.272l2.791,22.828" transform="translate(-78.477 -300.392)" fill="none" stroke="#262626" stroke-linecap="round" stroke-linejoin="round" stroke-width="1"/>
        <path id="Path_48" data-name="Path 48" d="M75.886,304.634" transform="translate(-75.87 -303.362)" fill="none" stroke="#262626" stroke-linecap="round" stroke-linejoin="round" stroke-width="1"/>
        <path id="Path_49" data-name="Path 49" d="M130.728,336.443a1.771,1.771,0,1,1-1.771-1.771A1.771,1.771,0,0,1,130.728,336.443Z" transform="translate(-111.787 -324.393)" fill="#fec02d"/>
      </g>
      <path id="Path_50" data-name="Path 50" d="M357.786,262.856H361.2a2.575,2.575,0,0,1,2.568,2.768L362.725,279.5" transform="translate(-273.238 -232.265)" fill="none" stroke="#fff" stroke-linecap="round" stroke-linejoin="round" stroke-width="1"/>
    </g>
    <g id="Group_7" data-name="Group 7" transform="translate(34.217 132.019)">
      <rect id="Rectangle_5" data-name="Rectangle 5" width="41.765" height="29.961" rx="7" fill="#fff"/>
      <path id="Rectangle_6" data-name="Rectangle 6" d="M4.554,0H37.212a4.554,4.554,0,0,1,4.554,4.554v0a0,0,0,0,1,0,0H0a0,0,0,0,1,0,0v0A4.554,4.554,0,0,1,4.554,0Z" fill="#d6d6d6" opacity="0.5"/>
      <path id="Path_51" data-name="Path 51" d="M90.9,223.188H66.193a.688.688,0,0,1-.688-.688h0a.688.688,0,0,1,.688-.688H90.9a.688.688,0,0,1,.688.688h0A.687.687,0,0,1,90.9,223.188Z" transform="translate(-56.123 -220.224)" fill="#f5f5f5"/>
      <path id="Path_52" data-name="Path 52" d="M41.6,222.795a.562.562,0,1,1-.562-.562A.562.562,0,0,1,41.6,222.795Z" transform="translate(-38.597 -220.518)" fill="#f5f5f5"/>
      <path id="Path_53" data-name="Path 53" d="M48.59,222.795a.562.562,0,1,1-.562-.562A.562.562,0,0,1,48.59,222.795Z" transform="translate(-43.493 -220.518)" fill="#f5f5f5"/>
      <path id="Path_54" data-name="Path 54" d="M55.469,222.795a.562.562,0,1,1-.562-.562A.562.562,0,0,1,55.469,222.795Z" transform="translate(-48.309 -220.518)" fill="#f5f5f5"/>
      <path id="Path_55" data-name="Path 55" d="M92.334,253.572,88.8,257.1l-3.531-3.531L83.141,255.7l3.531,3.531-3.531,3.531,2.131,2.131,3.531-3.531,3.531,3.531,2.131-2.131-3.531-3.531,3.531-3.531Z" transform="translate(-68.471 -242.459)" fill="#d6d6d6"/>
      <rect id="Rectangle_7" data-name="Rectangle 7" width="41.765" height="29.961" rx="6" fill="none" stroke="#262626" stroke-linecap="round" stroke-linejoin="round" stroke-width="1"/>
    </g>
    <g id="Group_8" data-name="Group 8" transform="translate(87.283 110.589)">
      <line id="Line_1" data-name="Line 1" x2="4.639" y2="1.925" transform="translate(0.201 5.16)" fill="none" stroke="#ff7129" stroke-linecap="round" stroke-linejoin="round" stroke-width="1"/>
      <line id="Line_2" data-name="Line 2" x2="5.871" y2="5.576" transform="translate(0 0.083)" fill="none" stroke="#ff7129" stroke-linecap="round" stroke-linejoin="round" stroke-width="1"/>
      <line id="Line_3" data-name="Line 3" x2="2.161" y2="4.534" transform="translate(5.101)" fill="none" stroke="#ff7129" stroke-linecap="round" stroke-linejoin="round" stroke-width="1"/>
    </g>
    <g id="Group_10" data-name="Group 10" transform="translate(146.388 121.725)">
      <g id="Group_9" data-name="Group 9" transform="translate(0 0)">
        <path id="Path_56" data-name="Path 56" d="M410.463,195.959a12.16,12.16,0,0,1,1.269-2.568,4.757,4.757,0,0,1,1.687-1.476,4.992,4.992,0,0,1,1.285-.506,9.774,9.774,0,0,0,1.276-.4,4.441,4.441,0,0,0,1.1-.623,2.677,2.677,0,0,0,.811-1.2,2.37,2.37,0,0,0-.025-2.21,3.193,3.193,0,0,0-1.586-1.232,2.459,2.459,0,0,0-2.363.046,5.125,5.125,0,0,0-1.552,1.962l-3.617-1.38a7.127,7.127,0,0,1,1.4-2.325,5.681,5.681,0,0,1,2-1.42,6.029,6.029,0,0,1,2.451-.446,8.026,8.026,0,0,1,2.726.558,8.753,8.753,0,0,1,4.311,3.058,4.882,4.882,0,0,1,.223,4.679,6.484,6.484,0,0,1-.781,1.5,4.435,4.435,0,0,1-1.012,1.011,5.768,5.768,0,0,1-1.288.681q-.715.274-1.58.522a8.943,8.943,0,0,0-1.332.5,3.268,3.268,0,0,0-.9.636,3.467,3.467,0,0,0-.611.843,10.5,10.5,0,0,0-.479,1.086Zm-2.176,5.37,1.4-3.674,3.785,1.444-1.4,3.673Z" transform="translate(-408.287 -182.184)" fill="#fdb6d6"/>
      </g>
    </g>
    <g id="Group_12" data-name="Group 12" transform="translate(45.815 107.021)">
      <g id="Group_11" data-name="Group 11" transform="translate(0 0)">
        <path id="Path_57" data-name="Path 57" d="M78.029,142.636a7.593,7.593,0,0,1-.491-1.718,2.971,2.971,0,0,1,.16-1.389,3.1,3.1,0,0,1,.381-.772,6.089,6.089,0,0,0,.423-.718,2.769,2.769,0,0,0,.249-.751,1.67,1.67,0,0,0-.129-.895,1.478,1.478,0,0,0-.938-1.01,1.993,1.993,0,0,0-1.249.1,1.535,1.535,0,0,0-1.072,1.012,3.2,3.2,0,0,0,.106,1.556l-2.249.88a4.447,4.447,0,0,1-.328-1.661,3.541,3.541,0,0,1,.33-1.5,3.76,3.76,0,0,1,.945-1.234,5,5,0,0,1,1.493-.885,5.462,5.462,0,0,1,3.273-.4A3.044,3.044,0,0,1,81,135.323a4.038,4.038,0,0,1,.269,1.021,2.763,2.763,0,0,1-.043.891,3.607,3.607,0,0,1-.309.855q-.215.426-.511.9a5.52,5.52,0,0,0-.4.791,2.033,2.033,0,0,0-.15.671,2.165,2.165,0,0,0,.072.645,6.525,6.525,0,0,0,.234.7Zm1.246,3.392-.893-2.284,2.353-.92.893,2.284Z" transform="translate(-72.894 -133.149)" fill="#fdb6d6"/>
      </g>
    </g>
    <path id="Path_58" data-name="Path 58" d="M416.787,359.939h-9.567l-.638-10.185h10.843Z" transform="translate(-260.706 -177.781)" fill="#fec02d"/>
    <path id="Path_59" data-name="Path 59" d="M419.158,319.852H410.91v-8.683a4.124,4.124,0,0,1,4.124-4.124h0a4.124,4.124,0,0,1,4.124,4.124Z" transform="translate(-263.735 -147.879)" fill="#94e261"/>
    <g id="Group_19" data-name="Group 19" transform="translate(147.175 159.166)">
      <g id="Group_18" data-name="Group 18" clip-path="url(#clip-path)">
        <g id="Group_17" data-name="Group 17" transform="translate(0.814 0.172)">
          <g id="Group_13" data-name="Group 13" transform="translate(0 1.085)">
            <path id="Path_60" data-name="Path 60" d="M414.316,311.237c0,1.154-.693,1.154-.693,2.309s.693,1.155.693,2.31-.693,1.155-.693,2.309.693,1.155.693,2.311-.693,1.155-.693,2.311" transform="translate(-413.623 -311.237)" fill="none" stroke="#262626" stroke-linecap="round" stroke-linejoin="round" stroke-width="0.5"/>
          </g>
          <g id="Group_14" data-name="Group 14" transform="translate(1.749)">
            <path id="Path_61" data-name="Path 61" d="M420.213,307.62c0,1.263-.758,1.263-.758,2.526s.758,1.263.758,2.527-.758,1.263-.758,2.526.758,1.264.758,2.528-.758,1.264-.758,2.528" transform="translate(-419.455 -307.62)" fill="none" stroke="#262626" stroke-linecap="round" stroke-linejoin="round" stroke-width="0.5"/>
          </g>
          <g id="Group_15" data-name="Group 15" transform="translate(4.423 0.105)">
            <path id="Path_62" data-name="Path 62" d="M429.126,307.97c0,1.253-.752,1.253-.752,2.505s.752,1.253.752,2.506-.752,1.253-.752,2.505.752,1.253.752,2.507-.752,1.253-.752,2.507" transform="translate(-428.374 -307.97)" fill="none" stroke="#262626" stroke-linecap="round" stroke-linejoin="round" stroke-width="0.5"/>
          </g>
          <g id="Group_16" data-name="Group 16" transform="translate(6.378 1.615)">
            <path id="Path_63" data-name="Path 63" d="M435.553,313.006c0,1.1-.661,1.1-.661,2.2s.661,1.1.661,2.2-.661,1.1-.661,2.2.661,1.1.661,2.2-.661,1.1-.661,2.2" transform="translate(-434.892 -313.006)" fill="none" stroke="#262626" stroke-linecap="round" stroke-linejoin="round" stroke-width="0.5"/>
          </g>
        </g>
      </g>
    </g>
    <path id="Path_65" data-name="Path 65" d="M418.916,349.754l-.638,10.185h-9.567a14.478,14.478,0,0,0,10.2-10.185Z" transform="translate(-262.196 -177.781)" fill="#eaa418"/>
    <path id="Path_66" data-name="Path 66" d="M428.613,355.151a14.452,14.452,0,0,1-5.268,6.548" transform="translate(-272.442 -181.56)" fill="none" stroke="#262626" stroke-linecap="round" stroke-linejoin="round" stroke-width="0.5"/>
  </g>
</svg>
