<svg xmlns="http://www.w3.org/2000/svg" width="34" height="34" viewBox="0 0 34 34">
  <g id="no_speakers" transform="translate(-271 -424)">
    <circle id="Ellipse_21" data-name="Ellipse 21" cx="17" cy="17" r="17" transform="translate(271 424)" fill="#f4f3f7"/>
    <g id="no_speaker" transform="translate(279 431)">
      <path id="Path_13730" data-name="Path 13730" d="M32,22.5A4.5,4.5,0,1,0,36.5,18,4.506,4.506,0,0,0,32,22.5Zm6.75,0a2.25,2.25,0,1,1-2.25-2.25A2.253,2.253,0,0,1,38.75,22.5Z" transform="translate(-28.062 -18)" fill="#8a8a8e"/>
      <path id="Path_13731" data-name="Path 13731" d="M19,63.306a.953.953,0,0,0,.127.006,1.125,1.125,0,0,0,1.116-1,4.562,4.562,0,0,1,4.536-4.061h1.094a1.125,1.125,0,0,0,0-2.25H24.778A6.81,6.81,0,0,0,18,62.063,1.127,1.127,0,0,0,19,63.306Z" transform="translate(-17.996 -45.313)" fill="#8a8a8e"/>
      <path id="Path_13732" data-name="Path 13732" d="M63.7,56.329a1.127,1.127,0,0,0-1.592,0l-1.595,1.595-1.595-1.595a1.126,1.126,0,1,0-1.592,1.592l1.595,1.595L57.329,61.11A1.126,1.126,0,0,0,58.921,62.7l1.595-1.595L62.11,62.7A1.126,1.126,0,0,0,63.7,61.11l-1.595-1.595L63.7,57.921a1.127,1.127,0,0,0,0-1.592Z" transform="translate(-46.031 -45.313)" fill="#8a8a8e"/>
    </g>
  </g>
</svg>
