<svg id="notes_icon" xmlns="http://www.w3.org/2000/svg" width="42" height="22" viewBox="0 0 42 22">
  <rect id="Rectangle_5280" data-name="Rectangle 5280" width="42" height="22" rx="11" fill="#f4f3f7"/>
  <path id="notes" d="M141.605-806.234h7.72v-4.44h4.44v-7.72a.266.266,0,0,0-.077-.2.266.266,0,0,0-.2-.077H141.605a.266.266,0,0,0-.2.077.266.266,0,0,0-.077.2v11.887a.266.266,0,0,0,.077.2A.266.266,0,0,0,141.605-806.234Zm0,1.332a1.547,1.547,0,0,1-1.135-.47,1.547,1.547,0,0,1-.47-1.135v-11.887a1.547,1.547,0,0,1,.47-1.135,1.547,1.547,0,0,1,1.135-.471h11.887a1.547,1.547,0,0,1,1.135.471,1.547,1.547,0,0,1,.47,1.135v8.292l-5.2,5.2Zm1.9-6.012v-1.332h4.048v1.332Zm0-3.535v-1.332h8.1v1.332Zm-2.169,8.215v0Z" transform="translate(-125.549 823.451)" fill="#8a8a8e"/>
</svg>
