<svg id="pdf" xmlns="http://www.w3.org/2000/svg" width="18" height="21.988" viewBox="0 0 18 21.988">
  <path id="Path_10302" data-name="Path 10302" d="M113.949,69.988H101.431a2.744,2.744,0,0,1-2.741-2.741V50.741A2.744,2.744,0,0,1,101.431,48h8.21a.82.82,0,0,1,.58.24l6.229,6.229a.82.82,0,0,1,.241.58v12.2A2.744,2.744,0,0,1,113.949,69.988ZM101.431,49.641a1.1,1.1,0,0,0-1.1,1.1V67.247a1.1,1.1,0,0,0,1.1,1.1h12.518a1.1,1.1,0,0,0,1.1-1.1V55.389L109.3,49.641Z" transform="translate(-98.69 -48)" fill="#333"/>
  <path id="Path_10303" data-name="Path 10303" d="M290.94,55.87h-4.309a2.744,2.744,0,0,1-2.741-2.741V48.82a.82.82,0,1,1,1.641,0v4.308a1.1,1.1,0,0,0,1.1,1.1h4.308a.82.82,0,0,1,0,1.641Z" transform="translate(-273.76 -48)" fill="#333"/>
  <path id="Path_10304" data-name="Path 10304" d="M156,261.48a.376.376,0,0,1,.42-.34h1.494a1.52,1.52,0,0,1,1.709,1.665v.036a1.566,1.566,0,0,1-1.781,1.68h-.715v1.564c0,.232-.282.347-.565.347s-.562-.115-.562-.347Zm1.129.644v1.528h.717c.405,0,.652-.231.652-.724v-.08c0-.492-.247-.724-.652-.724Z" transform="translate(-152.865 -249.482)" fill="#333"/>
  <path id="Path_10305" data-name="Path 10305" d="M233.034,261.14a1.574,1.574,0,0,1,1.781,1.709v1.876a1.574,1.574,0,0,1-1.781,1.708h-1.282c-.3,0-.492-.159-.492-.34V261.48c0-.181.2-.34.492-.34Zm-.644.984v3.323h.644c.406,0,.652-.231.652-.724v-1.876c0-.492-.246-.724-.652-.724Z" transform="translate(-224.009 -249.482)" fill="#333"/>
  <path id="Path_10306" data-name="Path 10306" d="M309.351,261.488c0-.232.246-.348.492-.348h2.512c.239,0,.341.254.341.485,0,.268-.123.5-.341.5h-1.876v1.224h1.094c.219,0,.34.209.34.441,0,.2-.1.427-.34.427h-1.094v1.868c0,.232-.282.347-.564.347s-.565-.115-.565-.347Z" transform="translate(-297.828 -249.482)" fill="#333"/>
</svg>
