<svg xmlns="http://www.w3.org/2000/svg" width="12" height="12" viewBox="0 0 12 12">
  <g id="phone" transform="translate(0 0)">
    <path id="phone-2" data-name="phone" d="M131.3-828a10.006,10.006,0,0,1-4.117-.908,12.314,12.314,0,0,1-3.7-2.575,12.315,12.315,0,0,1-2.575-3.7A10.007,10.007,0,0,1,120-839.3a.678.678,0,0,1,.2-.5.678.678,0,0,1,.5-.2h2.7a.62.62,0,0,1,.417.158.609.609,0,0,1,.217.375l.433,2.333a1.175,1.175,0,0,1-.017.45.7.7,0,0,1-.183.317l-1.617,1.633a8.056,8.056,0,0,0,.792,1.192,11.71,11.71,0,0,0,1.008,1.108,11.736,11.736,0,0,0,1.083.958,10.547,10.547,0,0,0,1.2.808l1.567-1.567a.934.934,0,0,1,.392-.225,1.075,1.075,0,0,1,.475-.042l2.3.467a.771.771,0,0,1,.383.242.586.586,0,0,1,.15.392v2.7a.678.678,0,0,1-.2.5A.678.678,0,0,1,131.3-828Z" transform="translate(-120 840)" fill="#8a8a8e"/>
  </g>
</svg>
