<svg xmlns="http://www.w3.org/2000/svg" width="54" height="54" viewBox="0 0 54 54">
  <g id="photobooth_menu" transform="translate(-0.038 0.696)">
    <rect id="Rectangle_1" data-name="Rectangle 1" width="54" height="54" transform="translate(0.038 -0.696)" fill="#f79622" opacity="0"/>
    <g id="Group_19951" data-name="Group 19951" transform="translate(6.038 6.304)">
      <path id="Path_10500" data-name="Path 10500" d="M36.131,8.334H30.4l-.667-2A4.86,4.86,0,0,0,25.119,3H16.884a4.861,4.861,0,0,0-4.618,3.334l-.668,2H5.869A4.874,4.874,0,0,0,1,13.2V32.8a4.874,4.874,0,0,0,4.869,4.863H36.136A4.874,4.874,0,0,0,41,32.8V13.2a4.875,4.875,0,0,0-4.869-4.864Zm2.2,24.464a2.205,2.205,0,0,1-2.2,2.2H5.869a2.205,2.205,0,0,1-2.2-2.2V13.2a2.205,2.205,0,0,1,2.2-2.2h6.686a1.333,1.333,0,0,0,1.263-.912l.974-2.914a2.2,2.2,0,0,1,2.089-1.5h8.235a2.2,2.2,0,0,1,2.091,1.5l.972,2.915A1.333,1.333,0,0,0,29.444,11H36.13a2.205,2.205,0,0,1,2.2,2.2Z" transform="translate(0 0)" fill="#333"/>
      <path id="Path_10501" data-name="Path 10501" d="M17.365,10a8.865,8.865,0,1,0,8.865,8.865A8.865,8.865,0,0,0,17.365,10Zm0,15.365a6.5,6.5,0,1,1,6.5-6.5A6.5,6.5,0,0,1,17.365,25.365Z" transform="translate(3.636 3.779)" fill="#333"/>
      <circle id="Ellipse_2916" data-name="Ellipse 2916" cx="1.5" cy="1.5" r="1.5" transform="translate(33.542 13.278)" fill="#333"/>
    </g>
  </g>
</svg>
