<svg xmlns="http://www.w3.org/2000/svg" width="54" height="54" viewBox="0 0 54 54">
  <g id="photobooth_menu" transform="translate(-0.038 0.696)">
    <rect id="Rectangle_1" data-name="Rectangle 1" width="54" height="54" transform="translate(0.038 -0.696)" fill="#f79622" opacity="0"/>
    <path id="photo_frame_24dp_E8EAED_FILL0_wght300_GRAD0_opsz24" d="M69.478-745.584a1.917,1.917,0,0,1-1.413-.567,1.917,1.917,0,0,1-.567-1.413v-1.769H63.96a3.822,3.822,0,0,1-2.81-1.15,3.823,3.823,0,0,1-1.15-2.81V-776.04a3.822,3.822,0,0,1,1.15-2.81A3.822,3.822,0,0,1,63.96-780h38.08a3.822,3.822,0,0,1,2.81,1.15,3.822,3.822,0,0,1,1.15,2.81v22.747a3.823,3.823,0,0,1-1.15,2.81,3.823,3.823,0,0,1-2.81,1.15H98.5v1.769a1.917,1.917,0,0,1-.567,1.413,1.917,1.917,0,0,1-1.413.567Zm-5.518-7.035h38.08a.644.644,0,0,0,.463-.211.643.643,0,0,0,.211-.463V-776.04a.643.643,0,0,0-.211-.463.643.643,0,0,0-.463-.211H63.96a.643.643,0,0,0-.463.211.643.643,0,0,0-.211.463v22.747a.643.643,0,0,0,.211.463A.644.644,0,0,0,63.96-752.619Zm5.245-4.928H96.817l-8.762-11.69-7.246,9.309-5.034-6.066L69.2-757.548Zm-5.919,4.928v0Z" transform="translate(-55.962 789.096)" fill="#333"/>
  </g>
</svg>
