<svg xmlns="http://www.w3.org/2000/svg" width="62" height="62" viewBox="0 0 62 62">
  <g id="polls_home" transform="translate(-1.09 5.784)">
    <rect id="Rectangle_1" data-name="Rectangle 1" width="62" height="62" transform="translate(1.09 -5.784)" fill="#f79622" opacity="0"/>
    <path id="polls_icon" d="M4.924,42A5.924,5.924,0,0,1-1,36.076V5.925A5.924,5.924,0,0,1,4.924,0H35.075A5.925,5.925,0,0,1,41,5.925V36.076A5.925,5.925,0,0,1,35.075,42ZM2.493,5.925V36.076a2.453,2.453,0,0,0,2.431,2.431H35.075a2.453,2.453,0,0,0,2.431-2.431V5.925a2.453,2.453,0,0,0-2.431-2.432H4.924A2.453,2.453,0,0,0,2.493,5.925ZM27.65,32.054c-.357,0-.65-.4-.65-.885V20.735c0-.486.293-.884.65-.884h2.7c.357,0,.65.4.65.884V31.169c0,.487-.293.885-.65.885Zm-8,0c-.358,0-.651-.4-.651-.885V10.832c0-.486.292-.884.651-.884h2.7c.325,0,.617.4.651.884V31.169c0,.487-.293.885-.651.885Zm-8,0c-.357,0-.651-.4-.651-.885V16c0-.486.293-.884.651-.884h2.7c.358,0,.651.4.651.884V31.169c0,.487-.293.885-.651.885Z" transform="translate(12.09 4.215)" fill="#414042"/>
  </g>
</svg>
