<svg xmlns="http://www.w3.org/2000/svg" width="36" height="36" viewBox="0 0 36 36">
  <g id="my_favourites" transform="translate(-29 -420.483)">
    <rect id="Rectangle_3948" data-name="Rectangle 3948" width="36" height="36" transform="translate(29 420.483)" fill="#8087b7" opacity="0"/>
    <path id="privacy_prefrence" d="M92.727-854.545a12.911,12.911,0,0,1-5.027-.97,12.423,12.423,0,0,1-4.041-2.689,12.421,12.421,0,0,1-2.689-4.041,12.909,12.909,0,0,1-.97-5.027,12.826,12.826,0,0,1,.97-5,12.421,12.421,0,0,1,2.689-4.041,12.634,12.634,0,0,1,4.041-2.7A12.728,12.728,0,0,1,92.727-880a12.647,12.647,0,0,1,5,.986,12.634,12.634,0,0,1,4.041,2.7,12.634,12.634,0,0,1,2.7,4.041,12.646,12.646,0,0,1,.986,5q0,.255-.016.509t-.048.509q-.414-.255-.907-.541a8.726,8.726,0,0,0-.939-.477,10.474,10.474,0,0,0-3.1-7.716,10.474,10.474,0,0,0-7.716-3.1,11,11,0,0,0-3.914.684,10.111,10.111,0,0,0-3.15,1.861l8.686,8.686q-.414.191-.8.414t-.764.477l-8.368-8.368a10.27,10.27,0,0,0-1.845,3.182,11.14,11.14,0,0,0-.668,3.882,10.574,10.574,0,0,0,2.37,6.889,10.294,10.294,0,0,0,6.093,3.675q.477.541,1.114,1.145A10.092,10.092,0,0,0,92.727-854.545Zm6.364-1.909a7.653,7.653,0,0,0,3.85-1.034,8.551,8.551,0,0,0,2.959-2.784,8.551,8.551,0,0,0-2.959-2.784,7.652,7.652,0,0,0-3.85-1.034,7.653,7.653,0,0,0-3.85,1.034,8.551,8.551,0,0,0-2.959,2.784,8.551,8.551,0,0,0,2.959,2.784A7.653,7.653,0,0,0,99.091-856.455Zm0,1.909a9.589,9.589,0,0,1-5.457-1.607,9.124,9.124,0,0,1-3.452-4.12,9.125,9.125,0,0,1,3.452-4.12A9.59,9.59,0,0,1,99.091-866a9.59,9.59,0,0,1,5.457,1.607,9.124,9.124,0,0,1,3.452,4.12,9.124,9.124,0,0,1-3.452,4.12A9.589,9.589,0,0,1,99.091-854.545Zm0-3.818a1.841,1.841,0,0,1-1.352-.557,1.841,1.841,0,0,1-.557-1.352,1.841,1.841,0,0,1,.557-1.352,1.841,1.841,0,0,1,1.352-.557,1.841,1.841,0,0,1,1.352.557,1.841,1.841,0,0,1,.557,1.352,1.841,1.841,0,0,1-.557,1.352A1.841,1.841,0,0,1,99.091-858.364Z" transform="translate(-47 1305.483)" fill="#333"/>
  </g>
</svg>
