<svg xmlns="http://www.w3.org/2000/svg" width="40" height="40" viewBox="0 0 40 40">
  <g id="resource_center_menu" data-name="resource center_menu" transform="translate(-29 -419.819)">
    <rect id="Rectangle_3948" data-name="Rectangle 3948" width="40" height="40" transform="translate(29 419.819)" fill="#8087b7" opacity="0"/>
    <path id="my_interest" d="M80-865.6,88-880l8,14.4Zm8.04,16a6.163,6.163,0,0,1-4.52-1.88A6.163,6.163,0,0,1,81.64-856a6.144,6.144,0,0,1,1.88-4.54,6.2,6.2,0,0,1,4.52-1.86,6.163,6.163,0,0,1,4.52,1.88A6.163,6.163,0,0,1,94.44-856a6.163,6.163,0,0,1-1.88,4.52A6.163,6.163,0,0,1,88.04-849.6Zm0-2.4a3.863,3.863,0,0,0,2.84-1.16A3.863,3.863,0,0,0,92.04-856a3.862,3.862,0,0,0-1.16-2.84A3.863,3.863,0,0,0,88.04-860a3.863,3.863,0,0,0-2.84,1.16A3.863,3.863,0,0,0,84.04-856a3.863,3.863,0,0,0,1.16,2.84A3.863,3.863,0,0,0,88.04-852Zm-3.96-16h7.84L88-875.04ZM97.6-849.6v-12.8h12.8v12.8ZM100-852h8v-8h-8Zm4-13.6q-2.28-1.92-3.82-3.24a29.438,29.438,0,0,1-2.46-2.32,7.391,7.391,0,0,1-1.32-1.88,4.49,4.49,0,0,1-.4-1.88,4.1,4.1,0,0,1,1.26-3.04,4.3,4.3,0,0,1,3.14-1.24,4.419,4.419,0,0,1,2,.48,4.238,4.238,0,0,1,1.6,1.4,4.238,4.238,0,0,1,1.6-1.4,4.419,4.419,0,0,1,2-.48,4.3,4.3,0,0,1,3.14,1.24,4.1,4.1,0,0,1,1.26,3.04,4.49,4.49,0,0,1-.4,1.88,7.391,7.391,0,0,1-1.32,1.88,29.437,29.437,0,0,1-2.46,2.32Q106.28-867.52,104-865.6Zm0-3.16a51.692,51.692,0,0,0,4.5-4,3.377,3.377,0,0,0,1.1-2.08,1.975,1.975,0,0,0-.514-1.419,1.848,1.848,0,0,0-1.406-.541,2.061,2.061,0,0,0-1.022.28,7.737,7.737,0,0,0-1.258.96l-1.4,1.32-1.4-1.32a6.591,6.591,0,0,0-1.253-.967,2.145,2.145,0,0,0-1.027-.273,1.848,1.848,0,0,0-1.406.541,1.975,1.975,0,0,0-.514,1.419,3.377,3.377,0,0,0,1.1,2.08A51.69,51.69,0,0,0,104-868.76ZM104-872.8ZM88-871.52ZM88.04-856ZM104-856Z" transform="translate(-47 1304.819)" fill="#183c68" stroke="#febc12" stroke-width="0.5"/>
  </g>
</svg>
