<svg id="search_bar_animated" xmlns="http://www.w3.org/2000/svg" width="46" height="46" viewBox="0 0 46 46">
  <rect id="Rectangle_5149" data-name="Rectangle 5149" width="46" height="46" rx="23" fill="#f4f3f7"/>
  <g id="search_icon_small" transform="translate(15 15)">
    <path id="search_icon" d="M21.552,22.733l-4-4a6.164,6.164,0,0,1-1.958,1.133,6.923,6.923,0,0,1-2.378.406,6.965,6.965,0,0,1-5.119-2.1A6.9,6.9,0,0,1,6,13.111,6.9,6.9,0,0,1,8.1,8.048a6.932,6.932,0,0,1,5.091-2.1,6.853,6.853,0,0,1,5.049,2.1,7.159,7.159,0,0,1,1.692,7.385,7.1,7.1,0,0,1-1.175,2.1L22.783,21.5Zm-8.364-4.14a5.235,5.235,0,0,0,3.86-1.608,5.3,5.3,0,0,0,1.594-3.874,5.3,5.3,0,0,0-1.594-3.874,5.235,5.235,0,0,0-3.86-1.608,5.313,5.313,0,0,0-3.9,1.608,5.281,5.281,0,0,0-1.608,3.874,5.281,5.281,0,0,0,1.608,3.874,5.313,5.313,0,0,0,3.9,1.608Z" transform="translate(-6 -5.95)" fill="#6f6f6f"/>
  </g>
</svg>
