<svg id="send_icon" xmlns="http://www.w3.org/2000/svg" width="24.066" height="22.713" viewBox="0 0 24.066 22.713">
  <path id="Path_87" data-name="Path 87" d="M15.76,23.685a1.613,1.613,0,0,1-1.44-.824l-3.2-5.726a.737.737,0,0,1,.345-1.006.824.824,0,0,1,1.071.3l3.2,5.726L23.382,2.552,2.587,9.684l7.838,3.979L17.08,7.37a.836.836,0,0,1,1.136,0,.731.731,0,0,1,0,1.074l-7.078,6.687a.834.834,0,0,1-.936.136l-8.342-4.19A1.5,1.5,0,0,1,.941,9.6,1.532,1.532,0,0,1,2.059,8.262L22.783,1.092a1.667,1.667,0,0,1,1.753.324,1.453,1.453,0,0,1,.343,1.658L17.3,22.672a1.591,1.591,0,0,1-1.424,1.014Z" transform="translate(-0.938 -0.973)" fill="#fff"/>
</svg>
