<svg xmlns="http://www.w3.org/2000/svg" width="17.5" height="17.5" viewBox="0 0 17.5 17.5">
  <g id="setting_icon" transform="translate(-310.25 -32.25)">
    <g id="Group_5284" data-name="Group 5284" transform="translate(308 30)">
      <path id="Path_10386" data-name="Path 10386" d="M9.511,4.171a1.532,1.532,0,0,1,2.978,0,1.532,1.532,0,0,0,2.287.948,1.533,1.533,0,0,1,2.107,2.107,1.532,1.532,0,0,0,.947,2.286,1.532,1.532,0,0,1,0,2.978,1.532,1.532,0,0,0-.948,2.287,1.533,1.533,0,0,1-2.107,2.107,1.532,1.532,0,0,0-2.286.947,1.532,1.532,0,0,1-2.978,0,1.532,1.532,0,0,0-2.287-.948,1.533,1.533,0,0,1-2.107-2.107,1.532,1.532,0,0,0-.947-2.286,1.532,1.532,0,0,1,0-2.978,1.532,1.532,0,0,0,.948-2.287A1.533,1.533,0,0,1,7.225,5.117a1.531,1.531,0,0,0,2.286-.947Z" fill="none" stroke="#333" stroke-linecap="round" stroke-linejoin="round" stroke-width="1.5"/>
      <path id="Path_10387" data-name="Path 10387" d="M9,12a3,3,0,1,0,3-3,3,3,0,0,0-3,3" transform="translate(-1 -1)" fill="none" stroke="#333" stroke-linecap="round" stroke-linejoin="round" stroke-width="1.5"/>
    </g>
  </g>
</svg>
