<svg id="share_icon" xmlns="http://www.w3.org/2000/svg" width="12.771" height="13.918" viewBox="0 0 12.771 13.918">
  <path id="Path_9457" data-name="Path 9457" d="M175.651,67.2a2.268,2.268,0,0,0-2.322,2.2,2.1,2.1,0,0,0,.163.818l-4.414,2.318a2.383,2.383,0,0,0-1.554-.572,2.2,2.2,0,1,0,0,4.4,2.382,2.382,0,0,0,1.56-.572L173.5,78.1a2.066,2.066,0,0,0-.169.818,2.325,2.325,0,1,0,2.322-2.2,2.373,2.373,0,0,0-1.748.755L169.567,75.2a2.089,2.089,0,0,0,0-2.083l4.336-2.278a2.371,2.371,0,0,0,1.748.755,2.2,2.2,0,1,0,0-4.4Z" transform="translate(-165.202 -67.203)" fill="#4285f4"/>
</svg>
