<svg xmlns="http://www.w3.org/2000/svg" width="18" height="18" viewBox="0 0 18 18">
  <g id="share_post" transform="translate(18.5 -42.101)">
    <rect id="Rectangle_5298" data-name="Rectangle 5298" width="18" height="18" transform="translate(-18.5 42.101)" fill="#fff"/>
    <g id="share_icon" transform="translate(-15.5 44.101)">
      <path id="Path_9457" data-name="Path 9457" d="M175.149,67.2a2.218,2.218,0,0,0-2.055,3.034l-4.2,2.331a2.208,2.208,0,1,0,.006,3.27l4.2,2.331a2.18,2.18,0,0,0-.161.823,2.219,2.219,0,1,0,.547-1.451l-4.128-2.291a2.205,2.205,0,0,0,0-2.1l4.128-2.291a2.209,2.209,0,1,0,1.664-3.661Z" transform="translate(-165.202 -67.203)" fill="#8a8a8e"/>
    </g>
  </g>
</svg>
