<svg xmlns="http://www.w3.org/2000/svg" width="24" height="24" viewBox="0 0 24 24">
  <g id="sos" transform="translate(-80 -17)">
    <rect id="Rectangle_5331" data-name="Rectangle 5331" width="24" height="24" transform="translate(80 17)" fill="#b4b4b4" opacity="0"/>
    <g id="sos_menu" transform="translate(70.376 7.375)">
      <path id="Path_10438" data-name="Path 10438" d="M57.872,27.214H56.842a1.032,1.032,0,0,1-1.031-1.031V25.153H54.781a1.032,1.032,0,0,1-1.031-1.031V23.092a1.032,1.032,0,0,1,1.031-1.031h1.031V21.031A1.032,1.032,0,0,1,56.842,20h1.031A1.032,1.032,0,0,1,58.9,21.031v1.031h1.031a1.032,1.032,0,0,1,1.031,1.031v1.031a1.032,1.032,0,0,1-1.031,1.031H58.9v1.031A1.032,1.032,0,0,1,57.872,27.214Zm-3.092-4.122v1.031h1.546a.515.515,0,0,1,.515.515v1.546h1.031V24.637a.515.515,0,0,1,.515-.515h1.546V23.092H58.387a.515.515,0,0,1-.515-.515V21.031H56.842v1.546a.515.515,0,0,1-.515.515Z" transform="translate(-30.915 -6.799)" stroke="#000" stroke-width="0.1"/>
      <path id="Path_10439" data-name="Path 10439" d="M25.077,40.8c-2.576,0-6.167-1.379-9.62-4.832-4.425-4.425-5.445-9.078-4.52-11.528a4.451,4.451,0,0,1,3.554-2.519,1.529,1.529,0,0,1,1.639.834l1.611,3.309a1.531,1.531,0,0,1-.346,1.794l-1.359,1.235c.059.448.409,1.8,2.451,3.844s3.385,2.389,3.846,2.45l1.234-1.358a1.532,1.532,0,0,1,1.794-.346l3.31,1.611a1.53,1.53,0,0,1,.833,1.639,4.45,4.45,0,0,1-2.519,3.554A5.426,5.426,0,0,1,25.077,40.8ZM14.762,22.945a.482.482,0,0,0-.086.008,3.462,3.462,0,0,0-2.756,1.856c-.809,2.145.184,6.319,4.28,10.415s8.27,5.089,10.414,4.28a3.46,3.46,0,0,0,1.856-2.756.47.47,0,0,0-.259-.51L24.9,34.626a.474.474,0,0,0-.557.107l-1.4,1.54a.528.528,0,0,1-.327.168c-.193.023-1.972.14-4.874-2.763S14.959,29,14.982,28.8a.525.525,0,0,1,.168-.327l1.539-1.4a.475.475,0,0,0,.108-.557l-1.611-3.31a.469.469,0,0,0-.424-.267Z" transform="translate(0 -8.174)" stroke="#000" stroke-width="0.1"/>
      <path id="Path_10440" data-name="Path 10440" d="M50.553,22.991a6.11,6.11,0,0,1-2.907-.734l-1.752.478a1.03,1.03,0,0,1-1.265-1.265l.478-1.751a6.177,6.177,0,0,1,4.44-9.014h0a6.185,6.185,0,1,1,1.939,12.217A6.382,6.382,0,0,1,50.553,22.991Zm-2.84-1.8a.513.513,0,0,1,.259.07,5.151,5.151,0,1,0,1.737-9.537h0a5.147,5.147,0,0,0-3.6,7.669.516.516,0,0,1,.052.395l-.533,1.954,1.954-.533a.516.516,0,0,1,.135-.018Zm1.915-9.976h0Z" transform="translate(-24.115 0)" stroke="#000" stroke-width="0.1"/>
    </g>
    <g id="sos_menu-2" data-name="sos_menu" transform="translate(70.376 7.375)">
      <path id="Path_10438-2" data-name="Path 10438" d="M57.872,27.214H56.842a1.032,1.032,0,0,1-1.031-1.031V25.153H54.781a1.032,1.032,0,0,1-1.031-1.031V23.092a1.032,1.032,0,0,1,1.031-1.031h1.031V21.031A1.032,1.032,0,0,1,56.842,20h1.031A1.032,1.032,0,0,1,58.9,21.031v1.031h1.031a1.032,1.032,0,0,1,1.031,1.031v1.031a1.032,1.032,0,0,1-1.031,1.031H58.9v1.031A1.032,1.032,0,0,1,57.872,27.214Zm-3.092-4.122v1.031h1.546a.515.515,0,0,1,.515.515v1.546h1.031V24.637a.515.515,0,0,1,.515-.515h1.546V23.092H58.387a.515.515,0,0,1-.515-.515V21.031H56.842v1.546a.515.515,0,0,1-.515.515Z" transform="translate(-30.915 -6.799)"/>
      <path id="Path_10439-2" data-name="Path 10439" d="M25.077,40.8c-2.576,0-6.167-1.379-9.62-4.832-4.425-4.425-5.445-9.078-4.52-11.528a4.451,4.451,0,0,1,3.554-2.519,1.529,1.529,0,0,1,1.639.834l1.611,3.309a1.531,1.531,0,0,1-.346,1.794l-1.359,1.235c.059.448.409,1.8,2.451,3.844s3.385,2.389,3.846,2.45l1.234-1.358a1.532,1.532,0,0,1,1.794-.346l3.31,1.611a1.53,1.53,0,0,1,.833,1.639,4.45,4.45,0,0,1-2.519,3.554A5.426,5.426,0,0,1,25.077,40.8ZM14.762,22.945a.482.482,0,0,0-.086.008,3.462,3.462,0,0,0-2.756,1.856c-.809,2.145.184,6.319,4.28,10.415s8.27,5.089,10.414,4.28a3.46,3.46,0,0,0,1.856-2.756.47.47,0,0,0-.259-.51L24.9,34.626a.474.474,0,0,0-.557.107l-1.4,1.54a.528.528,0,0,1-.327.168c-.193.023-1.972.14-4.874-2.763S14.959,29,14.982,28.8a.525.525,0,0,1,.168-.327l1.539-1.4a.475.475,0,0,0,.108-.557l-1.611-3.31a.469.469,0,0,0-.424-.267Z" transform="translate(0 -8.174)"/>
      <path id="Path_10440-2" data-name="Path 10440" d="M50.553,22.991a6.11,6.11,0,0,1-2.907-.734l-1.752.478a1.03,1.03,0,0,1-1.265-1.265l.478-1.751a6.177,6.177,0,0,1,4.44-9.014h0a6.185,6.185,0,1,1,1.939,12.217A6.382,6.382,0,0,1,50.553,22.991Zm-2.84-1.8a.513.513,0,0,1,.259.07,5.151,5.151,0,1,0,1.737-9.537h0a5.147,5.147,0,0,0-3.6,7.669.516.516,0,0,1,.052.395l-.533,1.954,1.954-.533a.516.516,0,0,1,.135-.018Zm1.915-9.976h0Z" transform="translate(-24.115 0)"/>
    </g>
  </g>
</svg>
