<svg xmlns="http://www.w3.org/2000/svg" width="15.098" height="18" viewBox="0 0 15.098 18">
  <path id="status_notes" d="M141.605-803.588h7.72v-5.294h4.44v-9.2a.352.352,0,0,0-.077-.234.245.245,0,0,0-.2-.092H141.605a.245.245,0,0,0-.2.092.352.352,0,0,0-.077.234v14.172a.352.352,0,0,0,.077.234A.245.245,0,0,0,141.605-803.588Zm0,1.588a1.434,1.434,0,0,1-1.135-.561,2.037,2.037,0,0,1-.47-1.353v-14.172a2.037,2.037,0,0,1,.47-1.353,1.434,1.434,0,0,1,1.135-.561h11.887a1.434,1.434,0,0,1,1.135.561,2.037,2.037,0,0,1,.47,1.353v9.886l-5.2,6.2Zm1.9-7.167v-1.588h4.048v1.588Zm0-4.215v-1.588h8.1v1.588Zm-2.169,9.794v0Z" transform="translate(-140 820)" fill="#333"/>
</svg>
