<svg xmlns="http://www.w3.org/2000/svg" width="14" height="18.039" viewBox="0 0 14 18.039">
  <g id="star_bookmark" transform="translate(0 0)">
    <path id="favourites_icon" d="M220-801.961v-16.092a1.879,1.879,0,0,1,.565-1.381,1.879,1.879,0,0,1,1.381-.565h10.106a1.879,1.879,0,0,1,1.381.565,1.879,1.879,0,0,1,.565,1.381v16.092l-7-3Zm1.615-2.477L227-806.753l5.385,2.315v-13.615a.317.317,0,0,0-.1-.228.317.317,0,0,0-.228-.1H221.948a.317.317,0,0,0-.228.1.317.317,0,0,0-.1.228Zm0-13.946h0Z" transform="translate(-220.001 819.999)" fill="#333"/>
  </g>
</svg>
