<svg xmlns="http://www.w3.org/2000/svg" width="34" height="34" viewBox="0 0 34 34">
  <g id="profile_menu" transform="translate(0 0)">
    <rect id="Rectangle_1" data-name="Rectangle 1" width="34" height="34" transform="translate(0 0)" fill="#f79622" opacity="0"/>
    <g id="profile_icon" transform="translate(3 2.951)">
      <path id="account_circle_24dp_E8EAED_FILL0_wght300_GRAD0_opsz24" d="M105.192-838.2a16.083,16.083,0,0,1,4.094-2.2A13.654,13.654,0,0,1,114-841.21a13.655,13.655,0,0,1,4.714.808,16.083,16.083,0,0,1,4.094,2.2,11.619,11.619,0,0,0,2.178-3.5,11.365,11.365,0,0,0,.8-4.3,11.365,11.365,0,0,0-3.445-8.345A11.365,11.365,0,0,0,114-857.789a11.365,11.365,0,0,0-8.345,3.445A11.365,11.365,0,0,0,102.211-846a11.364,11.364,0,0,0,.8,4.3A11.62,11.62,0,0,0,105.192-838.2ZM114-844.895a4.628,4.628,0,0,1-3.4-1.385,4.626,4.626,0,0,1-1.386-3.4,4.628,4.628,0,0,1,1.385-3.4,4.627,4.627,0,0,1,3.4-1.386,4.628,4.628,0,0,1,3.4,1.385,4.626,4.626,0,0,1,1.386,3.4,4.628,4.628,0,0,1-1.385,3.4A4.627,4.627,0,0,1,114-844.895ZM114-832a13.719,13.719,0,0,1-5.471-1.1,14.053,14.053,0,0,1-4.445-2.987,14.052,14.052,0,0,1-2.987-4.445A13.721,13.721,0,0,1,100-846a13.721,13.721,0,0,1,1.1-5.471,14.056,14.056,0,0,1,2.987-4.445,14.055,14.055,0,0,1,4.445-2.987A13.722,13.722,0,0,1,114-860a13.722,13.722,0,0,1,5.471,1.1,14.055,14.055,0,0,1,4.445,2.987,14.055,14.055,0,0,1,2.987,4.445A13.721,13.721,0,0,1,128-846a13.721,13.721,0,0,1-1.1,5.471,14.052,14.052,0,0,1-2.987,4.445,14.053,14.053,0,0,1-4.445,2.987A13.719,13.719,0,0,1,114-832Zm0-2.211a11.668,11.668,0,0,0,3.847-.642,10.922,10.922,0,0,0,3.289-1.8,11.2,11.2,0,0,0-3.246-1.732A11.908,11.908,0,0,0,114-839a12.1,12.1,0,0,0-3.9.613,10.686,10.686,0,0,0-3.239,1.739,10.922,10.922,0,0,0,3.289,1.8A11.668,11.668,0,0,0,114-834.21Zm0-12.895a2.5,2.5,0,0,0,1.839-.74,2.5,2.5,0,0,0,.74-1.839,2.5,2.5,0,0,0-.74-1.839,2.5,2.5,0,0,0-1.839-.74,2.5,2.5,0,0,0-1.839.74,2.5,2.5,0,0,0-.74,1.839,2.5,2.5,0,0,0,.74,1.839A2.5,2.5,0,0,0,114-847.105ZM114-849.684ZM114-836.605Z" transform="translate(-100 860)" fill="#333"/>
    </g>
  </g>
</svg>
