<svg xmlns="http://www.w3.org/2000/svg" width="52" height="52" viewBox="0 0 52 52">
  <g id="meetings_menu" transform="translate(-0.038 0.696)">
    <rect id="Rectangle_1" data-name="Rectangle 1" width="54" height="54" transform="translate(0.038 -0.696)" fill="#f79622" opacity="0"/>
    <g id="noun-meeting-1144664" transform="translate(-235.168 -166.733)">
      <path id="Path_9691" data-name="Path 9691" d="M277.582,196.189a15.413,15.413,0,0,0-9.541-16.551,5.845,5.845,0,1,0-11.684,0,15.345,15.345,0,0,0-9.541,16.551,5.824,5.824,0,1,0,5.744,10.126,15.5,15.5,0,0,0,19.18,0,5.828,5.828,0,0,0,8.081-2.045,5.677,5.677,0,0,0-2.239-8.081ZM262.2,175.549a3.894,3.894,0,1,1-3.894,3.894A3.905,3.905,0,0,1,262.2,175.549ZM246.135,203.3a3.964,3.964,0,0,1,1.46-5.355,3.423,3.423,0,0,1,1.947-.487,3.919,3.919,0,0,1,1.947,7.3,3.963,3.963,0,0,1-5.354-1.46Zm7.983,1.753a5.824,5.824,0,0,0-5.355-9.444,13.56,13.56,0,0,1,8.081-14.02,5.867,5.867,0,0,0,10.9,0,13.456,13.456,0,0,1,8.081,14.02,5.86,5.86,0,0,0-5.452,9.444,13.885,13.885,0,0,1-16.259,0Zm24.145-1.753a3.964,3.964,0,0,1-5.355,1.46c-4.479-2.531-.584-9.347,3.894-6.718a3.827,3.827,0,0,1,1.461,5.258Z" transform="translate(0 0)" fill="#333" stroke="#333" stroke-width="0.5"/>
    </g>
  </g>
</svg>
