<svg id="notification_icon" xmlns="http://www.w3.org/2000/svg" width="24" height="24.541" viewBox="0 0 24 24.541">
  <path id="notification_icon-2" data-name="notification_icon" d="M104.617-850.52a11.47,11.47,0,0,1,1.2-5.22,12.107,12.107,0,0,1,3.242-4.04l1.183,1.493a10.084,10.084,0,0,0-2.709,3.388,9.684,9.684,0,0,0-1,4.38Zm22.082,0a9.723,9.723,0,0,0-1-4.386,10.066,10.066,0,0,0-2.709-3.395l1.183-1.48a12.106,12.106,0,0,1,3.242,4.04,11.47,11.47,0,0,1,1.2,5.22Zm-19.672,11.471v-1.918h2.311v-9.541a7.077,7.077,0,0,1,1.592-4.561,7.056,7.056,0,0,1,4.088-2.535v-.8a1.541,1.541,0,0,1,.467-1.131,1.54,1.54,0,0,1,1.131-.467,1.54,1.54,0,0,1,1.131.467,1.541,1.541,0,0,1,.467,1.131v.8a7.056,7.056,0,0,1,4.088,2.535,7.077,7.077,0,0,1,1.592,4.561v9.541h2.312v1.918ZM116.617-848.417Zm0,12.959a2.227,2.227,0,0,1-1.634-.678,2.227,2.227,0,0,1-.677-1.634h4.623a2.227,2.227,0,0,1-.677,1.634A2.227,2.227,0,0,1,116.617-835.458Zm-5.361-5.508h10.721v-9.541a5.165,5.165,0,0,0-1.57-3.791,5.165,5.165,0,0,0-3.791-1.57,5.165,5.165,0,0,0-3.791,1.57,5.165,5.165,0,0,0-1.57,3.791Z" transform="translate(-104.617 859.999)" fill="#333"/>
</svg>
