<svg xmlns="http://www.w3.org/2000/svg" width="40" height="40" viewBox="0 0 40 40">
  <g id="comment" transform="translate(-133 -376)">
    <rect id="Rectangle_4162" data-name="Rectangle 4162" width="40" height="40" transform="translate(133 376)" fill="#fff" opacity="0"/>
    <path id="chat_FILL0_wght400_GRAD0_opsz48_3_" data-name="chat_FILL0_wght400_GRAD0_opsz48 (3)" d="M8.4,17.228h8.608v-1.65H8.4Zm0-3.575H21.6V12H8.4Zm0-3.575H21.6V8.427H8.4ZM4,26V5.65a1.6,1.6,0,0,1,.495-1.141A1.563,1.563,0,0,1,5.65,4h18.7a1.578,1.578,0,0,1,1.141.509A1.578,1.578,0,0,1,26,5.65v14.3a1.745,1.745,0,0,1-1.65,1.65H8.4Zm1.65-3.987L7.712,19.95H24.35V5.65H5.65Zm0-16.363v0Z" transform="translate(138 381)" fill="#333"/>
  </g>
</svg>
