<svg xmlns="http://www.w3.org/2000/svg" width="36" height="36" viewBox="0 0 36 36">
  <g id="timezone" transform="translate(-29 -420.145)">
    <rect id="Rectangle_3948" data-name="Rectangle 3948" width="36" height="36" transform="translate(29 420.145)" fill="#8087b7" opacity="0"/>
    <path id="Path_10523" data-name="Path 10523" d="M113.685-832.634a13.33,13.33,0,0,1-5.337-1.077A13.82,13.82,0,0,1,104-836.636a13.817,13.817,0,0,1-2.926-4.344A13.317,13.317,0,0,1,100-846.315a13.33,13.33,0,0,1,1.077-5.337A13.821,13.821,0,0,1,104-856a13.819,13.819,0,0,1,4.344-2.926A13.318,13.318,0,0,1,113.68-860a13.329,13.329,0,0,1,5.337,1.077A13.82,13.82,0,0,1,123.362-856a13.818,13.818,0,0,1,2.926,4.344,13.317,13.317,0,0,1,1.078,5.335,13.33,13.33,0,0,1-1.077,5.337,13.821,13.821,0,0,1-2.924,4.345,13.82,13.82,0,0,1-4.344,2.926A13.317,13.317,0,0,1,113.685-832.634Zm-1.443-2.232v-2.809a2.774,2.774,0,0,1-2.034-.846,2.774,2.774,0,0,1-.846-2.034V-842l-6.913-6.913q-.108.648-.2,1.3a9.412,9.412,0,0,0-.09,1.3,11.244,11.244,0,0,0,2.863,7.634A11.085,11.085,0,0,0,112.243-834.867Zm9.938-3.673a12.086,12.086,0,0,0,1.3-1.71,10.894,10.894,0,0,0,.954-1.908,11.915,11.915,0,0,0,.576-2.034,11.378,11.378,0,0,0,.2-2.125,11.384,11.384,0,0,0-1.956-6.464A11.029,11.029,0,0,0,118-857v.6a2.774,2.774,0,0,1-.846,2.034,2.774,2.774,0,0,1-2.034.846h-2.881v2.881a1.394,1.394,0,0,1-.414,1.026,1.394,1.394,0,0,1-1.026.414h-2.881v2.881h8.642a1.394,1.394,0,0,1,1.026.414,1.394,1.394,0,0,1,.414,1.026v4.321h1.44a2.781,2.781,0,0,1,1.692.558A2.847,2.847,0,0,1,122.181-838.539Z" transform="translate(-67 1285.145)" fill="#333"/>
  </g>
</svg>
