<svg xmlns="http://www.w3.org/2000/svg" width="36" height="36" viewBox="0 0 36 36">
  <g id="timeformat" transform="translate(-29 -420.145)">
    <rect id="Rectangle_3948" data-name="Rectangle 3948" width="36" height="36" transform="translate(29 420.145)" fill="#8087b7" opacity="0"/>
    <path id="schedule_FILL0_wght300_GRAD0_opsz24_1_" data-name="schedule_FILL0_wght300_GRAD0_opsz24 (1)" d="M118.686-839.8l1.518-1.518-5.44-5.44v-6.764H112.6v7.639Zm-5,7.163a13.329,13.329,0,0,1-5.337-1.077A13.822,13.822,0,0,1,104-836.635a13.814,13.814,0,0,1-2.926-4.344A13.316,13.316,0,0,1,100-846.314a13.329,13.329,0,0,1,1.077-5.336A13.822,13.822,0,0,1,104-856a13.813,13.813,0,0,1,4.344-2.926A13.316,13.316,0,0,1,113.681-860a13.328,13.328,0,0,1,5.337,1.077A13.82,13.82,0,0,1,123.363-856a13.813,13.813,0,0,1,2.926,4.344,13.316,13.316,0,0,1,1.078,5.335,13.33,13.33,0,0,1-1.077,5.336,13.822,13.822,0,0,1-2.924,4.345,13.813,13.813,0,0,1-4.344,2.926A13.316,13.316,0,0,1,113.686-832.633ZM113.684-846.316Zm0,11.522a11.108,11.108,0,0,0,8.156-3.367,11.108,11.108,0,0,0,3.367-8.156,11.108,11.108,0,0,0-3.367-8.156,11.108,11.108,0,0,0-8.156-3.367,11.108,11.108,0,0,0-8.156,3.367,11.108,11.108,0,0,0-3.367,8.156,11.108,11.108,0,0,0,3.367,8.156A11.108,11.108,0,0,0,113.684-834.794Z" transform="translate(-67.001 1285.144)" fill="#333"/>
  </g>
</svg>
