<svg xmlns="http://www.w3.org/2000/svg" width="50" height="50" viewBox="0 0 50 50">
  <g id="Travel_desk_profile" data-name="Travel desk_profile" transform="translate(-1.313 5.942)">
    <rect id="Rectangle_1" data-name="Rectangle 1" width="50" height="50" transform="translate(1.313 -5.942)" fill="#f79622" opacity="0"/>
    <g id="Travel_Info_profile" data-name="Travel Info_profile" transform="translate(-0.125 -0.377)">
      <path id="Path_13903" data-name="Path 13903" d="M237-806.85a3.033,3.033,0,0,1-2.225-.925A3.034,3.034,0,0,1,233.85-810v-20.25a3.033,3.033,0,0,1,.925-2.225A3.032,3.032,0,0,1,237-833.4h4.2v-3.45a3.034,3.034,0,0,1,.925-2.225A3.033,3.033,0,0,1,244.35-840h3a3.033,3.033,0,0,1,2.224.925,3.034,3.034,0,0,1,.925,2.225v3.45h4.2a3.032,3.032,0,0,1,2.224.926,3.033,3.033,0,0,1,.925,2.225V-810a3.034,3.034,0,0,1-.925,2.225,3.033,3.033,0,0,1-2.225.925v.45a1.44,1.44,0,0,1-.448,1.052,1.441,1.441,0,0,1-1.052.448,1.44,1.44,0,0,1-1.052-.448,1.44,1.44,0,0,1-.448-1.052v-.45H240v.45a1.44,1.44,0,0,1-.448,1.052,1.44,1.44,0,0,1-1.052.448,1.441,1.441,0,0,1-1.052-.448A1.44,1.44,0,0,1,237-806.4Zm0-1.95h17.7a1.168,1.168,0,0,0,.862-.337A1.169,1.169,0,0,0,255.9-810v-20.25a1.168,1.168,0,0,0-.337-.862,1.167,1.167,0,0,0-.862-.338H237a1.167,1.167,0,0,0-.862.338,1.168,1.168,0,0,0-.337.862V-810a1.169,1.169,0,0,0,.337.863,1.168,1.168,0,0,0,.862.337Zm4.2-3.45h1.95V-828H241.2Zm7.35,0h1.95V-828h-1.95Zm-5.4-21.15h5.4v-3.45a1.17,1.17,0,0,0-.337-.863,1.168,1.168,0,0,0-.862-.337h-3a1.168,1.168,0,0,0-.862.337,1.17,1.17,0,0,0-.337.863ZM245.85-820.125Z" transform="translate(-219.412 841.794)" fill="#333" stroke="#333" stroke-width="0.3"/>
    </g>
  </g>
</svg>
