<svg xmlns="http://www.w3.org/2000/svg" width="21" height="21" viewBox="0 0 21 21">
  <g id="upload_delete" transform="translate(-376.481 -155)">
    <g id="Rectangle_3977" data-name="Rectangle 3977" transform="translate(376.481 155)" fill="#fff" stroke="#707070" stroke-width="1" opacity="0">
      <rect width="21" height="21" stroke="none"/>
      <rect x="0.5" y="0.5" width="20" height="20" fill="none"/>
    </g>
    <g id="Group_20545" data-name="Group 20545" transform="translate(-1322.611 -249.091)">
      <g id="delete_icon" transform="translate(1702 407)">
        <path id="Path_9730" data-name="Path 9730" d="M131.087,48.947h-3.8v-.759a1.52,1.52,0,0,0-1.518-1.518h-3.037a1.52,1.52,0,0,0-1.518,1.518v.759h-3.8a.759.759,0,1,0,0,1.518h1.518v9.11a2.28,2.28,0,0,0,2.277,2.277h6.073a2.28,2.28,0,0,0,2.277-2.277v-9.11h1.518a.759.759,0,1,0,0-1.518Zm-8.351-.759h3.037v.759h-3.037Zm5.314,11.387h0a.76.76,0,0,1-.759.759h-6.073a.76.76,0,0,1-.759-.759v-9.11h7.592Z" transform="translate(-116.663 -46.67)" fill="#6f6f6f"/>
        <path id="Path_9731" data-name="Path 9731" d="M280.757,186.67a.759.759,0,0,0-.759.759v6.832a.759.759,0,0,0,1.518,0v-6.832a.759.759,0,0,0-.759-.759Z" transform="translate(-274.684 -182.115)" fill="#6f6f6f"/>
        <path id="Path_9732" data-name="Path 9732" d="M374.093,186.67a.759.759,0,0,0-.759.759v6.832a.759.759,0,0,0,1.518,0v-6.832a.759.759,0,0,0-.759-.759Z" transform="translate(-364.983 -182.115)" fill="#6f6f6f"/>
      </g>
    </g>
  </g>
</svg>
