<svg xmlns="http://www.w3.org/2000/svg" width="16" height="20.148" viewBox="0 0 16 20.148">
  <path id="venue" d="M186.08-850.073a1.841,1.841,0,0,0,1.353-.563,1.849,1.849,0,0,0,.562-1.354,1.841,1.841,0,0,0-.563-1.353,1.849,1.849,0,0,0-1.354-.562,1.841,1.841,0,0,0-1.353.563,1.85,1.85,0,0,0-.562,1.354,1.841,1.841,0,0,0,.563,1.353A1.849,1.849,0,0,0,186.08-850.073Zm0,8.106a27.2,27.2,0,0,0,4.76-5.341,8.616,8.616,0,0,0,1.65-4.479,6.5,6.5,0,0,0-1.842-4.765,6.16,6.16,0,0,0-4.569-1.867,6.16,6.16,0,0,0-4.569,1.867,6.5,6.5,0,0,0-1.842,4.765,8.617,8.617,0,0,0,1.65,4.479A27.2,27.2,0,0,0,186.078-841.967Zm0,2.116a33.933,33.933,0,0,1-6-6.453,10.076,10.076,0,0,1-2-5.483,7.848,7.848,0,0,1,2.374-5.94A7.862,7.862,0,0,1,186.078-860a7.862,7.862,0,0,1,5.627,2.272,7.849,7.849,0,0,1,2.374,5.94,10.076,10.076,0,0,1-2,5.483A33.931,33.931,0,0,1,186.078-839.851ZM186.078-851.989Z" transform="translate(-178.078 859.999)" fill="#333"/>
</svg>
