<svg xmlns="http://www.w3.org/2000/svg" xmlns:xlink="http://www.w3.org/1999/xlink" width="54.218" height="54.218" viewBox="0 0 54.218 54.218">
  <defs>
    <filter id="Icon_awesome-play-circle" x="0" y="0" width="54.218" height="54.218" filterUnits="userSpaceOnUse">
      <feOffset dy="3" input="SourceAlpha"/>
      <feGaussianBlur stdDeviation="3" result="blur"/>
      <feFlood flood-opacity="0.161"/>
      <feComposite operator="in" in2="blur"/>
      <feComposite in="SourceGraphic"/>
    </filter>
  </defs>
  <g id="Group_5022" data-name="Group 5022" transform="translate(-184.834 -1057)">
    <g id="Ellipse_2912" data-name="Ellipse 2912" transform="translate(197 1066)" fill="#d14c2b" stroke="#8a8a8e" stroke-width="1">
      <circle cx="15" cy="15" r="15" stroke="none"/>
      <circle cx="15" cy="15" r="14.5" fill="none"/>
    </g>
    <g transform="matrix(1, 0, 0, 1, 184.83, 1057)" filter="url(#Icon_awesome-play-circle)">
      <path id="Icon_awesome-play-circle-2" data-name="Icon awesome-play-circle" d="M18.672.563A18.109,18.109,0,1,0,36.781,18.672,18.106,18.106,0,0,0,18.672.563ZM27.12,20.424,14.268,27.8a1.756,1.756,0,0,1-2.607-1.533V11.077a1.757,1.757,0,0,1,2.607-1.533L27.12,17.357A1.758,1.758,0,0,1,27.12,20.424Z" transform="translate(8.44 5.44)" fill="#fff"/>
    </g>
  </g>
</svg>
