<svg xmlns="http://www.w3.org/2000/svg" width="108" height="84" viewBox="0 0 108 84">
  <path id="video_thumbnail" d="M110.276-780l9.947,19.6h17.053L127.328-780H138.7l9.947,19.6H165.7L155.749-780h11.368l9.947,19.6h17.053L184.17-780h13.554a10,10,0,0,1,7.291,2.94A9.7,9.7,0,0,1,208-769.877v63.753a9.7,9.7,0,0,1-2.984,7.183,9.995,9.995,0,0,1-7.291,2.94H110.276a9.995,9.995,0,0,1-7.291-2.94A9.7,9.7,0,0,1,100-706.123v-63.753a9.7,9.7,0,0,1,2.984-7.183A10,10,0,0,1,110.276-780Zm-1.749,28v45.877a1.664,1.664,0,0,0,.492,1.239,1.717,1.717,0,0,0,1.258.484h87.449a1.717,1.717,0,0,0,1.258-.484,1.665,1.665,0,0,0,.492-1.239V-752Zm0,0v0Z" transform="translate(-100 780)" fill="#dcdcdd"/>
</svg>
