<svg xmlns="http://www.w3.org/2000/svg" width="41.201" height="30.91" viewBox="0 0 41.201 30.91">
  <g id="_317714_video_youtube_icon" data-name="317714_video_youtube_icon" transform="translate(0 -4)">
    <path id="Path_13823" data-name="Path 13823" d="M40.789,10.67s-.4-3.03-1.637-4.365a5.684,5.684,0,0,0-4.128-1.858C29.258,4,20.609,4,20.609,4H20.59s-8.648,0-14.413.447A5.686,5.686,0,0,0,2.049,6.305C.815,7.64.412,10.67.412,10.67A70.794,70.794,0,0,0,0,17.782v3.333a70.769,70.769,0,0,0,.412,7.113s.4,3.029,1.637,4.361c1.569,1.749,3.626,1.7,4.543,1.879,3.3.337,14.009.442,14.009.442s8.657-.015,14.423-.457a5.708,5.708,0,0,0,4.128-1.862c1.234-1.332,1.637-4.361,1.637-4.361a70.8,70.8,0,0,0,.412-7.113V17.783A70.8,70.8,0,0,0,40.789,10.67Z" fill="#e02f2f"/>
    <path id="Path_13824" data-name="Path 13824" d="M12,10V25.455l12.879-7.728Z" transform="translate(3.455 1.728)" fill="#fff"/>
  </g>
</svg>
