<svg xmlns="http://www.w3.org/2000/svg" width="36" height="36" viewBox="0 0 36 36">
  <g id="view" transform="translate(-286.5 -10.999)">
    <rect id="Rectangle_5348" data-name="Rectangle 5348" width="36" height="36" rx="8" transform="translate(286.5 10.999)" fill="#4658a7"/>
    <g id="view_icon" transform="translate(293.5 21.999)">
      <path id="view_icon-2" data-name="view_icon" d="M72.542-768.353a4.128,4.128,0,0,0,3.036-1.251,4.14,4.14,0,0,0,1.249-3.038,4.129,4.129,0,0,0-1.251-3.036,4.14,4.14,0,0,0-3.038-1.249,4.128,4.128,0,0,0-3.036,1.251,4.14,4.14,0,0,0-1.249,3.038A4.129,4.129,0,0,0,69.5-769.6,4.14,4.14,0,0,0,72.542-768.353Zm0-1.448a2.738,2.738,0,0,1-2.011-.828,2.738,2.738,0,0,1-.828-2.011,2.738,2.738,0,0,1,.828-2.011,2.738,2.738,0,0,1,2.011-.828,2.738,2.738,0,0,1,2.011.828,2.738,2.738,0,0,1,.828,2.011,2.738,2.738,0,0,1-.828,2.011A2.738,2.738,0,0,1,72.54-769.8Zm0,4.521a11.607,11.607,0,0,1-6.609-2,11.815,11.815,0,0,1-4.392-5.359A11.819,11.819,0,0,1,65.93-778a11.6,11.6,0,0,1,6.608-2,11.607,11.607,0,0,1,6.609,2,11.816,11.816,0,0,1,4.392,5.359,11.819,11.819,0,0,1-4.39,5.359A11.6,11.6,0,0,1,72.541-765.279ZM72.54-772.64Zm0,5.783a10.036,10.036,0,0,0,5.455-1.564,10.276,10.276,0,0,0,3.8-4.219,10.276,10.276,0,0,0-3.8-4.219,10.037,10.037,0,0,0-5.455-1.564,10.037,10.037,0,0,0-5.455,1.564,10.276,10.276,0,0,0-3.8,4.219,10.276,10.276,0,0,0,3.8,4.219A10.036,10.036,0,0,0,72.54-766.857Z" transform="translate(-61.54 780)" fill="#fff"/>
    </g>
  </g>
</svg>
