<svg id="view_icon" xmlns="http://www.w3.org/2000/svg" width="30" height="30" viewBox="0 0 30 30">
  <rect id="Rectangle_67" data-name="Rectangle 67" width="30" height="30" rx="5" fill="#fff"/>
  <g id="Group_5233" data-name="Group 5233" transform="translate(4.824 -1.9)">
    <path id="Path_162" data-name="Path 162" d="M15.813,13.759h-.028a1.713,1.713,0,0,0,0,3.425v0l.014,0,.014,0v0a1.713,1.713,0,0,0,0-3.425Z" transform="translate(-5.622 1.427)" fill="#183c68"/>
    <path id="Path_163" data-name="Path 163" d="M21.439,12.8c-1.945-1.694-5.22-4.156-9.34-4.24h-.025c-4.119.084-7.4,2.546-9.343,4.24a1.933,1.933,0,0,0-.741,1.272,1.469,1.469,0,0,0,.493,1.11c1.589,1.645,5.057,4.57,9.591,4.591v0H12.1v0c4.542-.021,8-2.946,9.59-4.591a1.465,1.465,0,0,0,.491-1.11A1.936,1.936,0,0,0,21.439,12.8Zm-9.353,5.707A4.209,4.209,0,0,1,8.055,14.17a4.208,4.208,0,0,1,4.031-4.341,4.2,4.2,0,0,1,4.03,4.341A4.206,4.206,0,0,1,12.086,18.511Z" transform="translate(-1.909 2.728)" fill="#183c68"/>
  </g>
</svg>
