<svg xmlns="http://www.w3.org/2000/svg" width="20.3" height="20.3" viewBox="0 0 20.3 20.3">
  <path id="web" d="M130-820a9.688,9.688,0,0,1-3.889-.789,10.144,10.144,0,0,1-3.178-2.143,10.14,10.14,0,0,1-2.143-3.179A9.687,9.687,0,0,1,120-830a9.681,9.681,0,0,1,.79-3.892,10.148,10.148,0,0,1,2.143-3.175,10.142,10.142,0,0,1,3.178-2.143A9.689,9.689,0,0,1,130-840a9.682,9.682,0,0,1,3.892.789,10.151,10.151,0,0,1,3.175,2.143,10.147,10.147,0,0,1,2.143,3.175A9.68,9.68,0,0,1,140-830a9.687,9.687,0,0,1-.79,3.889,10.139,10.139,0,0,1-2.143,3.179,10.154,10.154,0,0,1-3.175,2.143A9.681,9.681,0,0,1,130-820Zm0-1.1a16.511,16.511,0,0,0,1.613-2.468,13,13,0,0,0,1.032-2.712h-5.291a15.2,15.2,0,0,0,1.053,2.8A12.608,12.608,0,0,0,130-821.1Zm-1.415-.167a10.388,10.388,0,0,1-1.42-2.266,13.029,13.029,0,0,1-.956-2.747h-4.261a8.81,8.81,0,0,0,2.708,3.4A8.171,8.171,0,0,0,128.585-821.269Zm2.829,0a8.171,8.171,0,0,0,3.928-1.613,8.811,8.811,0,0,0,2.708-3.4h-4.261a19.029,19.029,0,0,1-1.063,2.768A13.267,13.267,0,0,1,131.415-821.269Zm-9.919-6.124h4.483a13.218,13.218,0,0,1-.178-1.332q-.052-.648-.052-1.275t.052-1.275a13.213,13.213,0,0,1,.178-1.332H121.5a8.237,8.237,0,0,0-.283,1.257,9.137,9.137,0,0,0-.1,1.349,9.138,9.138,0,0,0,.1,1.349A8.243,8.243,0,0,0,121.5-827.393Zm5.594,0h5.82q.126-.684.178-1.311t.052-1.3q0-.669-.052-1.3t-.178-1.311h-5.82q-.126.684-.178,1.311t-.052,1.3q0,.669.052,1.3T127.09-827.393Zm6.932,0H138.5a8.239,8.239,0,0,0,.283-1.258,9.137,9.137,0,0,0,.1-1.349,9.135,9.135,0,0,0-.1-1.349,8.233,8.233,0,0,0-.283-1.257h-4.483a13.2,13.2,0,0,1,.178,1.332q.052.648.052,1.275t-.052,1.275A13.205,13.205,0,0,1,134.021-827.393Zm-.231-6.325h4.261a8.776,8.776,0,0,0-2.676-3.4,8.654,8.654,0,0,0-3.96-1.635,13.05,13.05,0,0,1,1.4,2.341A15.34,15.34,0,0,1,133.791-833.718Zm-6.436,0h5.291a15.393,15.393,0,0,0-1.085-2.829A12.34,12.34,0,0,0,130-838.9a12.34,12.34,0,0,0-1.56,2.35A15.393,15.393,0,0,0,127.355-833.718Zm-5.406,0h4.261a15.342,15.342,0,0,1,.978-2.694,13.05,13.05,0,0,1,1.4-2.341,8.538,8.538,0,0,0-3.971,1.645A8.946,8.946,0,0,0,121.949-833.718Z" transform="translate(-119.85 840.15)" fill="#333" stroke="#333" stroke-width="0.3"/>
</svg>
