<svg xmlns="http://www.w3.org/2000/svg" width="32" height="32" viewBox="0 0 32 32">
  <g id="linkedin" transform="translate(0 -0.086)">
    <circle id="Ellipse_2904" data-name="Ellipse 2904" cx="16" cy="16" r="16" transform="translate(0 0.086)" fill="#fff"/>
    <path id="language_FILL0_wght200_GRAD0_opsz24" d="M130.063-819.873a9.75,9.75,0,0,1-3.914-.794,10.206,10.206,0,0,1-3.2-2.157,10.205,10.205,0,0,1-2.157-3.2,9.749,9.749,0,0,1-.795-3.914,9.742,9.742,0,0,1,.795-3.917,10.215,10.215,0,0,1,2.157-3.2,10.206,10.206,0,0,1,3.2-2.157,9.75,9.75,0,0,1,3.914-.794,9.742,9.742,0,0,1,3.917.794,10.216,10.216,0,0,1,3.2,2.157,10.215,10.215,0,0,1,2.157,3.2,9.742,9.742,0,0,1,.795,3.917,9.749,9.749,0,0,1-.795,3.914,10.2,10.2,0,0,1-2.157,3.2,10.216,10.216,0,0,1-3.2,2.157A9.742,9.742,0,0,1,130.063-819.873Zm0-1.11a16.616,16.616,0,0,0,1.623-2.484,13.089,13.089,0,0,0,1.039-2.729H127.4a15.3,15.3,0,0,0,1.06,2.815A12.689,12.689,0,0,0,130.063-820.983Zm-1.424-.168a10.45,10.45,0,0,1-1.429-2.28,13.113,13.113,0,0,1-.962-2.764h-4.288a8.867,8.867,0,0,0,2.726,3.421A8.223,8.223,0,0,0,128.64-821.15Zm2.847,0a8.223,8.223,0,0,0,3.953-1.623,8.867,8.867,0,0,0,2.726-3.421h-4.288a19.154,19.154,0,0,1-1.07,2.786A13.35,13.35,0,0,1,131.487-821.15Zm-9.982-6.163h4.511a13.3,13.3,0,0,1-.18-1.341q-.053-.653-.053-1.283t.053-1.283a13.3,13.3,0,0,1,.18-1.341h-4.511a8.289,8.289,0,0,0-.285,1.266,9.2,9.2,0,0,0-.1,1.358,9.2,9.2,0,0,0,.1,1.358A8.289,8.289,0,0,0,121.505-827.313Zm5.63,0h5.857q.127-.688.18-1.319t.053-1.3q0-.673-.053-1.3t-.18-1.319h-5.857q-.127.688-.18,1.319t-.053,1.3q0,.673.053,1.3T127.135-827.313Zm6.976,0h4.511a8.286,8.286,0,0,0,.285-1.266,9.194,9.194,0,0,0,.1-1.358,9.194,9.194,0,0,0-.1-1.358,8.286,8.286,0,0,0-.285-1.266H134.11a13.3,13.3,0,0,1,.18,1.341q.053.653.053,1.283t-.053,1.283A13.3,13.3,0,0,1,134.11-827.313Zm-.232-6.365h4.288a8.833,8.833,0,0,0-2.693-3.421,8.709,8.709,0,0,0-3.986-1.645,13.129,13.129,0,0,1,1.407,2.356A15.439,15.439,0,0,1,133.878-833.678Zm-6.477,0h5.324a15.487,15.487,0,0,0-1.092-2.847,12.417,12.417,0,0,0-1.57-2.365,12.417,12.417,0,0,0-1.57,2.365A15.486,15.486,0,0,0,127.4-833.678Zm-5.44,0h4.288a15.44,15.44,0,0,1,.984-2.711,13.129,13.129,0,0,1,1.407-2.356,8.592,8.592,0,0,0-4,1.656A9,9,0,0,0,121.961-833.678Z" transform="translate(-114 846.086)" fill="#333"/>
  </g>
</svg>
