<svg id="whatsapp" xmlns="http://www.w3.org/2000/svg" width="20" height="20" viewBox="0 0 20 20">
  <path id="Path_9447" data-name="Path 9447" d="M10,20h0A10,10,0,0,1,0,10H0A10,10,0,0,1,10,0h0A10,10,0,0,1,20,10h0A10,10,0,0,1,10,20Z" fill="#25d366"/>
  <g id="Group_553" data-name="Group 553" transform="translate(3.403 3.42)">
    <g id="WA_Logo" transform="translate(0)">
      <g id="Group_552" data-name="Group 552">
        <path id="Path_9448" data-name="Path 9448" d="M181.377,172.732a6.573,6.573,0,0,0-10.342,7.93l-.932,3.406,3.484-.914a6.554,6.554,0,0,0,3.14.8h0a6.576,6.576,0,0,0,4.65-11.222Zm-4.646,10.112h0a5.447,5.447,0,0,1-2.781-.763l-.2-.117-2.068.542.553-2.016-.13-.206a5.463,5.463,0,1,1,4.628,2.56Zm3-4.093c-.166-.082-.972-.48-1.122-.534s-.26-.082-.37.082-.424.534-.52.644-.192.124-.356.042a4.467,4.467,0,0,1-1.32-.816,4.984,4.984,0,0,1-.914-1.138c-.1-.166-.01-.254.072-.336s.166-.192.246-.288a1.1,1.1,0,0,0,.166-.277.3.3,0,0,0-.014-.288c-.042-.082-.37-.89-.506-1.22s-.268-.277-.37-.282-.206-.006-.314-.006a.6.6,0,0,0-.438.206,1.844,1.844,0,0,0-.574,1.37,3.187,3.187,0,0,0,.67,1.7,7.321,7.321,0,0,0,2.806,2.48,9.383,9.383,0,0,0,.936.346,2.242,2.242,0,0,0,1.034.066,1.7,1.7,0,0,0,1.106-.78,1.389,1.389,0,0,0,.1-.78c-.039-.063-.15-.1-.316-.187Z" transform="translate(-170.103 -170.809)" fill="#fff" fill-rule="evenodd"/>
      </g>
    </g>
  </g>
</svg>
