<svg xmlns="http://www.w3.org/2000/svg" width="32" height="32" viewBox="0 0 32 32">
  <g id="youtube_icon" transform="translate(0 -0.482)">
    <circle id="Ellipse_2904" data-name="Ellipse 2904" cx="16" cy="16" r="16" transform="translate(0 0.482)" fill="#fff"/>
    <g id="youtube" transform="translate(7 10.482)">
      <path id="Path_9767" data-name="Path 9767" d="M184.906,267.9a2.167,2.167,0,0,0-1.526-1.537,63.157,63.157,0,0,0-13.488,0,2.167,2.167,0,0,0-1.526,1.537,24.307,24.307,0,0,0,0,8.367,2.167,2.167,0,0,0,1.526,1.537,63.151,63.151,0,0,0,13.488,0,2.167,2.167,0,0,0,1.526-1.537,24.483,24.483,0,0,0,0-8.367Zm-10.039,6.75V269.52l4.511,2.566Z" transform="translate(-168.003 -266.004)" fill="#333"/>
    </g>
  </g>
</svg>
