<svg id="Group_4929" data-name="Group 4929" xmlns="http://www.w3.org/2000/svg" xmlns:xlink="http://www.w3.org/1999/xlink" width="117.614" height="26.274" viewBox="0 0 117.614 26.274">
  <defs>
    <clipPath id="clip-path">
      <rect id="Rectangle_5203" data-name="Rectangle 5203" width="117.614" height="26.274" fill="#f4f3f7"/>
    </clipPath>
  </defs>
  <g id="Group_4928" data-name="Group 4928" clip-path="url(#clip-path)">
    <path id="Path_10091" data-name="Path 10091" d="M113.2,0H8.845a6.43,6.43,0,0,0-6.1,5.215L.075,21.059a4.291,4.291,0,0,0,4.335,5.215h104.36a6.43,6.43,0,0,0,6.1-5.215L117.54,5.215A4.291,4.291,0,0,0,113.2,0" transform="translate(0 0)" fill="#dcdcdd"/>
    <g id="Group_4948" data-name="Group 4948">
      <path id="Path_10092" data-name="Path 10092" d="M58.721,34l-.937,4.688a.271.271,0,0,1-.461.137,3.224,3.224,0,0,0-1.053-.747,5.084,5.084,0,0,0-2.11-.4,5.759,5.759,0,0,0-2.958.771,5.487,5.487,0,0,0-2.072,2.139,6.339,6.339,0,0,0-.752,3.1,4.738,4.738,0,0,0,.6,2.419A3.988,3.988,0,0,0,50.6,47.678a4.887,4.887,0,0,0,2.3.54,5.012,5.012,0,0,0,2.772-.775.273.273,0,0,1,.422.278l-.007.036a.273.273,0,0,0,.268.326H58.1a.273.273,0,0,0,.268-.22l2.743-13.754a.273.273,0,0,0-.268-.326H58.989a.273.273,0,0,0-.268.22M56.6,44.3a3.376,3.376,0,0,1-1.262,1.369,3.422,3.422,0,0,1-1.811.491,2.775,2.775,0,0,1-2-.684,2.505,2.505,0,0,1-.713-1.9,4.284,4.284,0,0,1,.453-1.995,3.374,3.374,0,0,1,1.262-1.368,3.422,3.422,0,0,1,1.811-.491,2.779,2.779,0,0,1,2,.684,2.507,2.507,0,0,1,.713,1.9A4.283,4.283,0,0,1,56.6,44.3" transform="translate(-39.977 -27.916)" fill="#4b4b4b"/>
      <path id="Path_10093" data-name="Path 10093" d="M125.506,56.556a.275.275,0,0,0-.275-.326,6.933,6.933,0,0,0-1.983.322,3.665,3.665,0,0,0-1.04.544.273.273,0,0,1-.437-.266l.033-.163a.273.273,0,0,0-.267-.327H119.8a.273.273,0,0,0-.268.22L117.6,66.3a.273.273,0,0,0,.268.326h1.853a.273.273,0,0,0,.268-.219l.977-4.85q.616-3.1,3.565-3.1a3.026,3.026,0,0,1,.352.022.271.271,0,0,0,.3-.219Z" transform="translate(-97.172 -46.464)" fill="#4b4b4b"/>
      <path id="Path_10094" data-name="Path 10094" d="M164.231,55.435a6.082,6.082,0,0,0-2.824,1.4,5.455,5.455,0,0,0-1.621,2.546,6.285,6.285,0,0,0-.095,3.184,4.543,4.543,0,0,0,1.1,2.2,4.08,4.08,0,0,0,2.058,1.184,6.068,6.068,0,0,0,2.746-.018,7.54,7.54,0,0,0,2.2-.836,5.208,5.208,0,0,0,1.49-1.259.274.274,0,0,0-.018-.356l-.954-1.023a.27.27,0,0,0-.4,0,3.93,3.93,0,0,1-.935.8,4.829,4.829,0,0,1-1.562.621q-2.666.573-3.349-1.547a.277.277,0,0,1,.2-.359l7.484-1.608a.274.274,0,0,0,.218-.274,6.979,6.979,0,0,0-.154-1.238,4.3,4.3,0,0,0-1.956-2.96,4.858,4.858,0,0,0-3.626-.453m-2,4.9a.276.276,0,0,1-.328-.316,3.254,3.254,0,0,1,.736-1.6,3.312,3.312,0,0,1,1.888-1.075,2.8,2.8,0,0,1,2.029.224,2.136,2.136,0,0,1,1,1.322.277.277,0,0,1-.2.351Z" transform="translate(-131.827 -45.683)" fill="#4b4b4b"/>
      <path id="Path_10095" data-name="Path 10095" d="M232.673,56.537l-.133.7a.271.271,0,0,1-.464.138,4.046,4.046,0,0,0-3.157-1.177,5.759,5.759,0,0,0-2.958.771,5.538,5.538,0,0,0-2.081,2.149,6.286,6.286,0,0,0-.761,3.093,4.74,4.74,0,0,0,.6,2.419,3.987,3.987,0,0,0,1.629,1.571,4.888,4.888,0,0,0,2.3.54,5.023,5.023,0,0,0,2.787-.765.274.274,0,0,1,.424.277l-.005.026a.273.273,0,0,0,.268.326h1.736a.273.273,0,0,0,.268-.22l1.934-9.745a.273.273,0,0,0-.268-.326h-1.851a.273.273,0,0,0-.268.222m-1.326,6.282a3.468,3.468,0,0,1-1.262,1.369,3.409,3.409,0,0,1-1.821.491,2.777,2.777,0,0,1-2-.684,2.506,2.506,0,0,1-.713-1.9,4.212,4.212,0,0,1,.462-1.995,3.464,3.464,0,0,1,1.263-1.368,3.407,3.407,0,0,1,1.821-.491,2.779,2.779,0,0,1,2,.684,2.507,2.507,0,0,1,.713,1.9,4.209,4.209,0,0,1-.462,1.995" transform="translate(-184.371 -46.439)" fill="#4b4b4b"/>
      <path id="Path_10096" data-name="Path 10096" d="M307.075,56.2a5.328,5.328,0,0,0-3.818,1.446.271.271,0,0,1-.416-.039,2.867,2.867,0,0,0-1.084-.973,4.147,4.147,0,0,0-1.946-.434,4.914,4.914,0,0,0-2.818.789.271.271,0,0,1-.418-.276l.014-.074a.273.273,0,0,0-.268-.324h-1.74a.273.273,0,0,0-.268.22l-1.934,9.745a.273.273,0,0,0,.268.326H294.5a.273.273,0,0,0,.267-.219l1.035-5.12q.6-2.968,3.16-2.968,1.966,0,1.966,1.85a4.132,4.132,0,0,1-.077.809l-1.071,5.32a.273.273,0,0,0,.267.327H301.9a.273.273,0,0,0,.267-.219l1.035-5.138q.6-2.949,3.161-2.949,1.965,0,1.966,1.85a4.127,4.127,0,0,1-.077.809l-1.071,5.32a.273.273,0,0,0,.267.327H309.3a.273.273,0,0,0,.268-.22l1.093-5.485a6.3,6.3,0,0,0,.135-1.272,3.234,3.234,0,0,0-.992-2.544,3.947,3.947,0,0,0-2.727-.887" transform="translate(-241.599 -46.439)" fill="#4b4b4b"/>
      <path id="Path_10097" data-name="Path 10097" d="M409.717,64.322a3.523,3.523,0,0,1-1.6.357,2.805,2.805,0,0,1-2.024-.684,2.506,2.506,0,0,1-.713-1.9,4.213,4.213,0,0,1,.462-1.995,3.464,3.464,0,0,1,1.263-1.368,3.408,3.408,0,0,1,1.821-.491,2.641,2.641,0,0,1,2.436,1.2.274.274,0,0,0,.359.109l1.579-.812a.272.272,0,0,0,.114-.377,4.1,4.1,0,0,0-1.607-1.554,5.593,5.593,0,0,0-2.688-.607,6.43,6.43,0,0,0-3.19.781,5.668,5.668,0,0,0-2.187,2.149,6.052,6.052,0,0,0-.79,3.083,4.5,4.5,0,0,0,.617,2.371,4.162,4.162,0,0,0,1.763,1.59,5.937,5.937,0,0,0,2.669.569,6.2,6.2,0,0,0,2.736-.607,4.867,4.867,0,0,0,1.8-1.457.272.272,0,0,0-.071-.385l-1.327-.894a.276.276,0,0,0-.369.062,3.183,3.183,0,0,1-1.058.863" transform="translate(-332.976 -46.439)" fill="#4b4b4b"/>
      <path id="Path_10098" data-name="Path 10098" d="M471.657,56.537l-.133.7a.271.271,0,0,1-.464.138A4.046,4.046,0,0,0,467.9,56.2a5.759,5.759,0,0,0-2.958.771,5.538,5.538,0,0,0-2.081,2.149,6.286,6.286,0,0,0-.761,3.093,4.74,4.74,0,0,0,.6,2.419,3.987,3.987,0,0,0,1.629,1.571,4.888,4.888,0,0,0,2.3.54,5.023,5.023,0,0,0,2.787-.765.274.274,0,0,1,.424.277l-.005.026a.273.273,0,0,0,.268.326h1.736a.273.273,0,0,0,.268-.22l1.934-9.745a.273.273,0,0,0-.268-.326h-1.851a.273.273,0,0,0-.268.222m-1.326,6.282a3.468,3.468,0,0,1-1.262,1.369,3.409,3.409,0,0,1-1.821.491,2.777,2.777,0,0,1-2-.684,2.506,2.506,0,0,1-.713-1.9,4.212,4.212,0,0,1,.462-1.995,3.464,3.464,0,0,1,1.263-1.368,3.407,3.407,0,0,1,1.821-.491,2.779,2.779,0,0,1,2,.684,2.506,2.506,0,0,1,.713,1.9,4.209,4.209,0,0,1-.462,1.995" transform="translate(-381.853 -46.439)" fill="#4b4b4b"/>
      <path id="Path_10099" data-name="Path 10099" d="M543.429,48.049h2.328a.273.273,0,0,0,.268-.219l.276-1.381a.273.273,0,0,0-.268-.326h-2.108a.273.273,0,0,1-.267-.328l.347-1.7a.273.273,0,0,0-.267-.328h-1.85a.273.273,0,0,0-.268.22l-.374,1.9a.271.271,0,0,1-.275.22c-1.07-.036-5.529-.185-5.86-.185a6.1,6.1,0,0,0-3.555.935,2.935,2.935,0,0,0-1.339,2.534,2.135,2.135,0,0,0,.511,1.513,2.932,2.932,0,0,0,1.214.79,13.709,13.709,0,0,0,1.8.453,9.257,9.257,0,0,1,1.551.443.707.707,0,0,1,.491.675,1,1,0,0,1-.588.915,3.766,3.766,0,0,1-1.744.318,7.323,7.323,0,0,1-1.985-.27,5.311,5.311,0,0,1-1.366-.576.27.27,0,0,0-.376.106l-.741,1.369a.276.276,0,0,0,.1.366,6.139,6.139,0,0,0,1.62.652,9.6,9.6,0,0,0,2.5.318,6.334,6.334,0,0,0,3.585-.906A2.911,2.911,0,0,0,538.137,53a2.067,2.067,0,0,0-.5-1.465,2.908,2.908,0,0,0-1.195-.781,13.523,13.523,0,0,0-1.773-.453,9.04,9.04,0,0,1-1.59-.453.748.748,0,0,1-.511-.723,1.03,1.03,0,0,1,.588-.906,3.446,3.446,0,0,1,1.725-.347c.33,0,4.426.126,5.615.163a.272.272,0,0,1,.257.327l-.919,4.54a4.132,4.132,0,0,0-.077.809,2.59,2.59,0,0,0,.809,2.023,3.064,3.064,0,0,0,2.139.733,4.758,4.758,0,0,0,2.31-.513.272.272,0,0,0,.129-.3l-.292-1.222a.27.27,0,0,0-.382-.18,2.382,2.382,0,0,1-1.051.233q-1.214,0-1.214-1.156a4.048,4.048,0,0,1,.038-.443l.92-4.618a.273.273,0,0,1,.268-.22" transform="translate(-437.094 -36.17)" fill="#4b4b4b"/>
    </g>
  </g>
</svg>
